<svg width="83" height="28" viewBox="0 0 83 28" fill="none" xmlns="http://www.w3.org/2000/svg">
<path d="M11.9995 23.6855C17.5224 23.6855 21.9995 19.2084 21.9995 13.6855C21.9995 8.1627 17.5224 3.68555 11.9995 3.68555C6.47666 3.68555 1.99951 8.1627 1.99951 13.6855C1.99951 19.2084 6.47666 23.6855 11.9995 23.6855Z" stroke="#22798C" stroke-width="1.5"/>
<path d="M8.49902 14.1855L10.499 16.1855L15.499 11.1855" stroke="#22798C" stroke-width="1.5" stroke-linecap="round" stroke-linejoin="round"/>
<path d="M35.6094 19.4492H42.0078C42.8516 19.4492 43.4199 19.2969 43.7129 18.9922C44.0176 18.6875 44.2285 18.043 44.3457 17.0586C44.3809 16.8359 44.4922 16.6777 44.6797 16.584C44.7852 16.5137 44.8965 16.4785 45.0137 16.4785C45.0957 16.4785 45.1836 16.4961 45.2773 16.5312C45.5469 16.6367 45.752 16.7949 45.8926 17.0059C46.0098 17.1816 46.0625 17.3633 46.0508 17.5508C46.0508 17.5977 46.0449 17.6504 46.0332 17.709C45.9043 18.6113 45.7051 19.2969 45.4355 19.7656C45.166 20.2344 44.7676 20.5742 44.2402 20.7852C43.7129 20.9961 42.9746 21.1016 42.0254 21.1016H35.6621C34.0801 21.1016 33.002 20.8965 32.4277 20.4863C31.8535 20.0879 31.5664 19.2852 31.5664 18.0781V10.2734C31.5664 10.0156 31.6484 9.81055 31.8125 9.6582C31.9883 9.49414 32.1934 9.41211 32.4277 9.41211C32.6738 9.41211 32.8789 9.49414 33.043 9.6582C33.2188 9.82227 33.3066 10.0273 33.3066 10.2734V11.9434C33.3066 12.0605 33.3652 12.1191 33.4824 12.1191H41.9375C42.0547 12.1191 42.1133 12.0605 42.1133 11.9434V7.9707C42.1133 7.85352 42.0547 7.79492 41.9375 7.79492H31.5664C31.3438 7.79492 31.1504 7.71875 30.9863 7.56641C30.8223 7.40234 30.7402 7.20898 30.7402 6.98633C30.7402 6.76367 30.8223 6.57031 30.9863 6.40625C31.1504 6.24219 31.3438 6.16016 31.5664 6.16016H42.3242C42.7461 6.16016 43.1035 6.3125 43.3965 6.61719C43.7012 6.92188 43.8535 7.2793 43.8535 7.68945V13.7539C43.8535 14.0117 43.7656 14.2227 43.5898 14.3867C43.4258 14.5508 43.2266 14.6328 42.9922 14.6328H42.9043C42.6816 14.6328 42.4941 14.5566 42.3418 14.4043C42.1895 14.252 42.1133 14.0645 42.1133 13.8418C42.1133 13.7832 42.084 13.7539 42.0254 13.7539H33.4824C33.3652 13.7539 33.3066 13.8125 33.3066 13.9297V18.0957C33.3066 18.6582 33.4473 19.0273 33.7285 19.2031C34.0098 19.3672 34.6367 19.4492 35.6094 19.4492ZM61.7656 11.5039C61.8828 11.5039 61.9414 11.4453 61.9414 11.3281V10.1855C61.9414 10.0684 61.8828 10.0098 61.7656 10.0098H57.4414C57.3242 10.0098 57.2656 10.0684 57.2656 10.1855V11.3281C57.2656 11.4453 57.3242 11.5039 57.4414 11.5039H61.7656ZM61.7656 14.1934C61.8828 14.1934 61.9414 14.1348 61.9414 14.0176V12.8574C61.9414 12.7402 61.8828 12.6816 61.7656 12.6816H57.4414C57.3242 12.6816 57.2656 12.7402 57.2656 12.8574V14.0176C57.2656 14.1348 57.3242 14.1934 57.4414 14.1934H61.7656ZM61.7656 16.8828C61.8828 16.8828 61.9414 16.8242 61.9414 16.707V15.5469C61.9414 15.4297 61.8828 15.3711 61.7656 15.3711H57.4414C57.3242 15.3711 57.2656 15.4297 57.2656 15.5469V16.707C57.2656 16.8242 57.3242 16.8828 57.4414 16.8828H61.7656ZM55.7188 10.3086C55.7188 9.88672 55.8652 9.5293 56.1582 9.23633C56.4629 8.93164 56.8262 8.7793 57.248 8.7793H58.1973C58.3145 8.7793 58.3848 8.7207 58.4082 8.60352C58.5254 7.99414 58.6016 7.61328 58.6367 7.46094C58.6484 7.41406 58.6309 7.37305 58.584 7.33789C58.5488 7.30273 58.5137 7.28516 58.4785 7.28516H55.7539C55.5547 7.28516 55.3848 7.21484 55.2441 7.07422C55.1152 6.93359 55.0508 6.76953 55.0508 6.58203C55.0508 6.38281 55.1152 6.21289 55.2441 6.07227C55.3848 5.93164 55.5547 5.86133 55.7539 5.86133H63.3652C63.5645 5.86133 63.7344 5.93164 63.875 6.07227C64.0156 6.21289 64.0859 6.38281 64.0859 6.58203C64.0859 6.76953 64.0156 6.93359 63.875 7.07422C63.7344 7.21484 63.5645 7.28516 63.3652 7.28516H60.6758C60.5586 7.28516 60.4824 7.33789 60.4473 7.44336C60.4121 7.57227 60.3535 7.76563 60.2715 8.02344C60.1895 8.28125 60.125 8.47461 60.0781 8.60352C60.0664 8.65039 60.0723 8.69141 60.0957 8.72656C60.1309 8.76172 60.166 8.7793 60.2012 8.7793H62.0117C62.4336 8.7793 62.791 8.93164 63.084 9.23633C63.3887 9.5293 63.541 9.88672 63.541 10.3086V16.6016C63.541 17.0234 63.3887 17.3867 63.084 17.6914C62.791 17.9844 62.4336 18.1309 62.0117 18.1309H57.248C56.8262 18.1309 56.4629 17.9844 56.1582 17.6914C55.8652 17.3867 55.7188 17.0234 55.7188 16.6016V10.3086ZM50.4805 11.1172C50.2227 11.1172 50 11.0293 49.8125 10.8535C49.6367 10.666 49.5488 10.4492 49.5488 10.2031C49.5488 10.1797 49.5371 10.168 49.5137 10.168C49.502 10.1562 49.4902 10.1562 49.4785 10.168C49.3027 10.3789 49.1152 10.584 48.916 10.7832C48.7754 10.9238 48.6055 10.9824 48.4062 10.959C48.207 10.9355 48.043 10.8418 47.9141 10.6777C47.7969 10.5137 47.7383 10.332 47.7383 10.1328C47.7383 9.91016 47.8145 9.7168 47.9668 9.55273C49.0566 8.45117 49.9297 7.17383 50.5859 5.7207C50.668 5.5332 50.7969 5.38086 50.9727 5.26367C51.1484 5.14648 51.3418 5.08789 51.5527 5.08789C52.0215 5.08789 52.4258 5.24023 52.7656 5.54492C53.7031 6.36523 54.4766 7.13281 55.0859 7.84766C55.2617 8.04688 55.3496 8.28125 55.3496 8.55078C55.3496 8.80859 55.2676 9.04883 55.1035 9.27148C54.9746 9.44727 54.8047 9.53516 54.5938 9.53516C54.5938 9.53516 54.5879 9.53516 54.5762 9.53516C54.3652 9.53516 54.1895 9.44727 54.0488 9.27148C53.3457 8.3457 52.6426 7.55469 51.9395 6.89844C51.8457 6.81641 51.7754 6.82812 51.7285 6.93359C51.1895 7.91797 50.6035 8.79688 49.9707 9.57031C49.9473 9.60547 49.9414 9.64062 49.9531 9.67578C49.9766 9.69922 50.0059 9.71094 50.041 9.71094H53.3105C53.5098 9.71094 53.6738 9.78125 53.8027 9.92188C53.9434 10.0508 54.0137 10.2148 54.0137 10.4141C54.0137 10.6133 53.9434 10.7832 53.8027 10.9238C53.6738 11.0527 53.5098 11.1172 53.3105 11.1172H50.4805ZM53.2402 12.5938C53.6621 12.5938 54.0195 12.7461 54.3125 13.0508C54.6172 13.3438 54.7695 13.7012 54.7695 14.123V17.7617C54.7695 18.125 54.7285 18.4121 54.6465 18.623C54.5762 18.8223 54.4355 18.9863 54.2246 19.1152C53.9434 19.2559 53.5215 19.3379 52.959 19.3613C52.9473 19.3613 52.9355 19.3613 52.9238 19.3613C52.7246 19.3613 52.5488 19.2969 52.3965 19.168C52.2324 19.0273 52.1211 18.8516 52.0625 18.6406C52.0156 18.4648 52.0449 18.3066 52.1504 18.166C52.2559 18.0137 52.3965 17.9375 52.5723 17.9375C52.7363 17.9375 52.9121 17.9375 53.0996 17.9375C53.1934 17.9258 53.252 17.9082 53.2754 17.8848C53.3105 17.8496 53.3281 17.7969 53.3281 17.7266V14.2461C53.3281 14.1289 53.2695 14.0703 53.1523 14.0703H51.5703C51.4531 14.0703 51.3945 14.1289 51.3945 14.2461V20.8203C51.3945 21.0312 51.3184 21.207 51.166 21.3477C51.0254 21.5 50.8496 21.5762 50.6387 21.5762C50.4395 21.5762 50.2637 21.5 50.1113 21.3477C49.9707 21.207 49.9004 21.0312 49.9004 20.8203V14.2461C49.9004 14.1289 49.8418 14.0703 49.7246 14.0703H48.9336C48.7227 14.0703 48.5469 14 48.4062 13.8594C48.2656 13.707 48.1953 13.5312 48.1953 13.332C48.1953 13.1211 48.2656 12.9453 48.4062 12.8047C48.5469 12.6641 48.7227 12.5938 48.9336 12.5938H53.2402ZM56.8086 18.8867C57.0195 18.7344 57.248 18.6465 57.4941 18.623C57.5293 18.6113 57.5645 18.6055 57.5996 18.6055C57.7988 18.6055 57.9922 18.6641 58.1797 18.7812C58.3789 18.8984 58.4785 19.0742 58.4785 19.3086C58.4785 19.4961 58.4023 19.6484 58.25 19.7656C57.4648 20.3633 56.5625 20.8965 55.543 21.3652C55.4023 21.4238 55.2617 21.4531 55.1211 21.4531C55.0391 21.4531 54.9629 21.4414 54.8926 21.418C54.6582 21.3711 54.4531 21.2598 54.2773 21.084C54.1719 20.9785 54.125 20.8613 54.1367 20.7324C54.1367 20.6973 54.1367 20.6621 54.1367 20.627C54.1719 20.4512 54.2715 20.3281 54.4355 20.2578C55.3262 19.8594 56.1172 19.4023 56.8086 18.8867ZM60.7637 19.6953C60.623 19.5898 60.5527 19.4492 60.5527 19.2734C60.5527 19.0859 60.623 18.9453 60.7637 18.8516C60.9629 18.7227 61.1738 18.6523 61.3965 18.6406C61.4082 18.6406 61.4199 18.6406 61.4316 18.6406C61.6543 18.6406 61.8594 18.7051 62.0469 18.834C62.7383 19.2793 63.3535 19.7246 63.8926 20.1699C64.0449 20.2871 64.1211 20.4395 64.1211 20.627C64.1211 20.8613 64.0332 21.043 63.8574 21.1719C63.6816 21.2891 63.4941 21.3477 63.2949 21.3477C63.2715 21.3477 63.248 21.3477 63.2246 21.3477C62.9902 21.3359 62.7852 21.2539 62.6094 21.1016C62.082 20.6445 61.4668 20.1758 60.7637 19.6953ZM73.7012 7.70703C73.584 7.70703 73.5254 7.76563 73.5254 7.88281V19.8359C73.5254 19.8711 73.5371 19.9004 73.5605 19.9238C73.5957 19.9473 73.6367 19.9473 73.6836 19.9238C74.9023 19.2559 75.9805 18.2891 76.918 17.0234C76.9883 16.9297 76.9941 16.8301 76.9355 16.7246C75.9863 14.9902 75.2188 12.8457 74.6328 10.291C74.6211 10.2207 74.6152 10.1562 74.6152 10.0977C74.6152 9.94531 74.6621 9.80469 74.7559 9.67578C74.8848 9.47656 75.0605 9.35938 75.2832 9.32422C75.3418 9.3125 75.3945 9.3125 75.4414 9.32422C75.6055 9.32422 75.7578 9.36523 75.8984 9.44727C76.0859 9.56445 76.2031 9.73438 76.25 9.95703C76.6602 11.9023 77.2285 13.6074 77.9551 15.0723C77.9668 15.1074 77.9902 15.125 78.0254 15.125C78.0723 15.125 78.1016 15.1133 78.1133 15.0898C78.9688 13.4141 79.5781 11.4746 79.9414 9.27148C79.9531 9.22461 79.9414 9.18359 79.9062 9.14844C79.8828 9.11328 79.8477 9.0957 79.8008 9.0957H75.5117C75.1719 9.0957 74.8789 8.97852 74.6328 8.74414C74.3867 8.49805 74.2637 8.19922 74.2637 7.84766C74.2637 7.75391 74.2168 7.70703 74.123 7.70703H73.7012ZM68.832 17.1992C68.832 17.2461 68.8496 17.2871 68.8848 17.3223C68.9199 17.3457 68.9609 17.3574 69.0078 17.3574L71.7324 16.9707C71.8496 16.959 71.9082 16.8945 71.9082 16.7773V15.1777C71.9082 15.0605 71.8496 15.002 71.7324 15.002H69.0078C68.8906 15.002 68.832 15.0605 68.832 15.1777V17.1992ZM71.9082 7.88281C71.9082 7.76563 71.8496 7.70703 71.7324 7.70703H69.0078C68.8906 7.70703 68.832 7.76563 68.832 7.88281V9.62305C68.832 9.74023 68.8906 9.79883 69.0078 9.79883H71.7324C71.8496 9.79883 71.9082 9.74023 71.9082 9.62305V7.88281ZM69.0078 11.293C68.8906 11.293 68.832 11.3516 68.832 11.4688V13.3145C68.832 13.4316 68.8906 13.4902 69.0078 13.4902H71.7324C71.8496 13.4902 71.9082 13.4316 71.9082 13.3145V11.4688C71.9082 11.3516 71.8496 11.293 71.7324 11.293H69.0078ZM80.4688 7.46094C80.6445 7.42578 80.8145 7.43164 80.9785 7.47852L81.2773 7.54883C81.4297 7.5957 81.5469 7.68359 81.6289 7.8125C81.7227 7.94141 81.7637 8.08789 81.752 8.25195C81.3301 11.6621 80.4629 14.498 79.1504 16.7598C79.0918 16.8652 79.0977 16.9648 79.168 17.0586C79.9297 18.1016 80.7969 18.9512 81.7695 19.6074C81.957 19.7246 82.0684 19.8945 82.1035 20.1172C82.1035 20.1523 82.1035 20.1875 82.1035 20.2227C82.1035 20.3984 82.0449 20.5566 81.9277 20.6973C81.7637 20.8965 81.5586 21.0254 81.3125 21.084C81.2539 21.0957 81.1953 21.1016 81.1367 21.1016C80.9727 21.1016 80.8086 21.0488 80.6445 20.9434C79.6953 20.2871 78.8516 19.4902 78.1133 18.5527C78.043 18.459 77.9727 18.4531 77.9023 18.5352C77.3047 19.2734 76.6074 19.9531 75.8105 20.5742C75.5527 20.75 75.2832 20.832 75.002 20.8203C74.9082 20.8203 74.8086 20.8145 74.7031 20.8027C74.3164 20.7207 73.9707 20.5273 73.666 20.2227C73.666 20.2227 73.6602 20.2168 73.6484 20.2051C73.625 20.1816 73.5957 20.1758 73.5605 20.1875C73.5371 20.1992 73.5254 20.2227 73.5254 20.2578V20.7676C73.5254 20.9902 73.4434 21.1777 73.2793 21.3301C73.127 21.4941 72.9395 21.5762 72.7168 21.5762C72.4941 21.5762 72.3008 21.4941 72.1367 21.3301C71.9844 21.1777 71.9082 20.9902 71.9082 20.7676V18.6758C71.9082 18.6289 71.8906 18.5938 71.8555 18.5703C71.8203 18.5352 71.7793 18.5176 71.7324 18.5176C70.1387 18.7871 68.457 19.0625 66.6875 19.3438C66.6406 19.3555 66.5879 19.3613 66.5293 19.3613C66.3535 19.3613 66.1953 19.3086 66.0547 19.2031C65.8555 19.0625 65.7324 18.875 65.6855 18.6406C65.6855 18.5938 65.6855 18.5469 65.6855 18.5C65.6855 18.3242 65.7383 18.166 65.8438 18.0254C65.9727 17.8379 66.1543 17.7324 66.3887 17.709C66.6699 17.6621 66.8926 17.6328 67.0566 17.6211C67.1738 17.6094 67.2324 17.5449 67.2324 17.4277V7.84766C67.2324 7.75391 67.1855 7.70703 67.0918 7.70703H66.6875C66.4766 7.70703 66.2949 7.63672 66.1426 7.49609C65.9902 7.34375 65.9141 7.16211 65.9141 6.95117C65.9141 6.72852 65.9902 6.54102 66.1426 6.38867C66.2949 6.23633 66.4766 6.16016 66.6875 6.16016H73.5781C73.8945 6.16016 74.1641 6.27734 74.3867 6.51172C74.6211 6.73437 74.7383 7.00391 74.7383 7.32031C74.7383 7.41406 74.7852 7.46094 74.8789 7.46094H80.416C80.4395 7.46094 80.457 7.46094 80.4688 7.46094Z" fill="#22798C"/>
</svg>
