<svg width="219" height="27" viewBox="0 0 219 27" fill="none" xmlns="http://www.w3.org/2000/svg">
<path d="M20.4062 4.44531C20.7188 4.44531 20.9844 4.55469 21.2031 4.77344C21.4219 4.99219 21.5312 5.25781 21.5312 5.57031C21.5312 5.86719 21.4219 6.125 21.2031 6.34375C20.9844 6.5625 20.7188 6.67188 20.4062 6.67188H2.6875C2.39062 6.67188 2.13281 6.5625 1.91406 6.34375C1.69531 6.125 1.58594 5.86719 1.58594 5.57031C1.58594 5.25781 1.69531 4.99219 1.91406 4.77344C2.13281 4.55469 2.39062 4.44531 2.6875 4.44531H10.0469C10.2031 4.44531 10.2812 4.36719 10.2812 4.21094V1.21094C10.2812 0.867188 10.3906 0.585938 10.6094 0.367188C10.8438 0.132812 11.1172 0.015625 11.4297 0.015625C11.7578 0.015625 12.0391 0.132812 12.2734 0.367188C12.4922 0.601562 12.6016 0.882812 12.6016 1.21094V4.21094C12.6016 4.36719 12.6797 4.44531 12.8359 4.44531H20.4062ZM9.01562 16.0703C9.03125 16.1328 9.03906 16.1953 9.03906 16.2578C9.03906 16.5234 8.96094 16.7656 8.80469 16.9844C8.60156 17.2656 8.32812 17.4531 7.98438 17.5469C7.89062 17.5781 7.8125 17.5938 7.75 17.5938C7.54688 17.5938 7.35938 17.5312 7.1875 17.4062C6.9375 17.2188 6.78906 16.9766 6.74219 16.6797C6.63281 15.6484 6.4375 14.5 6.15625 13.2344C5.85938 11.8438 5.50781 10.5469 5.10156 9.34375C5.05469 9.23438 5.03125 9.11719 5.03125 8.99219C5.03125 8.83594 5.07031 8.67969 5.14844 8.52344C5.28906 8.27344 5.5 8.10938 5.78125 8.03125C5.89062 8 6 7.98438 6.10938 7.98438C6.29688 7.98438 6.47656 8.03125 6.64844 8.125C6.92969 8.26562 7.11719 8.48438 7.21094 8.78125C7.64844 9.98438 8.03125 11.2656 8.35938 12.625C8.65625 13.875 8.875 15.0234 9.01562 16.0703ZM15.25 18.625C15.2188 18.6719 15.2188 18.7188 15.25 18.7656C15.2812 18.8125 15.3281 18.8359 15.3906 18.8359H21.1562C21.4531 18.8359 21.7109 18.9453 21.9297 19.1641C22.1484 19.3828 22.2578 19.6484 22.2578 19.9609C22.2578 20.2578 22.1484 20.5156 21.9297 20.7344C21.7109 20.9531 21.4531 21.0625 21.1562 21.0625H1.9375C1.625 21.0625 1.35938 20.9531 1.14062 20.7344C0.921875 20.5156 0.8125 20.2578 0.8125 19.9609C0.8125 19.6484 0.921875 19.3828 1.14062 19.1641C1.35938 18.9453 1.625 18.8359 1.9375 18.8359H12.5547C12.7109 18.8359 12.8203 18.7656 12.8828 18.625C13.4141 17.1875 13.9453 15.4688 14.4766 13.4688C14.9141 11.8438 15.2734 10.3203 15.5547 8.89844C15.6328 8.53906 15.8203 8.25781 16.1172 8.05469C16.3359 7.89844 16.5703 7.82031 16.8203 7.82031C16.9141 7.82031 17 7.82812 17.0781 7.84375C17.4375 7.92188 17.7109 8.10938 17.8984 8.40625C18.0391 8.60938 18.1094 8.82812 18.1094 9.0625C18.1094 9.15625 18.0938 9.25781 18.0625 9.36719C17.1719 12.8672 16.2344 15.9531 15.25 18.625ZM33.0625 4.09375C33.0625 3.9375 32.9844 3.85938 32.8281 3.85938H28.4688C28.3125 3.85938 28.2344 3.9375 28.2344 4.09375V6.20312C28.2344 6.35938 28.3125 6.4375 28.4688 6.4375H32.8281C32.9844 6.4375 33.0625 6.35938 33.0625 6.20312V4.09375ZM28.2344 10.6797C28.2344 10.8359 28.3125 10.9141 28.4688 10.9141H32.8281C32.9844 10.9141 33.0625 10.8359 33.0625 10.6797V8.64062C33.0625 8.48438 32.9844 8.40625 32.8281 8.40625H28.4688C28.3125 8.40625 28.2344 8.48438 28.2344 8.64062V10.6797ZM30.9766 15.5312C30.8359 15.3125 30.7969 15.0781 30.8594 14.8281C30.9219 14.5781 31.0703 14.3984 31.3047 14.2891C31.4766 14.1953 31.6484 14.1484 31.8203 14.1484C31.9297 14.1484 32.0312 14.1562 32.125 14.1719C32.4062 14.2344 32.6328 14.3984 32.8047 14.6641C33.9922 16.3203 34.9297 17.8828 35.6172 19.3516C35.6953 19.5078 35.7344 19.6641 35.7344 19.8203C35.7344 19.9609 35.7031 20.0938 35.6406 20.2188C35.5312 20.5156 35.3359 20.7344 35.0547 20.875C34.9141 20.9531 34.7656 20.9922 34.6094 20.9922C34.5 20.9922 34.3828 20.9688 34.2578 20.9219C33.9766 20.8125 33.7812 20.6172 33.6719 20.3359C33.5469 20.0547 33.3906 19.7031 33.2031 19.2812C33.1406 19.1406 33.0312 19.0938 32.875 19.1406C31.125 19.6875 28.9453 20.3281 26.3359 21.0625C26.2109 21.0938 26.0938 21.1094 25.9844 21.1094C25.7812 21.1094 25.5938 21.0625 25.4219 20.9688C25.125 20.7969 24.9219 20.5547 24.8125 20.2422C24.7812 20.1328 24.7656 20.0234 24.7656 19.9141C24.7656 19.7266 24.8125 19.5469 24.9062 19.375C25.0781 19.0938 25.3203 18.9141 25.6328 18.8359C25.7891 18.8047 25.8906 18.7812 25.9375 18.7656C26.0625 18.7344 26.125 18.6641 26.125 18.5547V3.8125C26.125 3.25 26.3203 2.77344 26.7109 2.38281C27.1172 1.97656 27.6016 1.77344 28.1641 1.77344H33.0859C33.6484 1.77344 34.125 1.97656 34.5156 2.38281C34.9219 2.77344 35.125 3.25 35.125 3.8125V10.9375C35.125 11.5 34.9219 11.9844 34.5156 12.3906C34.125 12.7812 33.6484 12.9766 33.0859 12.9766H28.4688C28.3125 12.9766 28.2344 13.0547 28.2344 13.2109V17.9688C28.2344 18.0156 28.2578 18.0625 28.3047 18.1094C28.3516 18.1406 28.3984 18.1484 28.4453 18.1328C28.7109 18.0703 29.2266 17.9375 29.9922 17.7344C30.7734 17.5156 31.3828 17.3516 31.8203 17.2422C31.8672 17.2266 31.8984 17.1953 31.9141 17.1484C31.9453 17.0859 31.9453 17.0312 31.9141 16.9844C31.5703 16.4219 31.2578 15.9375 30.9766 15.5312ZM43.5625 1.77344C44.125 1.77344 44.6016 1.97656 44.9922 2.38281C45.3984 2.77344 45.6016 3.25 45.6016 3.8125V16.2344C45.6016 16.8594 45.5312 17.3516 45.3906 17.7109C45.25 18.0703 44.9922 18.3516 44.6172 18.5547C44.1641 18.8047 43.4297 18.9453 42.4141 18.9766C42.3828 18.9922 42.3594 19 42.3438 19C42 19 41.6953 18.8828 41.4297 18.6484C41.1484 18.4141 40.9453 18.1172 40.8203 17.7578C40.7891 17.6484 40.7734 17.5469 40.7734 17.4531C40.7734 17.2812 40.8281 17.1172 40.9375 16.9609C41.1094 16.7109 41.3438 16.5859 41.6406 16.5859H41.8984C42.0547 16.5859 42.2344 16.5859 42.4375 16.5859C42.4375 16.5859 42.5859 16.5859 42.8828 16.5859C43.0391 16.5859 43.1484 16.5547 43.2109 16.4922C43.2734 16.4297 43.3047 16.3203 43.3047 16.1641V4.23438C43.3047 4.07812 43.2266 4 43.0703 4H39.2031C39.0469 4 38.9688 4.07812 38.9688 4.23438V21.4375C38.9688 21.75 38.8594 22.0156 38.6406 22.2344C38.4219 22.4531 38.1562 22.5625 37.8438 22.5625C37.5312 22.5625 37.2656 22.4531 37.0469 22.2344C36.8281 22.0156 36.7188 21.75 36.7188 21.4375V3.8125C36.7188 3.25 36.9141 2.77344 37.3047 2.38281C37.7109 1.97656 38.1953 1.77344 38.7578 1.77344H43.5625ZM62.6406 17.1719C62.6719 17.1094 62.6719 17.0547 62.6406 17.0078C62.6094 16.9609 62.5625 16.9375 62.5 16.9375H56.5469C56.5 16.9375 56.4609 16.9609 56.4297 17.0078C56.3984 17.0547 56.3984 17.1016 56.4297 17.1484C56.8203 17.7734 57.1406 18.4141 57.3906 19.0703C57.4844 19.3047 57.4688 19.5312 57.3438 19.75C57.2344 19.9531 57.0547 20.0859 56.8047 20.1484C56.8047 20.1641 56.8125 20.1719 56.8281 20.1719H61.9141H61.9375C61.9375 20.1719 61.9297 20.1719 61.9141 20.1719C61.7578 20.125 61.6406 20.0234 61.5625 19.8672C61.5 19.6953 61.5078 19.5391 61.5859 19.3984C61.9453 18.7109 62.2969 17.9688 62.6406 17.1719ZM55.1875 12.4609C55.0312 12.4609 54.9531 12.5391 54.9531 12.6953V14.8984C54.9531 15.0547 55.0312 15.1328 55.1875 15.1328H63.6953C63.8516 15.1328 63.9297 15.0547 63.9297 14.8984V12.6953C63.9297 12.5391 63.8516 12.4609 63.6953 12.4609H55.1875ZM64.0234 16.9375V16.9609C64.2734 17.0234 64.4453 17.1719 64.5391 17.4062C64.6484 17.625 64.6484 17.8516 64.5391 18.0859C64.1797 18.7891 63.8359 19.4219 63.5078 19.9844C63.4766 20.0312 63.4766 20.0781 63.5078 20.125C63.5391 20.1562 63.5781 20.1719 63.625 20.1719H68.8984C69.1641 20.1719 69.3828 20.2656 69.5547 20.4531C69.7422 20.6406 69.8359 20.8594 69.8359 21.1094C69.8359 21.375 69.7422 21.5938 69.5547 21.7656C69.3828 21.9531 69.1641 22.0469 68.8984 22.0469H50.1953C49.9297 22.0469 49.7031 21.9531 49.5156 21.7656C49.3438 21.5938 49.2578 21.375 49.2578 21.1094C49.2578 20.8594 49.3438 20.6406 49.5156 20.4531C49.7031 20.2656 49.9297 20.1719 50.1953 20.1719H55.1875C55.25 20.1719 55.2969 20.1562 55.3281 20.125C55.3594 20.0781 55.3672 20.0234 55.3516 19.9609C55.1953 19.4766 54.9922 18.9531 54.7422 18.3906C54.6641 18.25 54.625 18.1094 54.625 17.9688C54.625 17.8125 54.6562 17.6719 54.7188 17.5469C54.8438 17.25 55.0547 17.0625 55.3516 16.9844C55.3672 16.9844 55.375 16.9766 55.375 16.9609C55.375 16.9609 55.3672 16.9531 55.3516 16.9375H54.8359C54.2734 16.9375 53.7891 16.7422 53.3828 16.3516C52.9922 15.9453 52.7969 15.4609 52.7969 14.8984V12.6719C52.7969 12.1094 53 11.6328 53.4062 11.2422C53.8125 10.8359 54.2891 10.6328 54.8359 10.6328H64.1875C64.75 10.6328 65.2266 10.8359 65.6172 11.2422C66.0234 11.6328 66.2266 12.1094 66.2266 12.6719V14.8984C66.2266 15.4609 66.0234 15.9453 65.6172 16.3516C65.2266 16.7422 64.75 16.9375 64.1875 16.9375H64.0234ZM67.6562 4.25781C67.8594 4.05469 68.1094 3.9375 68.4062 3.90625C68.4375 3.90625 68.4766 3.90625 68.5234 3.90625C68.7578 3.90625 68.9766 3.97656 69.1797 4.11719C69.3984 4.27344 69.5156 4.48438 69.5312 4.75C69.5469 5 69.4531 5.21094 69.25 5.38281C68.4688 6.03906 67.6641 6.65625 66.8359 7.23438C66.7891 7.26562 66.7656 7.3125 66.7656 7.375C66.7656 7.4375 66.7891 7.48438 66.8359 7.51562C67.7578 8.21875 68.7031 8.80469 69.6719 9.27344C69.9219 9.39844 70.0703 9.59375 70.1172 9.85938C70.1328 9.9375 70.1406 10.0078 70.1406 10.0703C70.1406 10.2578 70.0781 10.4375 69.9531 10.6094C69.7344 10.875 69.4609 11.0547 69.1328 11.1484C69.0234 11.1797 68.9062 11.1875 68.7812 11.1719C68.5938 11.1719 68.3984 11.1328 68.1953 11.0547C66.6797 10.2266 65.2734 9.16406 63.9766 7.86719C63.9609 7.85156 63.9375 7.85156 63.9062 7.86719C63.8906 7.86719 63.8828 7.875 63.8828 7.89062C63.8828 8.1875 63.7812 8.4375 63.5781 8.64062C63.375 8.84375 63.125 8.94531 62.8281 8.94531H55.9844C55.75 8.94531 55.5469 8.85938 55.375 8.6875C55.2031 8.51562 55.1172 8.3125 55.1172 8.07812C55.1172 8.0625 55.1094 8.05469 55.0938 8.05469L55.0469 8.03125C53.6875 9.375 52.1484 10.5 50.4297 11.4062C50.2578 11.5 50.0859 11.5469 49.9141 11.5469C49.8047 11.5469 49.7031 11.5312 49.6094 11.5C49.3125 11.4219 49.0703 11.2656 48.8828 11.0312C48.7578 10.8906 48.6953 10.7266 48.6953 10.5391C48.6953 10.4922 48.7031 10.4375 48.7188 10.375C48.7656 10.125 48.8984 9.94531 49.1172 9.83594C50.2578 9.25781 51.375 8.50781 52.4688 7.58594C52.5781 7.49219 52.5781 7.39062 52.4688 7.28125C51.9375 6.75 51.2812 6.21094 50.5 5.66406C50.3125 5.53906 50.2031 5.36719 50.1719 5.14844C50.1562 4.92969 50.2266 4.73438 50.3828 4.5625C50.5547 4.39062 50.7656 4.28906 51.0156 4.25781C51.2656 4.22656 51.5 4.27344 51.7188 4.39844C52.5625 4.94531 53.25 5.47656 53.7812 5.99219C53.9062 6.10156 54.0156 6.10156 54.1094 5.99219C54.8438 5.19531 55.4688 4.35938 55.9844 3.48438C56 3.4375 56 3.39844 55.9844 3.36719C55.9688 3.32031 55.9375 3.29688 55.8906 3.29688H51.5781C51.3125 3.29688 51.0859 3.21094 50.8984 3.03906C50.7266 2.85156 50.6406 2.63281 50.6406 2.38281C50.6406 2.11719 50.7266 1.89844 50.8984 1.72656C51.0859 1.53906 51.3125 1.44531 51.5781 1.44531H57.1562C57.1875 1.44531 57.2109 1.4375 57.2266 1.42188C57.4609 1.375 57.6875 1.40625 57.9062 1.51562L58.3047 1.72656C58.5078 1.82031 58.6484 1.97656 58.7266 2.19531C58.8047 2.41406 58.7969 2.625 58.7031 2.82812C58.0781 4.25 57.2266 5.59375 56.1484 6.85938C56.1172 6.89062 56.1094 6.92969 56.125 6.97656C56.1562 7.00781 56.1875 7.02344 56.2188 7.02344H62.9688C63.0156 7.02344 63.0469 7.00781 63.0625 6.97656C63.0781 6.92969 63.0703 6.89062 63.0391 6.85938C61.8047 5.42188 60.7656 3.83594 59.9219 2.10156C59.7969 1.86719 59.7891 1.63281 59.8984 1.39844C60.0078 1.14844 60.1875 0.984375 60.4375 0.90625C60.5625 0.875 60.6719 0.859375 60.7656 0.859375C60.9219 0.859375 61.0781 0.890625 61.2344 0.953125C61.5 1.07813 61.6953 1.26563 61.8203 1.51562C62.1016 2.07812 62.4219 2.61719 62.7812 3.13281C62.8594 3.27344 62.9609 3.29688 63.0859 3.20312C63.8047 2.60938 64.4375 2.04688 64.9844 1.51562C65.1875 1.3125 65.4375 1.19531 65.7344 1.16406C65.7812 1.14844 65.8203 1.14062 65.8516 1.14062C66.1016 1.14062 66.3281 1.21875 66.5312 1.375C66.75 1.53125 66.8594 1.74219 66.8594 2.00781C66.875 2.25781 66.7891 2.46875 66.6016 2.64062C65.7109 3.39062 64.8906 4.03125 64.1406 4.5625C64 4.65625 63.9844 4.76562 64.0938 4.89062C64.4375 5.26562 64.8047 5.65625 65.1953 6.0625C65.3047 6.17188 65.4219 6.17188 65.5469 6.0625C66.3281 5.46875 67.0312 4.86719 67.6562 4.25781ZM77.3594 3.34375C77.1562 3.125 77.0547 2.85938 77.0547 2.54688C77.0547 2.21875 77.1641 1.94531 77.3828 1.72656C77.6016 1.50781 77.875 1.39844 78.2031 1.39844H82.9141C83.4766 1.39844 83.9531 1.60156 84.3438 2.00781C84.75 2.39844 84.9766 2.875 85.0234 3.4375C85.4609 10.5312 88.3047 15.8359 93.5547 19.3516C93.8359 19.5547 93.9766 19.8438 93.9766 20.2188C93.9766 20.4844 93.8828 20.7266 93.6953 20.9453C93.4297 21.2266 93.1172 21.3984 92.7578 21.4609C92.6797 21.4766 92.5938 21.4844 92.5 21.4844C92.2344 21.4844 91.9844 21.4062 91.75 21.25C87.7812 18.5 85.1094 14.6094 83.7344 9.57812C83.7188 9.54688 83.6953 9.53125 83.6641 9.53125C83.6328 9.53125 83.6094 9.54688 83.5938 9.57812C81.9688 14.75 79.3047 18.6406 75.6016 21.25C75.3203 21.4375 75.0234 21.5312 74.7109 21.5312C74.6484 21.5312 74.5859 21.5234 74.5234 21.5078C74.1328 21.4609 73.7812 21.3047 73.4688 21.0391C73.25 20.8516 73.1406 20.6094 73.1406 20.3125C73.1406 19.9688 73.2891 19.7031 73.5859 19.5156C77.5234 17.0469 80.1875 13.0078 81.5781 7.39844C81.6562 7.08594 81.8281 6.84375 82.0938 6.67188C82.2969 6.53125 82.5156 6.46094 82.75 6.46094C82.8125 6.46094 82.8828 6.46875 82.9609 6.48438C82.9766 6.48438 82.9922 6.47656 83.0078 6.46094C83.0391 6.42969 83.0547 6.40625 83.0547 6.39062C82.9141 5.45312 82.8203 4.625 82.7734 3.90625C82.7578 3.75 82.6719 3.67188 82.5156 3.67188H78.2031C77.8594 3.67188 77.5781 3.5625 77.3594 3.34375ZM99.8594 20.6875C99.2969 20.6875 98.8125 20.4922 98.4062 20.1016C98.0156 19.6953 97.8203 19.2109 97.8203 18.6484V5.05469C97.8203 4.49219 98.0156 4.01562 98.4062 3.625C98.8125 3.21875 99.2969 3.01562 99.8594 3.01562H102.414C105.148 3.01562 107.25 3.76562 108.719 5.26562C110.188 6.75 110.922 8.92188 110.922 11.7812C110.922 14.6406 110.188 16.8438 108.719 18.3906C107.266 19.9219 105.211 20.6875 102.555 20.6875H99.8594ZM100.609 18.2031C100.609 18.3594 100.688 18.4297 100.844 18.4141H102.227C104.133 18.4141 105.578 17.8594 106.562 16.75C107.562 15.625 108.062 13.9688 108.062 11.7812C108.062 7.4375 106.117 5.27344 102.227 5.28906H100.844C100.688 5.28906 100.609 5.36719 100.609 5.52344V18.2031ZM116.594 20.6875C116.031 20.6875 115.547 20.4922 115.141 20.1016C114.75 19.6953 114.555 19.2109 114.555 18.6484V5.05469C114.555 4.49219 114.75 4.01562 115.141 3.625C115.547 3.21875 116.031 3.01562 116.594 3.01562H119.148C121.883 3.01562 123.984 3.76562 125.453 5.26562C126.922 6.75 127.656 8.92188 127.656 11.7812C127.656 14.6406 126.922 16.8438 125.453 18.3906C124 19.9219 121.945 20.6875 119.289 20.6875H116.594ZM117.344 18.2031C117.344 18.3594 117.422 18.4297 117.578 18.4141H118.961C120.867 18.4141 122.312 17.8594 123.297 16.75C124.297 15.625 124.797 13.9688 124.797 11.7812C124.797 7.4375 122.852 5.27344 118.961 5.28906H117.578C117.422 5.28906 117.344 5.36719 117.344 5.52344V18.2031ZM133.656 20.2891C133.391 20.5547 133.062 20.6875 132.672 20.6875C132.297 20.6875 131.969 20.5547 131.688 20.2891C131.422 20.0078 131.289 19.6797 131.289 19.3047V5.05469C131.289 4.49219 131.484 4.01562 131.875 3.625C132.281 3.21875 132.766 3.01562 133.328 3.01562H136.656C141.141 3.01562 143.383 4.79688 143.383 8.35938C143.383 10.2188 142.773 11.625 141.555 12.5781C140.352 13.5156 138.75 13.9844 136.75 13.9844H134.312C134.156 13.9844 134.078 14.0625 134.078 14.2188V19.3047C134.078 19.6797 133.938 20.0078 133.656 20.2891ZM134.078 11.5234C134.078 11.6797 134.156 11.7578 134.312 11.7578H136.492C137.898 11.7578 138.945 11.4844 139.633 10.9375C140.32 10.375 140.664 9.51562 140.664 8.35938C140.664 7.21875 140.312 6.42188 139.609 5.96875C138.922 5.5 137.844 5.26562 136.375 5.26562H134.312C134.156 5.26562 134.078 5.34375 134.078 5.5V11.5234ZM149.664 20.9922C148.523 20.9922 147.586 20.6484 146.852 19.9609C146.133 19.2578 145.773 18.3281 145.773 17.1719C145.773 15.7812 146.383 14.7031 147.602 13.9375C148.82 13.1562 150.766 12.6172 153.438 12.3203C153.594 12.3047 153.672 12.2188 153.672 12.0625C153.578 10.2969 152.742 9.41406 151.164 9.41406C150.258 9.41406 149.289 9.67969 148.258 10.2109C148.102 10.3047 147.93 10.3516 147.742 10.3516C147.648 10.3516 147.555 10.3359 147.461 10.3047C147.18 10.2266 146.969 10.0625 146.828 9.8125C146.734 9.64062 146.688 9.46875 146.688 9.29688C146.688 9.1875 146.695 9.08594 146.711 8.99219C146.789 8.69531 146.961 8.47656 147.227 8.33594C148.727 7.53906 150.195 7.14062 151.633 7.14062C153.242 7.14062 154.445 7.625 155.242 8.59375C156.039 9.5625 156.438 10.9453 156.438 12.7422V19.5625C156.438 19.875 156.328 20.1406 156.109 20.3594C155.891 20.5781 155.625 20.6875 155.312 20.6875C154.969 20.6875 154.672 20.5859 154.422 20.3828C154.188 20.1641 154.047 19.8906 154 19.5625L153.977 19.2109C153.961 19.1797 153.938 19.1641 153.906 19.1641C153.875 19.1641 153.852 19.1797 153.836 19.2109C152.43 20.3984 151.039 20.9922 149.664 20.9922ZM150.508 18.8125C151.461 18.8125 152.461 18.3516 153.508 17.4297C153.617 17.3359 153.672 17.2109 153.672 17.0547V14.2656C153.672 14.2031 153.648 14.1562 153.602 14.125C153.57 14.0938 153.531 14.0781 153.484 14.0781C153.469 14.0781 153.453 14.0781 153.438 14.0781C151.641 14.3125 150.359 14.6719 149.594 15.1562C148.828 15.625 148.445 16.2344 148.445 16.9844C148.445 17.6094 148.633 18.0703 149.008 18.3672C149.383 18.6641 149.883 18.8125 150.508 18.8125ZM169.609 7.53906C169.953 7.53906 170.219 7.67969 170.406 7.96094C170.516 8.13281 170.57 8.3125 170.57 8.5C170.57 8.59375 170.555 8.70312 170.523 8.82812L166.117 21.5312C165.555 23.0781 164.867 24.25 164.055 25.0469C163.258 25.8594 162.211 26.2656 160.914 26.2656C160.711 26.2656 160.516 26.2578 160.328 26.2422C160.031 26.2109 159.805 26.0625 159.648 25.7969C159.539 25.6094 159.484 25.4141 159.484 25.2109C159.484 25.1172 159.492 25.0234 159.508 24.9297C159.586 24.6484 159.75 24.4297 160 24.2734C160.25 24.1328 160.539 24.0547 160.867 24.0391C162.086 23.9766 162.961 23.1484 163.492 21.5547L163.703 20.875C163.75 20.7344 163.742 20.5859 163.68 20.4297L159.062 8.875C159.016 8.75 158.992 8.625 158.992 8.5C158.992 8.3125 159.047 8.13281 159.156 7.96094C159.344 7.67969 159.609 7.53906 159.953 7.53906C160.375 7.53906 160.758 7.66406 161.102 7.91406C161.445 8.16406 161.695 8.48438 161.852 8.875L163.82 14.3359C163.914 14.6484 164.094 15.2266 164.359 16.0703C164.625 16.9141 164.836 17.5625 164.992 18.0156C165.008 18.0469 165.031 18.0625 165.062 18.0625C165.109 18.0625 165.141 18.0391 165.156 17.9922L166.164 14.3359L167.875 8.82812C168 8.45312 168.219 8.14844 168.531 7.91406C168.859 7.66406 169.219 7.53906 169.609 7.53906ZM190.938 9.10938C191.094 9.10938 191.172 9.03125 191.172 8.875V7.35156C191.172 7.19531 191.094 7.11719 190.938 7.11719H185.172C185.016 7.11719 184.938 7.19531 184.938 7.35156V8.875C184.938 9.03125 185.016 9.10938 185.172 9.10938H190.938ZM190.938 12.6953C191.094 12.6953 191.172 12.6172 191.172 12.4609V10.9141C191.172 10.7578 191.094 10.6797 190.938 10.6797H185.172C185.016 10.6797 184.938 10.7578 184.938 10.9141V12.4609C184.938 12.6172 185.016 12.6953 185.172 12.6953H190.938ZM190.938 16.2812C191.094 16.2812 191.172 16.2031 191.172 16.0469V14.5C191.172 14.3438 191.094 14.2656 190.938 14.2656H185.172C185.016 14.2656 184.938 14.3438 184.938 14.5V16.0469C184.938 16.2031 185.016 16.2812 185.172 16.2812H190.938ZM182.875 7.51562C182.875 6.95312 183.07 6.47656 183.461 6.08594C183.867 5.67969 184.352 5.47656 184.914 5.47656H186.18C186.336 5.47656 186.43 5.39844 186.461 5.24219C186.617 4.42969 186.719 3.92188 186.766 3.71875C186.781 3.65625 186.758 3.60156 186.695 3.55469C186.648 3.50781 186.602 3.48438 186.555 3.48438H182.922C182.656 3.48438 182.43 3.39062 182.242 3.20312C182.07 3.01562 181.984 2.79688 181.984 2.54688C181.984 2.28125 182.07 2.05469 182.242 1.86719C182.43 1.67969 182.656 1.58594 182.922 1.58594H193.07C193.336 1.58594 193.562 1.67969 193.75 1.86719C193.938 2.05469 194.031 2.28125 194.031 2.54688C194.031 2.79688 193.938 3.01562 193.75 3.20312C193.562 3.39062 193.336 3.48438 193.07 3.48438H189.484C189.328 3.48438 189.227 3.55469 189.18 3.69531C189.133 3.86719 189.055 4.125 188.945 4.46875C188.836 4.8125 188.75 5.07031 188.688 5.24219C188.672 5.30469 188.68 5.35938 188.711 5.40625C188.758 5.45312 188.805 5.47656 188.852 5.47656H191.266C191.828 5.47656 192.305 5.67969 192.695 6.08594C193.102 6.47656 193.305 6.95312 193.305 7.51562V15.9062C193.305 16.4688 193.102 16.9531 192.695 17.3594C192.305 17.75 191.828 17.9453 191.266 17.9453H184.914C184.352 17.9453 183.867 17.75 183.461 17.3594C183.07 16.9531 182.875 16.4688 182.875 15.9062V7.51562ZM175.891 8.59375C175.547 8.59375 175.25 8.47656 175 8.24219C174.766 7.99219 174.648 7.70312 174.648 7.375C174.648 7.34375 174.633 7.32812 174.602 7.32812C174.586 7.3125 174.57 7.3125 174.555 7.32812C174.32 7.60938 174.07 7.88281 173.805 8.14844C173.617 8.33594 173.391 8.41406 173.125 8.38281C172.859 8.35156 172.641 8.22656 172.469 8.00781C172.312 7.78906 172.234 7.54688 172.234 7.28125C172.234 6.98438 172.336 6.72656 172.539 6.50781C173.992 5.03906 175.156 3.33594 176.031 1.39844C176.141 1.14844 176.312 0.945312 176.547 0.789062C176.781 0.632813 177.039 0.554688 177.32 0.554688C177.945 0.554688 178.484 0.757812 178.938 1.16406C180.188 2.25781 181.219 3.28125 182.031 4.23438C182.266 4.5 182.383 4.8125 182.383 5.17188C182.383 5.51562 182.273 5.83594 182.055 6.13281C181.883 6.36719 181.656 6.48438 181.375 6.48438C181.375 6.48438 181.367 6.48438 181.352 6.48438C181.07 6.48438 180.836 6.36719 180.648 6.13281C179.711 4.89844 178.773 3.84375 177.836 2.96875C177.711 2.85938 177.617 2.875 177.555 3.01562C176.836 4.32812 176.055 5.5 175.211 6.53125C175.18 6.57812 175.172 6.625 175.188 6.67188C175.219 6.70312 175.258 6.71875 175.305 6.71875H179.664C179.93 6.71875 180.148 6.8125 180.32 7C180.508 7.17188 180.602 7.39062 180.602 7.65625C180.602 7.92188 180.508 8.14844 180.32 8.33594C180.148 8.50781 179.93 8.59375 179.664 8.59375H175.891ZM179.57 10.5625C180.133 10.5625 180.609 10.7656 181 11.1719C181.406 11.5625 181.609 12.0391 181.609 12.6016V17.4531C181.609 17.9375 181.555 18.3203 181.445 18.6016C181.352 18.8672 181.164 19.0859 180.883 19.2578C180.508 19.4453 179.945 19.5547 179.195 19.5859C179.18 19.5859 179.164 19.5859 179.148 19.5859C178.883 19.5859 178.648 19.5 178.445 19.3281C178.227 19.1406 178.078 18.9062 178 18.625C177.938 18.3906 177.977 18.1797 178.117 17.9922C178.258 17.7891 178.445 17.6875 178.68 17.6875C178.898 17.6875 179.133 17.6875 179.383 17.6875C179.508 17.6719 179.586 17.6484 179.617 17.6172C179.664 17.5703 179.688 17.5 179.688 17.4062V12.7656C179.688 12.6094 179.609 12.5312 179.453 12.5312H177.344C177.188 12.5312 177.109 12.6094 177.109 12.7656V21.5312C177.109 21.8125 177.008 22.0469 176.805 22.2344C176.617 22.4375 176.383 22.5391 176.102 22.5391C175.836 22.5391 175.602 22.4375 175.398 22.2344C175.211 22.0469 175.117 21.8125 175.117 21.5312V12.7656C175.117 12.6094 175.039 12.5312 174.883 12.5312H173.828C173.547 12.5312 173.312 12.4375 173.125 12.25C172.938 12.0469 172.844 11.8125 172.844 11.5469C172.844 11.2656 172.938 11.0312 173.125 10.8438C173.312 10.6562 173.547 10.5625 173.828 10.5625H179.57ZM184.328 18.9531C184.609 18.75 184.914 18.6328 185.242 18.6016C185.289 18.5859 185.336 18.5781 185.383 18.5781C185.648 18.5781 185.906 18.6562 186.156 18.8125C186.422 18.9688 186.555 19.2031 186.555 19.5156C186.555 19.7656 186.453 19.9688 186.25 20.125C185.203 20.9219 184 21.6328 182.641 22.2578C182.453 22.3359 182.266 22.375 182.078 22.375C181.969 22.375 181.867 22.3594 181.773 22.3281C181.461 22.2656 181.188 22.1172 180.953 21.8828C180.812 21.7422 180.75 21.5859 180.766 21.4141C180.766 21.3672 180.766 21.3203 180.766 21.2734C180.812 21.0391 180.945 20.875 181.164 20.7812C182.352 20.25 183.406 19.6406 184.328 18.9531ZM189.602 20.0312C189.414 19.8906 189.32 19.7031 189.32 19.4688C189.32 19.2188 189.414 19.0312 189.602 18.9062C189.867 18.7344 190.148 18.6406 190.445 18.625C190.461 18.625 190.477 18.625 190.492 18.625C190.789 18.625 191.062 18.7109 191.312 18.8828C192.234 19.4766 193.055 20.0703 193.773 20.6641C193.977 20.8203 194.078 21.0234 194.078 21.2734C194.078 21.5859 193.961 21.8281 193.727 22C193.492 22.1562 193.242 22.2344 192.977 22.2344C192.945 22.2344 192.914 22.2344 192.883 22.2344C192.57 22.2188 192.297 22.1094 192.062 21.9062C191.359 21.2969 190.539 20.6719 189.602 20.0312ZM206.852 4.04688C206.695 4.04688 206.617 4.125 206.617 4.28125V20.2188C206.617 20.2656 206.633 20.3047 206.664 20.3359C206.711 20.3672 206.766 20.3672 206.828 20.3359C208.453 19.4453 209.891 18.1562 211.141 16.4688C211.234 16.3438 211.242 16.2109 211.164 16.0703C209.898 13.7578 208.875 10.8984 208.094 7.49219C208.078 7.39844 208.07 7.3125 208.07 7.23438C208.07 7.03125 208.133 6.84375 208.258 6.67188C208.43 6.40625 208.664 6.25 208.961 6.20312C209.039 6.1875 209.109 6.1875 209.172 6.20312C209.391 6.20312 209.594 6.25781 209.781 6.36719C210.031 6.52344 210.188 6.75 210.25 7.04688C210.797 9.64062 211.555 11.9141 212.523 13.8672C212.539 13.9141 212.57 13.9375 212.617 13.9375C212.68 13.9375 212.719 13.9219 212.734 13.8906C213.875 11.6562 214.688 9.07031 215.172 6.13281C215.188 6.07031 215.172 6.01562 215.125 5.96875C215.094 5.92188 215.047 5.89844 214.984 5.89844H209.266C208.812 5.89844 208.422 5.74219 208.094 5.42969C207.766 5.10156 207.602 4.70312 207.602 4.23438C207.602 4.10938 207.539 4.04688 207.414 4.04688H206.852ZM200.359 16.7031C200.359 16.7656 200.383 16.8203 200.43 16.8672C200.477 16.8984 200.531 16.9141 200.594 16.9141L204.227 16.3984C204.383 16.3828 204.461 16.2969 204.461 16.1406V14.0078C204.461 13.8516 204.383 13.7734 204.227 13.7734H200.594C200.438 13.7734 200.359 13.8516 200.359 14.0078V16.7031ZM204.461 4.28125C204.461 4.125 204.383 4.04688 204.227 4.04688H200.594C200.438 4.04688 200.359 4.125 200.359 4.28125V6.60156C200.359 6.75781 200.438 6.83594 200.594 6.83594H204.227C204.383 6.83594 204.461 6.75781 204.461 6.60156V4.28125ZM200.594 8.82812C200.438 8.82812 200.359 8.90625 200.359 9.0625V11.5234C200.359 11.6797 200.438 11.7578 200.594 11.7578H204.227C204.383 11.7578 204.461 11.6797 204.461 11.5234V9.0625C204.461 8.90625 204.383 8.82812 204.227 8.82812H200.594ZM215.875 3.71875C216.109 3.67188 216.336 3.67969 216.555 3.74219L216.953 3.83594C217.156 3.89844 217.312 4.01562 217.422 4.1875C217.547 4.35938 217.602 4.55469 217.586 4.77344C217.023 9.32031 215.867 13.1016 214.117 16.1172C214.039 16.2578 214.047 16.3906 214.141 16.5156C215.156 17.9062 216.312 19.0391 217.609 19.9141C217.859 20.0703 218.008 20.2969 218.055 20.5938C218.055 20.6406 218.055 20.6875 218.055 20.7344C218.055 20.9688 217.977 21.1797 217.82 21.3672C217.602 21.6328 217.328 21.8047 217 21.8828C216.922 21.8984 216.844 21.9062 216.766 21.9062C216.547 21.9062 216.328 21.8359 216.109 21.6953C214.844 20.8203 213.719 19.7578 212.734 18.5078C212.641 18.3828 212.547 18.375 212.453 18.4844C211.656 19.4688 210.727 20.375 209.664 21.2031C209.32 21.4375 208.961 21.5469 208.586 21.5312C208.461 21.5312 208.328 21.5234 208.188 21.5078C207.672 21.3984 207.211 21.1406 206.805 20.7344C206.805 20.7344 206.797 20.7266 206.781 20.7109C206.75 20.6797 206.711 20.6719 206.664 20.6875C206.633 20.7031 206.617 20.7344 206.617 20.7812V21.4609C206.617 21.7578 206.508 22.0078 206.289 22.2109C206.086 22.4297 205.836 22.5391 205.539 22.5391C205.242 22.5391 204.984 22.4297 204.766 22.2109C204.562 22.0078 204.461 21.7578 204.461 21.4609V18.6719C204.461 18.6094 204.438 18.5625 204.391 18.5312C204.344 18.4844 204.289 18.4609 204.227 18.4609C202.102 18.8203 199.859 19.1875 197.5 19.5625C197.438 19.5781 197.367 19.5859 197.289 19.5859C197.055 19.5859 196.844 19.5156 196.656 19.375C196.391 19.1875 196.227 18.9375 196.164 18.625C196.164 18.5625 196.164 18.5 196.164 18.4375C196.164 18.2031 196.234 17.9922 196.375 17.8047C196.547 17.5547 196.789 17.4141 197.102 17.3828C197.477 17.3203 197.773 17.2812 197.992 17.2656C198.148 17.25 198.227 17.1641 198.227 17.0078V4.23438C198.227 4.10938 198.164 4.04688 198.039 4.04688H197.5C197.219 4.04688 196.977 3.95312 196.773 3.76562C196.57 3.5625 196.469 3.32031 196.469 3.03906C196.469 2.74219 196.57 2.49219 196.773 2.28906C196.977 2.08594 197.219 1.98438 197.5 1.98438H206.688C207.109 1.98438 207.469 2.14062 207.766 2.45312C208.078 2.75 208.234 3.10938 208.234 3.53125C208.234 3.65625 208.297 3.71875 208.422 3.71875H215.805C215.836 3.71875 215.859 3.71875 215.875 3.71875Z" fill="white"/>
</svg>
