<svg width="97" height="28" viewBox="0 0 97 28" fill="none" xmlns="http://www.w3.org/2000/svg">
<path d="M3.62109 16.3203C3.62109 16.4375 3.67969 16.4961 3.79688 16.4961H7.01367C7.13086 16.4961 7.18945 16.4375 7.18945 16.3203V15.1426C7.18945 15.0254 7.13086 14.9668 7.01367 14.9668H3.79688C3.67969 14.9668 3.62109 15.0254 3.62109 15.1426V16.3203ZM7.18945 12.3828C7.18945 12.2656 7.13086 12.207 7.01367 12.207H3.79688C3.67969 12.207 3.62109 12.2656 3.62109 12.3828V13.5078C3.62109 13.625 3.67969 13.6836 3.79688 13.6836H7.01367C7.13086 13.6836 7.18945 13.625 7.18945 13.5078V12.3828ZM7.25977 10.7832C7.68164 10.7832 8.03906 10.9297 8.33203 11.2227C8.63672 11.5156 8.78906 11.873 8.78906 12.2949V19.8535C8.78906 20.2402 8.73633 20.5449 8.63086 20.7676C8.53711 20.9902 8.36133 21.1543 8.10352 21.2598C7.76367 21.4355 7.18359 21.5293 6.36328 21.541C6.15234 21.541 5.95898 21.4766 5.7832 21.3477C5.5957 21.2188 5.46094 21.043 5.37891 20.8203C5.32031 20.6562 5.33789 20.498 5.43164 20.3457C5.52539 20.2051 5.66016 20.1348 5.83594 20.1348C6.04688 20.1465 6.22266 20.1523 6.36328 20.1523C6.57422 20.1523 6.73828 20.1465 6.85547 20.1348C6.98438 20.123 7.07227 20.0938 7.11914 20.0469C7.16602 20 7.18945 19.918 7.18945 19.8008V17.9551C7.18945 17.8379 7.13086 17.7793 7.01367 17.7793H3.79688C3.67969 17.7793 3.62109 17.8379 3.62109 17.9551V20.7324C3.62109 20.9551 3.54492 21.1426 3.39258 21.2949C3.24023 21.4473 3.05273 21.5234 2.83008 21.5234C2.61914 21.5234 2.4375 21.4473 2.28516 21.2949C2.13281 21.1426 2.05664 20.9551 2.05664 20.7324V12.2949C2.05664 11.873 2.20312 11.5156 2.49609 11.2227C2.80078 10.9297 3.16406 10.7832 3.58594 10.7832H7.25977ZM14.2734 19.6426V11.2754C14.2734 11.0527 14.3555 10.8594 14.5195 10.6953C14.6836 10.5312 14.877 10.4492 15.0996 10.4492C15.334 10.4492 15.5273 10.5312 15.6797 10.6953C15.8438 10.8594 15.9258 11.0527 15.9258 11.2754V19.6602C15.9258 20.1172 15.8672 20.4629 15.75 20.6973C15.6328 20.9434 15.4219 21.125 15.1172 21.2422C14.707 21.4297 14.0332 21.5352 13.0957 21.5586C13.084 21.5586 13.0723 21.5586 13.0605 21.5586C12.8379 21.5586 12.627 21.4824 12.4277 21.3301C12.2402 21.1777 12.0996 20.9844 12.0059 20.75C11.9355 20.5625 11.9531 20.3867 12.0586 20.2227C12.1641 20.0703 12.3105 19.9941 12.498 19.9941C12.8027 19.9941 13.0664 19.9941 13.2891 19.9941C13.5586 19.9941 13.7637 19.9941 13.9043 19.9941C14.0449 19.9824 14.1387 19.9531 14.1855 19.9062C14.2441 19.8594 14.2734 19.7715 14.2734 19.6426ZM10.916 11.1875C11.0684 11.0352 11.25 10.959 11.4609 10.959C11.6836 10.959 11.8652 11.0352 12.0059 11.1875C12.1582 11.3281 12.2344 11.5098 12.2344 11.7324V17.498C12.2344 17.7207 12.1582 17.9082 12.0059 18.0605C11.8652 18.2012 11.6836 18.2715 11.4609 18.2715C11.25 18.2715 11.0684 18.2012 10.916 18.0605C10.7637 17.9082 10.6875 17.7207 10.6875 17.498V11.7324C10.6875 11.5098 10.7637 11.3281 10.916 11.1875ZM13.1836 7.67188C13.1719 7.70703 13.1719 7.74219 13.1836 7.77734C13.1953 7.8125 13.2188 7.83008 13.2539 7.83008H16.2598C16.4707 7.83008 16.6523 7.90625 16.8047 8.05859C16.957 8.19922 17.0332 8.375 17.0332 8.58594C17.0332 8.79688 16.957 8.97852 16.8047 9.13086C16.6523 9.2832 16.4707 9.35938 16.2598 9.35938H1.75781C1.54688 9.35938 1.36523 9.2832 1.21289 9.13086C1.06055 8.97852 0.984375 8.79688 0.984375 8.58594C0.984375 8.375 1.06055 8.19922 1.21289 8.05859C1.36523 7.90625 1.54688 7.83008 1.75781 7.83008H4.93945C4.97461 7.83008 5.00391 7.8125 5.02734 7.77734C5.05078 7.74219 5.05078 7.70703 5.02734 7.67188C4.81641 7.25 4.51172 6.78125 4.11328 6.26562C4.03125 6.14844 3.99609 6.02539 4.00781 5.89648C4.00781 5.84961 4.01367 5.79102 4.02539 5.7207C4.08398 5.5332 4.20703 5.4043 4.39453 5.33398C4.53516 5.28711 4.66992 5.26367 4.79883 5.26367C4.9043 5.26367 5.00977 5.28125 5.11523 5.31641C5.37305 5.375 5.57812 5.49805 5.73047 5.68555C6.01172 6.04883 6.26367 6.39453 6.48633 6.72266C6.55664 6.83984 6.5918 6.96289 6.5918 7.0918C6.5918 7.17383 6.57422 7.25586 6.53906 7.33789C6.45703 7.54883 6.30469 7.70117 6.08203 7.79492C6.08203 7.80664 6.08789 7.81836 6.09961 7.83008H11.0039C11.1211 7.83008 11.2148 7.77734 11.2852 7.67188C11.6602 7.10938 12.0176 6.51172 12.3574 5.87891C12.4863 5.62109 12.6738 5.43945 12.9199 5.33398C13.0605 5.27539 13.207 5.24609 13.3594 5.24609C13.4648 5.24609 13.5703 5.26367 13.6758 5.29883C13.8984 5.36914 14.0508 5.51563 14.1328 5.73828C14.168 5.82031 14.1855 5.9082 14.1855 6.00195C14.1855 6.13086 14.1445 6.25391 14.0625 6.37109C13.7344 6.88672 13.4414 7.32031 13.1836 7.67188ZM22.043 5.80859C22.1953 5.60937 22.3887 5.46875 22.623 5.38672C22.7285 5.36328 22.8398 5.35156 22.957 5.35156C23.0859 5.35156 23.2148 5.375 23.3438 5.42188C23.543 5.50391 23.6719 5.64453 23.7305 5.84375C23.7539 5.91406 23.7656 5.97852 23.7656 6.03711C23.7656 6.17773 23.7129 6.30664 23.6074 6.42383C22.6113 7.66602 21.4746 8.76172 20.1973 9.71094C20.0801 9.80469 19.9453 9.85156 19.793 9.85156C19.7344 9.85156 19.6758 9.83984 19.6172 9.81641C19.4062 9.76953 19.2363 9.65234 19.1074 9.46484C19.0254 9.32422 18.9902 9.17773 19.002 9.02539C19.002 8.9668 19.0078 8.9082 19.0195 8.84961C19.0547 8.63867 19.1602 8.46875 19.3359 8.33984C20.4023 7.56641 21.3047 6.72266 22.043 5.80859ZM22.6934 9.48242C22.8223 9.2832 22.998 9.14844 23.2207 9.07812C23.3262 9.04297 23.4316 9.02539 23.5371 9.02539C23.6543 9.02539 23.7715 9.04883 23.8887 9.0957C24.0879 9.16602 24.2168 9.30078 24.2754 9.5C24.2988 9.58203 24.3105 9.6582 24.3105 9.72852C24.3105 9.8457 24.2754 9.96289 24.2051 10.0801C23.8418 10.6191 23.4492 11.1465 23.0273 11.6621C22.957 11.7559 22.9219 11.8613 22.9219 11.9785V20.7852C22.9219 21.0195 22.8398 21.2129 22.6758 21.3652C22.5117 21.5293 22.3184 21.6113 22.0957 21.6113C21.873 21.6113 21.6797 21.5293 21.5156 21.3652C21.3516 21.2129 21.2695 21.0195 21.2695 20.7852V13.7715C21.2695 13.7363 21.252 13.7129 21.2168 13.7012C21.1934 13.6895 21.1699 13.6953 21.1465 13.7188C20.7949 14.0703 20.4492 14.3926 20.1094 14.6855C19.9688 14.8027 19.8164 14.8613 19.6523 14.8613C19.5938 14.8613 19.541 14.8555 19.4941 14.8438C19.2598 14.7969 19.0781 14.668 18.9492 14.457C18.8555 14.3047 18.8086 14.1406 18.8086 13.9648C18.8086 13.8945 18.8145 13.8242 18.8262 13.7539C18.873 13.4961 18.9961 13.2969 19.1953 13.1562C20.6016 12.0664 21.7676 10.8418 22.6934 9.48242ZM30.6035 19.2734C30.6035 19.3906 30.6621 19.4492 30.7793 19.4492H34.4707C34.6934 19.4492 34.8809 19.5312 35.0332 19.6953C35.1973 19.8477 35.2793 20.0293 35.2793 20.2402C35.2793 20.4629 35.1973 20.6504 35.0332 20.8027C34.8809 20.9668 34.6934 21.0488 34.4707 21.0488H24.8203C24.5977 21.0488 24.4043 20.9668 24.2402 20.8027C24.0879 20.6504 24.0117 20.4629 24.0117 20.2402C24.0117 20.0293 24.0879 19.8477 24.2402 19.6953C24.4043 19.5312 24.5977 19.4492 24.8203 19.4492H28.6348C28.752 19.4492 28.8105 19.3906 28.8105 19.2734V15.6875C28.8105 15.5703 28.752 15.5117 28.6348 15.5117H25.9629C25.7402 15.5117 25.5527 15.4355 25.4004 15.2832C25.2598 15.1309 25.1895 14.9492 25.1895 14.7383C25.1895 14.5156 25.2598 14.334 25.4004 14.1934C25.5527 14.041 25.7402 13.9648 25.9629 13.9648H28.6348C28.752 13.9648 28.8105 13.9062 28.8105 13.7891V10.4492C28.8105 10.332 28.752 10.2734 28.6348 10.2734H25.6289C25.418 10.2734 25.2305 10.1973 25.0664 10.0449C24.9141 9.88086 24.8379 9.69336 24.8379 9.48242C24.8379 9.25977 24.9141 9.07227 25.0664 8.91992C25.2305 8.76758 25.418 8.69141 25.6289 8.69141H30.4277C30.4512 8.69141 30.4688 8.67969 30.4805 8.65625C30.4922 8.62109 30.4863 8.58594 30.4629 8.55078C29.6895 7.87109 28.7285 7.20898 27.5801 6.56445C27.4043 6.4707 27.3047 6.33008 27.2812 6.14258C27.2578 5.94336 27.3164 5.77344 27.457 5.63281C27.6328 5.46875 27.8438 5.36914 28.0898 5.33398C28.1367 5.32227 28.1895 5.31641 28.248 5.31641C28.4238 5.31641 28.5938 5.36328 28.7578 5.45703C29.5195 5.86719 30.2168 6.28906 30.8496 6.72266C31.1777 6.95703 31.3418 7.2793 31.3418 7.68945C31.3418 8.0293 31.2188 8.31641 30.9727 8.55078C30.9492 8.57422 30.9434 8.60352 30.9551 8.63867C30.9668 8.67383 30.9844 8.69141 31.0078 8.69141H33.8203C34.043 8.69141 34.2305 8.76758 34.3828 8.91992C34.5352 9.07227 34.6113 9.25977 34.6113 9.48242C34.6113 9.69336 34.5352 9.88086 34.3828 10.0449C34.2305 10.1973 34.043 10.2734 33.8203 10.2734H30.7793C30.6621 10.2734 30.6035 10.332 30.6035 10.4492V13.7891C30.6035 13.9062 30.6621 13.9648 30.7793 13.9648H33.5566C33.7676 13.9648 33.9492 14.041 34.1016 14.1934C34.2539 14.334 34.3301 14.5156 34.3301 14.7383C34.3301 14.9492 34.2539 15.1309 34.1016 15.2832C33.9492 15.4355 33.7676 15.5117 33.5566 15.5117H30.7793C30.6621 15.5117 30.6035 15.5703 30.6035 15.6875V19.2734ZM45.9316 8.28711C46.0488 8.28711 46.1074 8.22852 46.1074 8.11133V7.28516C46.1074 7.16797 46.0488 7.10938 45.9316 7.10938H43.8926C43.7754 7.10938 43.7109 7.16797 43.6992 7.28516V8.11133C43.6992 8.22852 43.7637 8.28711 43.8926 8.28711H45.9316ZM50.1328 9.71094C50.1328 9.59375 50.0742 9.53516 49.957 9.53516H47.8828C47.7656 9.53516 47.707 9.59375 47.707 9.71094V11.082C47.707 11.1992 47.7656 11.2578 47.8828 11.2578H49.957C50.0742 11.2578 50.1328 11.1992 50.1328 11.082V9.71094ZM43.8926 9.53516C43.7754 9.53516 43.7109 9.59375 43.6992 9.71094V11.082C43.6992 11.1992 43.7637 11.2578 43.8926 11.2578H45.9316C46.0488 11.2578 46.1074 11.1992 46.1074 11.082V9.71094C46.1074 9.59375 46.0488 9.53516 45.9316 9.53516H43.8926ZM40.0254 9.53516C39.9082 9.53516 39.8496 9.59375 39.8496 9.71094V11.082C39.8496 11.1992 39.9082 11.2578 40.0254 11.2578H41.9766C42.0938 11.2578 42.1523 11.1992 42.1523 11.082V9.71094C42.1523 9.59375 42.0938 9.53516 41.9766 9.53516H40.0254ZM41.9766 8.28711C42.0938 8.28711 42.1523 8.22852 42.1523 8.11133V7.28516C42.1523 7.16797 42.0938 7.10938 41.9766 7.10938H37.916C37.7285 7.10938 37.5703 7.04492 37.4414 6.91602C37.3125 6.77539 37.248 6.61133 37.248 6.42383C37.248 6.23633 37.3125 6.07813 37.4414 5.94922C37.5703 5.82031 37.7285 5.75586 37.916 5.75586H52.0137C52.2012 5.75586 52.3594 5.82031 52.4883 5.94922C52.6172 6.07813 52.6816 6.23633 52.6816 6.42383C52.6816 6.61133 52.6172 6.77539 52.4883 6.91602C52.3594 7.04492 52.2012 7.10938 52.0137 7.10938H47.8828C47.7656 7.10938 47.707 7.16797 47.707 7.28516V8.11133C47.707 8.22852 47.7656 8.28711 47.8828 8.28711H50.2559C50.6777 8.28711 51.0352 8.43945 51.3281 8.74414C51.6328 9.03711 51.7852 9.39453 51.7852 9.81641V10.9941C51.7852 11.416 51.6328 11.7793 51.3281 12.084C51.0352 12.377 50.6777 12.5234 50.2559 12.5234H39.8145C39.3926 12.5234 39.0293 12.377 38.7246 12.084C38.4316 11.7793 38.2852 11.416 38.2852 10.9941V9.81641C38.2852 9.39453 38.4316 9.03711 38.7246 8.74414C39.0293 8.43945 39.3926 8.28711 39.8145 8.28711H41.9766ZM50.6777 13.6836C50.8066 13.8125 50.8711 13.9707 50.8711 14.1582C50.8711 14.334 50.8066 14.4863 50.6777 14.6152C50.5488 14.7441 50.3906 14.8086 50.2031 14.8086H39.832C39.6445 14.8086 39.4863 14.7441 39.3574 14.6152C39.2285 14.4863 39.1641 14.334 39.1641 14.1582C39.1641 13.9707 39.2285 13.8125 39.3574 13.6836C39.4863 13.5547 39.6445 13.4902 39.832 13.4902H50.2031C50.3906 13.4902 50.5488 13.5547 50.6777 13.6836ZM40.1836 18.0781C40.3594 17.9023 40.5645 17.7793 40.7988 17.709C40.9043 17.6855 41.0098 17.6738 41.1152 17.6738C41.2441 17.6738 41.373 17.6973 41.502 17.7441C41.6895 17.8027 41.8066 17.9316 41.8535 18.1309C41.9121 18.3184 41.877 18.4824 41.748 18.623C40.9395 19.4902 39.9727 20.2754 38.8477 20.9785C38.6719 21.0723 38.4902 21.1191 38.3027 21.1191C38.2559 21.1191 38.209 21.1191 38.1621 21.1191C37.9043 21.084 37.6875 20.9844 37.5117 20.8203C37.3711 20.6914 37.3125 20.5273 37.3359 20.3281C37.3594 20.1406 37.459 20 37.6348 19.9062C38.6309 19.3789 39.4805 18.7695 40.1836 18.0781ZM48.0938 18.7637C47.9414 18.6699 47.8594 18.541 47.8477 18.377C47.8477 18.2012 47.918 18.0605 48.0586 17.9551C48.2812 17.791 48.5098 17.709 48.7441 17.709C48.9316 17.709 49.125 17.7676 49.3242 17.8848C50.4492 18.5176 51.4277 19.1387 52.2598 19.748C52.4238 19.877 52.5059 20.041 52.5059 20.2402C52.5059 20.4512 52.418 20.6211 52.2422 20.75C52.0664 20.8789 51.8672 20.9434 51.6445 20.9434C51.6328 20.9434 51.6211 20.9434 51.6094 20.9434C51.3516 20.9316 51.1348 20.8496 50.959 20.6973C50.1621 20.0645 49.207 19.4199 48.0938 18.7637ZM37.1953 16.9707C37.0664 16.8301 37.002 16.6719 37.002 16.4961C37.002 16.3086 37.0664 16.1504 37.1953 16.0215C37.3359 15.8809 37.5 15.8105 37.6875 15.8105H52.3477C52.5352 15.8105 52.6934 15.8809 52.8223 16.0215C52.9629 16.1504 53.0332 16.3086 53.0332 16.4961C53.0332 16.6719 52.9629 16.8301 52.8223 16.9707C52.6934 17.0996 52.5352 17.1641 52.3477 17.1641H46.0195C45.9023 17.1641 45.8438 17.2227 45.8438 17.3398V19.9238C45.8438 20.334 45.791 20.6504 45.6855 20.873C45.5801 21.0957 45.3867 21.2598 45.1055 21.3652C44.7422 21.5176 44.1094 21.5996 43.207 21.6113C42.9844 21.6113 42.7852 21.541 42.6094 21.4004C42.4219 21.2598 42.293 21.0781 42.2227 20.8555C42.1523 20.6797 42.1641 20.5156 42.2578 20.3633C42.3633 20.2227 42.5098 20.1523 42.6973 20.1523C42.9316 20.1641 43.1367 20.1699 43.3125 20.1699C43.5469 20.1699 43.7227 20.1641 43.8398 20.1523C43.9688 20.1406 44.0566 20.1172 44.1035 20.082C44.1504 20.0469 44.1738 19.9766 44.1738 19.8711V17.3398C44.1738 17.2227 44.1152 17.1641 43.998 17.1641H37.6875C37.5 17.1641 37.3359 17.0996 37.1953 16.9707ZM57.9902 10.2383C58.0488 10.0273 58.1719 9.85742 58.3594 9.72852C58.5 9.63477 58.6465 9.58789 58.7988 9.58789C58.8574 9.58789 58.916 9.59375 58.9746 9.60547C59.1855 9.65234 59.3496 9.76953 59.4668 9.95703C59.5488 10.0742 59.5898 10.1973 59.5898 10.3262C59.5898 10.3965 59.5781 10.4727 59.5547 10.5547C59.4258 10.9648 59.2852 11.375 59.1328 11.7852C59.0977 11.8906 59.1211 11.9844 59.2031 12.0664C59.9062 12.6523 60.4453 13.127 60.8203 13.4902C60.9961 13.6543 61.084 13.8594 61.084 14.1055C61.084 14.3047 61.0195 14.4863 60.8906 14.6504C60.7617 14.8027 60.5977 14.8848 60.3984 14.8965H60.3633C60.1758 14.8965 60.0176 14.8262 59.8887 14.6855C59.584 14.3574 59.1504 13.9355 58.5879 13.4199C58.5059 13.3379 58.4355 13.3496 58.377 13.4551C57.9082 14.334 57.3691 15.1016 56.7598 15.7578C56.5957 15.9219 56.3965 16.0039 56.1621 16.0039C55.9277 16.0039 55.7285 15.9277 55.5645 15.7754C55.4004 15.6348 55.3184 15.4531 55.3184 15.2305C55.3184 15.0312 55.3887 14.8555 55.5293 14.7031C56.6426 13.6016 57.4629 12.1133 57.9902 10.2383ZM70.3301 14.2285C70.4941 14.3926 70.5762 14.5918 70.5762 14.8262C70.5762 15.0488 70.5 15.2422 70.3477 15.4062C70.207 15.5586 70.0312 15.6348 69.8203 15.6348C69.6094 15.6348 69.4336 15.5586 69.293 15.4062C68.7422 14.832 68.0625 14.1934 67.2539 13.4902C67.1719 13.4082 67.1016 13.4199 67.043 13.5254C66.8203 13.959 66.5684 14.3633 66.2871 14.7383C66.0879 14.9961 65.8184 15.1426 65.4785 15.1777C65.4199 15.1895 65.3613 15.1953 65.3027 15.1953C65.0332 15.1953 64.7812 15.125 64.5469 14.9844C64.5352 14.9727 64.5176 14.9727 64.4941 14.9844C64.4824 14.9961 64.4824 15.0137 64.4941 15.0371C64.7871 15.6348 65.168 16.2031 65.6367 16.7422C66.1055 17.2812 66.7383 17.8262 67.5352 18.377C68.3438 18.916 69.2695 19.3789 70.3125 19.7656C70.5234 19.8359 70.6582 19.9824 70.7168 20.2051C70.7402 20.2754 70.752 20.3457 70.752 20.416C70.752 20.5566 70.7109 20.6855 70.6289 20.8027C70.4648 21.0371 70.2539 21.2012 69.9961 21.2949C69.8789 21.3418 69.7559 21.3652 69.627 21.3652C69.498 21.377 69.3633 21.3535 69.2227 21.2949C68.4844 20.9902 67.7871 20.627 67.1309 20.2051C66.4746 19.7949 65.9238 19.3848 65.4785 18.9746C65.0332 18.5527 64.6348 18.1074 64.2832 17.6387C63.9316 17.1699 63.6562 16.7539 63.457 16.3906C63.2578 16.0273 63.0996 15.6758 62.9824 15.3359C62.9707 15.3125 62.9531 15.3008 62.9297 15.3008C62.9062 15.3008 62.8887 15.3125 62.877 15.3359C62.7363 15.7695 62.5254 16.2324 62.2441 16.7246C61.9629 17.2051 61.582 17.7266 61.1016 18.2891C60.6328 18.8516 60.0176 19.4023 59.2559 19.9414C58.4941 20.4805 57.6445 20.9316 56.707 21.2949C56.5781 21.3535 56.4492 21.3828 56.3203 21.3828C56.2031 21.3828 56.0859 21.3652 55.9688 21.3301C55.7109 21.248 55.5059 21.0957 55.3535 20.873C55.2598 20.7559 55.2129 20.6328 55.2129 20.5039C55.2129 20.4453 55.2188 20.3867 55.2305 20.3281C55.2891 20.1289 55.4121 19.9941 55.5996 19.9238C56.5723 19.5605 57.4453 19.1211 58.2188 18.6055C58.9922 18.0781 59.6074 17.5508 60.0645 17.0234C60.5332 16.4961 60.9199 15.9453 61.2246 15.3711C61.5293 14.7969 61.7402 14.2812 61.8574 13.8242C61.9746 13.3672 62.0332 12.9453 62.0332 12.5586V9.28906C62.0332 9.17188 61.9746 9.11328 61.8574 9.11328H55.8633C55.6406 9.11328 55.4531 9.03711 55.3008 8.88477C55.1484 8.73242 55.0723 8.54492 55.0723 8.32227C55.0723 8.09961 55.1484 7.91211 55.3008 7.75977C55.4648 7.5957 55.6523 7.51367 55.8633 7.51367H61.8574C61.9746 7.51367 62.0332 7.45508 62.0332 7.33789V6.05469C62.0332 5.79688 62.1211 5.58594 62.2969 5.42188C62.4727 5.24609 62.6836 5.1582 62.9297 5.1582C63.1758 5.1582 63.3867 5.24609 63.5625 5.42188C63.7383 5.59766 63.8262 5.80859 63.8262 6.05469V7.33789C63.8262 7.45508 63.8848 7.51367 64.002 7.51367H70.1719C70.3945 7.51367 70.582 7.5957 70.7344 7.75977C70.8984 7.91211 70.9805 8.09961 70.9805 8.32227C70.9805 8.54492 70.8984 8.73242 70.7344 8.88477C70.582 9.03711 70.3945 9.11328 70.1719 9.11328H64.002C63.8848 9.11328 63.8262 9.17188 63.8262 9.28906V12.5586C63.8262 13.1211 63.9609 13.748 64.2305 14.4395C64.2422 14.4863 64.2656 14.5156 64.3008 14.5273C64.3477 14.5273 64.3887 14.5156 64.4238 14.4922C65.4316 13.4961 66.1465 12.0898 66.5684 10.2734C66.6152 10.0625 66.7324 9.88672 66.9199 9.74609C67.0605 9.64062 67.2188 9.58789 67.3945 9.58789C67.4414 9.58789 67.4824 9.59375 67.5176 9.60547C67.7402 9.62891 67.9102 9.73438 68.0273 9.92188C68.1211 10.0391 68.168 10.1738 68.168 10.3262C68.168 10.3848 68.1621 10.4434 68.1504 10.502C68.0449 10.959 67.9219 11.3984 67.7812 11.8203C67.7344 11.9258 67.7578 12.0137 67.8516 12.084C68.8242 12.8691 69.6504 13.584 70.3301 14.2285Z" fill="#828282"/>
<path d="M92.3828 12.8047C92.8711 13.293 92.8711 14.0859 92.3828 14.5742L84.8828 22.0742C84.3945 22.5625 83.6016 22.5625 83.1133 22.0742C82.625 21.5859 82.625 20.793 83.1133 20.3047L89.7305 13.6875L83.1172 7.07031C82.6289 6.58203 82.6289 5.78906 83.1172 5.30078C83.6055 4.8125 84.3984 4.8125 84.8867 5.30078L92.3867 12.8008L92.3828 12.8047Z" fill="#828282"/>
</svg>
