<svg width="200" height="68" viewBox="0 0 200 68" fill="none" xmlns="http://www.w3.org/2000/svg">
<path d="M41.1916 17.309C40.3599 14.0922 38.8737 11.0815 36.8259 8.46492C34.8061 5.9216 32.1883 3.91763 29.2059 2.63168C26.1319 1.27721 22.0986 0.599976 17.1061 0.599976H1.54145C1.33901 0.599976 1.13854 0.639854 0.951511 0.717334C0.764479 0.794813 0.59454 0.908376 0.4514 1.05154C0.30826 1.1947 0.194722 1.36465 0.11727 1.5517C0.0398185 1.73874 -3.01267e-05 1.93921 1.70891e-08 2.14166V54.2293C-3.01267e-05 54.4317 0.0398185 54.6322 0.11727 54.8192C0.194722 55.0063 0.30826 55.1762 0.4514 55.3194C0.59454 55.4625 0.764479 55.5761 0.951511 55.6536C1.13854 55.7311 1.33901 55.771 1.54145 55.771H17.1061C20.1413 55.771 23.5283 55.2691 27.2671 54.2655C30.0012 53.5381 32.5602 52.0768 34.9441 49.8817C37.3849 47.6034 39.2932 44.8148 40.5331 41.7147C41.8748 38.4659 42.5459 33.8935 42.5465 27.9975C42.5665 24.3906 42.111 20.7968 41.1916 17.309ZM21.2732 34.6233C20 34.6233 18.7553 34.2458 17.6965 33.5384C16.6378 32.831 15.8126 31.8256 15.3253 30.6493C14.838 29.4729 14.7105 28.1785 14.9589 26.9297C15.2073 25.6808 15.8204 24.5337 16.7207 23.6333C17.6211 22.733 18.7682 22.1198 20.017 21.8714C21.2658 21.623 22.5602 21.7504 23.7366 22.2377C24.913 22.725 25.9184 23.5501 26.6258 24.6088C27.3332 25.6675 27.7108 26.9122 27.7108 28.1855C27.7107 29.8928 27.0324 31.5302 25.8252 32.7375C24.6179 33.9447 22.9806 34.6231 21.2732 34.6233Z" fill="#80AD18"/>
<path d="M76.4825 0.599976H60.9177C55.9256 0.599976 51.8927 1.27736 48.8188 2.63214C45.8364 3.91805 43.2186 5.92203 41.1987 8.46538C41.0576 8.64372 40.9401 8.83973 40.8042 9.02219C42.3101 11.355 43.4376 13.9113 44.1451 16.5963C45.1246 20.3128 45.6099 24.1422 45.5885 27.9856C45.5885 34.2684 44.8735 39.1408 43.4434 42.6027C42.7493 44.2975 41.8777 45.914 40.8432 47.4252C41.524 48.3006 42.272 49.1217 43.0803 49.881C45.4641 52.0766 48.0232 53.5379 50.7575 54.2648C54.4964 55.2686 57.8834 55.7703 60.9186 55.77H76.4835C76.8923 55.77 77.2844 55.6076 77.5734 55.3186C77.8625 55.0295 78.0249 54.6374 78.0249 54.2286V2.14166C78.0249 1.93914 77.9851 1.73859 77.9076 1.55149C77.83 1.36438 77.7164 1.19439 77.5732 1.05121C77.43 0.90804 77.2599 0.794496 77.0728 0.71707C76.8856 0.639645 76.6851 0.599855 76.4825 0.599976ZM58.538 34.6233C57.2648 34.6232 56.0201 34.2456 54.9614 33.5382C53.9028 32.8308 53.0777 31.8253 52.5904 30.6489C52.1032 29.4726 51.9758 28.1782 52.2242 26.9294C52.4726 25.6806 53.0858 24.5335 53.9861 23.6332C54.8865 22.7329 56.0336 22.1197 57.2824 21.8714C58.5312 21.623 59.8256 21.7505 61.0019 22.2377C62.1783 22.725 63.1837 23.5502 63.8911 24.6088C64.5985 25.6675 64.976 26.9122 64.976 28.1855C64.9761 29.0309 64.8096 29.8681 64.486 30.6492C64.1625 31.4303 63.6883 32.14 63.0904 32.7378C62.4926 33.3356 61.7829 33.8098 61.0018 34.1333C60.2207 34.4568 59.3835 34.6233 58.538 34.6233Z" fill="#FE7D12"/>
<path d="M87.5747 55.7127V0.599976H103.289C107.399 0.599976 111.008 1.11372 114.117 2.1412C117.226 3.16868 119.632 4.86047 121.335 7.21656C123.038 9.57296 123.89 12.7556 123.892 16.7646C123.892 20.6251 123.039 23.8078 121.335 26.3126C119.631 28.8174 117.25 30.6846 114.192 31.9142C111.134 33.1429 107.6 33.757 103.591 33.7564H94.4931V55.711L87.5747 55.7127ZM94.4931 28.1194H102.687C107.499 28.1194 111.083 27.2171 113.439 25.4126C115.795 23.6082 116.973 20.7259 116.973 16.7659C116.973 12.757 115.758 10.0002 113.327 8.49545C110.896 6.99072 107.249 6.23873 102.387 6.2395H94.4931V28.1194Z" fill="#315B6D"/>
<path d="M165.58 54.2052L161.237 36.6447C161.241 36.4989 161.249 36.3543 161.249 36.2086C161.256 31.6404 159.642 27.2179 156.694 23.7284C153.746 20.239 149.655 17.9093 145.149 17.1542C140.644 16.399 136.017 17.2675 132.092 19.6049C128.167 21.9423 125.199 25.5969 123.717 29.9178C122.235 34.2388 122.334 38.9456 123.998 43.2002C125.661 47.4547 128.781 50.9806 132.801 53.1502C136.821 55.3197 141.48 55.9919 145.95 55.0472C150.419 54.1024 154.408 51.602 157.206 47.9912L159.138 55.7997L165.58 54.2052ZM141.993 48.8262C139.497 48.8262 137.057 48.0861 134.982 46.6996C132.907 45.3131 131.29 43.3424 130.335 41.0367C129.38 38.731 129.13 36.1939 129.617 33.7462C130.104 31.2985 131.306 29.0501 133.07 27.2854C134.835 25.5207 137.083 24.3189 139.531 23.832C141.979 23.3452 144.516 23.5951 146.822 24.5501C149.127 25.5051 151.098 27.1225 152.484 29.1975C153.871 31.2726 154.611 33.7122 154.611 36.2079C154.607 39.5533 153.277 42.7606 150.911 45.1262C148.546 47.4918 145.338 48.8224 141.993 48.8262Z" fill="#315B6D"/>
<path d="M178.271 59.8618C177.417 62.3677 174.637 67.2416 173.993 67.6292H181.011C181.075 67.5331 181.141 67.441 181.203 67.343C182.618 65.0848 183.778 62.6766 184.661 60.1625L200 15.8758H193.308L185.94 38.5064C185.439 40.3614 184.9 42.2787 184.324 44.2584C183.748 46.2381 183.184 48.1804 182.632 50.0855H182.256C181.554 48.1809 180.864 46.226 180.188 44.2208C179.512 42.2155 178.848 40.3105 178.196 38.5057L169.926 15.8751H162.781L179.173 56.7773L178.271 59.8618Z" fill="#315B6D"/>
</svg>
