<svg width="81" height="81" viewBox="0 0 81 81" fill="none" xmlns="http://www.w3.org/2000/svg">
<path d="M76.0474 7.50702C76.1294 7.68902 76.2104 7.87101 76.2844 8.05801C76.2104 7.87101 76.1294 7.68902 76.0474 7.50702Z" fill="white"/>
<path d="M76.5283 8.73401C76.6003 8.95001 76.667 9.16834 76.7283 9.38901C76.6673 9.16701 76.6003 8.95001 76.5283 8.73401Z" fill="white"/>
<path d="M76.8923 10.049C76.9463 10.294 76.9923 10.544 77.0343 10.796C76.9923 10.544 76.9503 10.294 76.8923 10.049Z" fill="white"/>
<path d="M74.8923 5.47C74.9323 5.528 74.9773 5.58101 75.0153 5.63901C74.9783 5.58101 74.9343 5.528 74.8923 5.47Z" fill="white"/>
<path d="M77.1333 11.436C77.1663 11.714 77.1853 11.997 77.2023 12.28C77.1853 12 77.1663 11.714 77.1333 11.436Z" fill="white"/>
<path d="M75.4763 6.39301C75.5553 6.53001 75.6383 6.66501 75.7123 6.80501C75.6373 6.66501 75.5553 6.53001 75.4763 6.39301Z" fill="white"/>
<path d="M77.2354 12.887C77.2414 13.212 77.2274 13.544 77.2124 13.877C77.2274 13.544 77.2414 13.213 77.2354 12.887Z" fill="white"/>
<path d="M77.1924 14.39C77.1524 14.9 77.0924 15.416 76.9924 15.938C77.0924 15.415 77.1524 14.9 77.1924 14.39Z" fill="white"/>
<path opacity="0.28" d="M75.1013 5.75301C75.0753 5.71401 75.0443 5.67801 75.0173 5.63901C75.0443 5.67701 75.0653 5.72 75.0913 5.759L75.1013 5.75301Z" fill="white"/>
<path d="M65.2383 0.0699997C64.7893 0.0309997 64.3383 0 63.8693 0H27.6403C18.8523 0 10.4403 7.15 8.89333 15.938L0.293325 64.718C-0.203789 67.051 -0.0671787 69.4745 0.688985 71.7369C1.44515 73.9992 2.79327 76.0178 4.59331 77.583C7.0774 79.6223 10.2059 80.7115 13.4193 80.656H49.6493C51.9399 80.6295 54.187 80.0277 56.1843 78.906C53.507 77.0812 51.5893 74.3405 50.7923 71.2C49.7923 67.2 47.7553 66.85 47.7553 66.85H15.8553C15.5886 66.859 15.3233 66.8065 15.0801 66.6967C14.8368 66.5868 14.6221 66.4225 14.4524 66.2165C14.2828 66.0104 14.1629 65.7681 14.1018 65.5083C14.0407 65.2484 14.0402 64.9781 14.1003 64.718L14.1343 64.518L22.7013 15.934C22.8189 15.3487 23.1303 14.8202 23.5851 14.4335C24.0399 14.0469 24.6117 13.8248 25.2083 13.803H55.3323L66.4923 0.240997C66.0793 0.169997 65.6623 0.112 65.2383 0.0699997Z" fill="white"/>
<path d="M74.1042 4.47601C74.3802 4.79701 74.6512 5.12301 74.8942 5.47001C74.6494 5.12435 74.3857 4.79252 74.1042 4.47601V4.47601Z" fill="white"/>
<path d="M77.2024 12.28C77.1854 11.997 77.1664 11.714 77.1334 11.436C77.1084 11.22 77.0724 11.008 77.0334 10.795C76.9914 10.544 76.9454 10.295 76.8914 10.049C76.8414 9.82632 76.7858 9.60632 76.7244 9.38898C76.6631 9.17165 76.5964 8.95332 76.5244 8.73399C76.4474 8.50599 76.3684 8.27899 76.2804 8.05799C76.2064 7.87099 76.1254 7.689 76.0434 7.507C75.9364 7.27 75.8284 7.03399 75.7084 6.80699C75.6344 6.66699 75.5514 6.53199 75.4724 6.39499C75.3484 6.17999 75.2224 5.96699 75.0874 5.76099C75.0614 5.72199 75.0404 5.67899 75.0134 5.64099C74.9754 5.58299 74.9304 5.52999 74.8904 5.47199C74.6464 5.12499 74.3764 4.79899 74.1004 4.47799C73.516 3.81276 72.8646 3.20957 72.1564 2.67799C71.5717 2.22998 70.9487 1.83445 70.2944 1.49599L70.2794 1.48799C69.9054 1.29899 69.5174 1.12799 69.1194 0.973991L69.0654 0.952988C68.6694 0.800988 68.2617 0.667653 67.8424 0.552986L67.7944 0.539986C67.4944 0.457986 67.1784 0.395993 66.8654 0.331993C66.7374 0.305993 66.6154 0.269986 66.4854 0.246986C66.0754 0.174986 65.6614 0.113989 65.2344 0.0759888C65.6584 0.117989 66.0754 0.175986 66.4854 0.246986L55.3264 13.813H61.4314C61.6974 13.8063 61.9615 13.8602 62.2036 13.9706C62.4457 14.0811 62.6594 14.2453 62.8286 14.4506C62.9979 14.656 63.1181 14.8972 63.1803 15.1559C63.2424 15.4147 63.2449 15.6842 63.1874 15.944L57.3254 47.2C62.6544 47.3 66.8254 51.473 69.6074 55.644L76.9974 15.934C77.0904 15.412 77.1524 14.896 77.1974 14.386C77.2114 14.213 77.2094 14.044 77.2174 13.873C77.2324 13.54 77.2464 13.208 77.2404 12.883C77.2314 12.682 77.2144 12.482 77.2024 12.28Z" fill="white"/>
<path d="M73.9463 4.27802C74.0033 4.34102 74.0463 4.41201 74.1043 4.47801C74.0483 4.41201 74.0033 4.34102 73.9463 4.27802Z" fill="white"/>
<path fill-rule="evenodd" clip-rule="evenodd" d="M50.1374 51.09C50.1374 51.09 59.8724 48.305 66.8214 58.29C71.9774 65.7 80.8524 67.139 80.8524 67.139L69.4824 80.59C69.4824 80.59 57.5374 78.206 53.4504 67.237C51.0354 60.752 40.4114 60.107 40.4114 60.107L50.1374 51.09ZM61.2425 63.427C63.6285 62.059 64.8774 62.216 65.7704 63.159C66.9044 64.358 66.5924 65.96 65.1114 67.518L66.0224 68.48L65.2624 69.192L64.3524 68.23C62.7164 69.567 61.1034 69.647 60.0034 68.747L61.2474 67.582C61.6065 67.7935 62.0219 67.8899 62.4374 67.858C62.8529 67.8262 63.2487 67.6677 63.5714 67.404L61.2714 64.971C59.1054 66.162 57.9514 66.219 57.0174 65.232C55.9874 64.144 56.3384 62.486 57.6244 61.117L56.9484 60.403L57.7074 59.691L58.3954 60.417C60.2414 58.96 61.6634 59.354 62.3954 59.954L61.1735 61.099C60.8653 60.9135 60.5079 60.8263 60.1489 60.8492C59.79 60.872 59.4465 61.0038 59.1644 61.227L61.2425 63.427ZM58.3805 61.918C57.6095 62.779 57.6985 63.489 58.1435 63.959V63.958C58.6075 64.449 59.1574 64.514 60.3004 63.948L58.3805 61.918ZM62.2204 64.462L64.3524 66.715V66.714C65.1224 65.849 65.2034 65.1 64.6074 64.467C64.1004 63.932 63.4854 63.835 62.2204 64.462Z" fill="white"/>
<path opacity="0.28" fill-rule="evenodd" clip-rule="evenodd" d="M75.6012 6.6152C75.5826 6.58308 75.5637 6.55106 75.5449 6.51904L75.5447 6.51878L75.5438 6.51719C75.5199 6.47651 75.496 6.43584 75.4724 6.39499C75.3484 6.17999 75.2224 5.96699 75.0874 5.76099C75.0758 5.74347 75.0651 5.72515 75.0544 5.70684L75.0543 5.70657L75.0542 5.70646C75.0412 5.68412 75.0282 5.66181 75.0134 5.64099C74.9925 5.60903 74.9694 5.5786 74.9462 5.548L74.9461 5.54776C74.9272 5.52291 74.9083 5.49795 74.8904 5.47199C74.6464 5.12499 74.3764 4.79899 74.1004 4.47799C73.516 3.81276 72.8646 3.20957 72.1564 2.67799C71.5717 2.22998 70.9487 1.83445 70.2944 1.49599L70.2794 1.48799C69.9054 1.29899 69.5174 1.12799 69.1194 0.973991L69.0654 0.952988C68.6694 0.800988 68.2617 0.667653 67.8424 0.552986L67.7944 0.539986C67.5248 0.466284 67.2422 0.408745 66.9605 0.351384L66.8654 0.331993C66.8099 0.320709 66.7554 0.30754 66.701 0.294367L66.7009 0.294344C66.6305 0.277308 66.5601 0.260269 66.4872 0.247295L66.4923 0.240997C66.0793 0.169997 65.6623 0.112 65.2383 0.0699997C64.7893 0.0309997 64.3383 0 63.8693 0H27.6403C18.8523 0 10.4403 7.15 8.89333 15.938L0.293325 64.718C-0.203789 67.051 -0.0671789 69.4745 0.688985 71.7369C1.44515 73.9992 2.79327 76.0178 4.59331 77.583C5.02275 77.9355 5.47144 78.2597 5.9365 78.5544C8.40241 74.998 11.3396 70.8944 14.6854 66.4502C14.6008 66.3801 14.5227 66.3019 14.4524 66.2165C14.2828 66.0104 14.1629 65.7681 14.1018 65.5083C14.0407 65.2484 14.0402 64.9781 14.1003 64.718L14.1343 64.518L22.7013 15.934C22.8189 15.3487 23.1303 14.8202 23.5851 14.4335C24.0399 14.0469 24.6117 13.8248 25.2083 13.803H55.3323L61.333 6.51079L55.3264 13.813H61.4314C61.6974 13.8063 61.9615 13.8602 62.2036 13.9706C62.4457 14.0811 62.6594 14.2453 62.8286 14.4506C62.9979 14.656 63.1181 14.8972 63.1803 15.1559C63.1921 15.2053 63.2018 15.2551 63.2093 15.3052C65.0152 13.9023 66.8412 12.5427 68.6853 11.234C70.9365 9.61248 73.2433 8.07201 75.6012 6.6152Z" fill="white"/>
</svg>
