<svg width="203" height="63" viewBox="0 0 203 63" fill="none" xmlns="http://www.w3.org/2000/svg">
<path d="M72.0173 42.1585C73.7028 40.1124 74.8477 37.676 75.3474 35.0725L78.4473 36.0335C77.7213 38.8765 76.7773 41.9185 74.9413 43.7605L72.0173 42.1585ZM73.9453 30.1505C75.9403 30.1095 78.3803 30.0306 81.0573 29.9506L81.2263 28.0295H75.0863L75.4013 24.4295H81.5413L81.6953 22.6675H75.4763L76.7963 7.57755H93.6613L92.3403 22.6675H85.8813L85.7274 24.4295H92.1074L91.7913 28.0295H85.4124L85.2584 29.7906C87.5784 29.7116 89.9803 29.5906 92.2993 29.5106L91.8994 33.1935C85.4054 33.5935 78.5564 33.9535 73.7144 34.1535L73.9453 30.1505ZM81.7373 34.9505C82.0118 37.2749 82.0868 39.6184 81.9613 41.9555L78.8613 42.3155C79.0824 39.9846 79.0606 37.637 78.7963 35.3106L81.7373 34.9505ZM79.3054 19.4595H82.6533L83.4133 10.7726H80.0673L79.9203 12.4536L81.8423 11.8936C82.3229 13.7783 82.582 15.7127 82.6143 17.6576L80.4453 18.2986C80.474 16.4287 80.2895 14.5616 79.8953 12.7336L79.3054 19.4595ZM85.6754 34.5905C86.2697 36.7628 86.6492 38.9881 86.8083 41.2345L83.8463 41.8346C83.731 39.5756 83.3787 37.335 82.7953 35.1496L85.6754 34.5905ZM88.9533 19.4595L89.4533 13.7755C88.6683 15.4565 87.8793 17.1756 87.2593 18.3386L85.6783 17.7386L85.5273 19.4595H88.9533ZM89.7133 10.7726H86.2844L85.7064 17.3795C86.4956 15.5849 87.1638 13.7395 87.7064 11.8556L89.5604 12.5366L89.7133 10.7726ZM89.6133 33.7495C90.7514 35.6847 91.6026 37.7749 92.1403 39.9546L89.0403 41.1955C88.5473 38.9646 87.7569 36.81 86.6903 34.7895L89.6133 33.7495ZM103.898 19.0186L103.359 25.1835H109.738L108.13 43.5565H103.585L103.708 42.1565H96.3333L96.1964 43.7176H91.8903L93.5123 25.1845H98.7354L100.378 6.41055H105.002L104.284 14.6165H111.978L111.592 19.0165L103.898 19.0186ZM104.814 29.5066H97.4393L96.7083 37.8725H104.083L104.814 29.5066Z" fill="#FF9900"/>
<path d="M117.467 42.1585C119.153 40.1124 120.298 37.676 120.797 35.0725L123.903 36.0335C123.175 38.8765 122.232 41.9185 120.396 43.7605L117.467 42.1585ZM119.395 30.1505C121.395 30.1095 123.83 30.0306 126.508 29.9506L126.677 28.0295H120.536L120.851 24.4295H126.992L127.146 22.6675H120.926L122.247 7.57755H139.111L137.79 22.6675H131.332L131.177 24.4295H137.557L137.241 28.0295H130.867L130.713 29.7906C133.033 29.7116 135.434 29.5906 137.754 29.5106L137.354 33.1935C130.86 33.5935 124.01 33.9535 119.169 34.1535L119.395 30.1505ZM127.187 34.9505C127.462 37.2749 127.537 39.6184 127.411 41.9555L124.311 42.3155C124.531 39.9845 124.509 37.637 124.245 35.3106L127.187 34.9505ZM124.755 19.4595H128.103L128.864 10.7726H125.515L125.368 12.4536L127.29 11.8936C127.771 13.7782 128.03 15.7127 128.062 17.6576L125.893 18.2986C125.922 16.4287 125.737 14.5616 125.343 12.7336L124.755 19.4595ZM131.125 34.5905C131.72 36.7628 132.099 38.9881 132.258 41.2345L129.296 41.8346C129.181 39.5756 128.829 37.335 128.245 35.1496L131.125 34.5905ZM134.403 19.4595L134.903 13.7755C134.118 15.4565 133.329 17.1756 132.711 18.3386L131.128 17.7386L130.977 19.4595H134.403ZM135.163 10.7726H131.737L131.159 17.3795C131.949 15.5849 132.617 13.7395 133.159 11.8556L135.013 12.5366L135.163 10.7726ZM135.063 33.7495C136.201 35.6849 137.052 37.775 137.59 39.9546L134.49 41.1955C133.997 38.9645 133.207 36.8098 132.139 34.7895L135.063 33.7495ZM149.348 19.0186L148.809 25.1835H155.188L153.58 43.5565H149.035L149.158 42.1565H141.783L141.646 43.7176H137.34L138.962 25.1845H144.185L145.828 6.41055H150.452L149.734 14.6165H157.428L157.042 19.0165L149.348 19.0186ZM150.264 29.5066H142.889L142.167 37.8795H149.542L150.264 29.5066Z" fill="#FF9900"/>
<path d="M180.295 8.09454C178.949 10.8721 177.446 13.5714 175.795 16.1795L173.395 43.6795H168.531L170.284 23.6245C169.267 24.7865 168.215 25.8676 167.214 26.8246C166.561 25.1105 165.772 23.4506 164.857 21.8605C169.466 17.5409 173.161 12.3411 175.724 6.56854L180.295 8.09454ZM202.434 19.7795H198.049L196.46 37.9535C196.19 41.0365 195.36 42.2765 193.387 42.9975C191.367 43.7585 188.37 43.8386 183.987 43.7976C183.739 42.1642 183.261 40.574 182.567 39.0746C185.626 39.1936 189.134 39.1935 190.055 39.1535C191.055 39.1535 191.438 38.8335 191.516 37.9535L193.105 19.7795H177.916L178.337 14.9796H193.526L194.24 6.81256H199.184L198.467 14.9796H202.852L202.434 19.7795ZM183.589 34.2306C182.356 30.943 180.919 27.7348 179.289 24.6245L183.689 22.6616C185.227 25.5846 187.355 29.5075 188.342 31.9095L183.589 34.2306Z" fill="#FF9900"/>
<path d="M115.841 61.5435C115.4 61.7123 114.931 61.7945 114.458 61.7855C113.809 61.8434 113.158 61.6931 112.599 61.3566C112.041 61.0201 111.604 60.5147 111.351 59.9135C109.651 59.6245 108.62 58.2835 108.799 56.2305C108.807 55.7356 108.914 55.2473 109.113 54.794C109.312 54.3407 109.599 53.9315 109.957 53.5903C110.316 53.249 110.739 52.9826 111.201 52.8065C111.664 52.6304 112.157 52.5481 112.651 52.5645C113.123 52.53 113.596 52.6053 114.034 52.7844C114.471 52.9634 114.861 53.2414 115.173 53.5966C115.485 53.9518 115.711 54.3745 115.832 54.8315C115.954 55.2885 115.967 55.7674 115.872 56.2305C115.849 57.0826 115.543 57.9027 115.001 58.561C114.46 59.2193 113.714 59.6784 112.882 59.8655C113.106 60.137 113.392 60.35 113.716 60.486C114.04 60.6221 114.392 60.6772 114.742 60.6466C115.055 60.643 115.366 60.591 115.663 60.4925L115.841 61.5435ZM114.415 56.2305C114.548 54.7055 113.789 53.7895 112.544 53.7895C112.233 53.7968 111.926 53.8661 111.642 53.9932C111.358 54.1204 111.101 54.303 110.888 54.5302C110.675 54.7575 110.51 55.0248 110.401 55.3168C110.293 55.6087 110.244 55.9193 110.256 56.2305C110.115 57.8395 110.841 58.8145 112.104 58.8145C113.35 58.8145 114.274 57.8395 114.415 56.2305Z" fill="#22798C" stroke="#22798C" stroke-width="0.05" stroke-miterlimit="10"/>
<path d="M118.514 57.8216L118.814 54.4445H120.233L119.953 57.6375C119.88 58.4765 120.086 58.7655 120.606 58.7655C120.84 58.7554 121.068 58.6887 121.27 58.5711C121.472 58.4536 121.642 58.2886 121.766 58.0905L122.086 54.4445H123.504L123.031 59.8446H121.867L121.828 59.0735H121.79C121.573 59.3467 121.299 59.5694 120.987 59.7259C120.675 59.8823 120.333 59.9689 119.984 59.9795C118.828 59.9795 118.396 59.1706 118.514 57.8216Z" fill="#22798C" stroke="#22798C" stroke-width="0.05" stroke-miterlimit="10"/>
<path d="M126.754 54.4445H128.167L127.694 59.8446H126.285L126.754 54.4445ZM126.762 52.8056C126.785 52.5831 126.893 52.3782 127.064 52.2341C127.235 52.09 127.455 52.0181 127.678 52.0335C127.783 52.022 127.888 52.034 127.987 52.0687C128.086 52.1034 128.176 52.1599 128.25 52.234C128.324 52.3081 128.381 52.3979 128.416 52.4968C128.451 52.5958 128.463 52.7013 128.451 52.8056C128.426 53.0252 128.318 53.2269 128.149 53.37C127.981 53.5131 127.764 53.5869 127.543 53.5766C127.439 53.5873 127.334 53.5748 127.235 53.54C127.136 53.5052 127.046 53.449 126.971 53.3753C126.896 53.3016 126.839 53.2123 126.803 53.1138C126.767 53.0153 126.753 52.91 126.762 52.8056Z" fill="#22798C" stroke="#22798C" stroke-width="0.05" stroke-miterlimit="10"/>
<path d="M130.85 57.1546C130.889 56.3844 131.223 55.6587 131.784 55.1289C132.344 54.5991 133.087 54.306 133.858 54.3106C134.424 54.3049 134.97 54.5201 135.379 54.9105L134.623 55.8275C134.521 55.7175 134.397 55.6292 134.26 55.5677C134.122 55.5062 133.974 55.4729 133.823 55.4696C133.399 55.4961 133.002 55.6875 132.716 56.0028C132.431 56.3182 132.28 56.7326 132.296 57.1575C132.208 58.1705 132.709 58.8266 133.491 58.8266C133.892 58.8056 134.275 58.6527 134.58 58.3916L135.059 59.3275C134.545 59.7483 133.901 59.9798 133.236 59.9835C132.879 59.9989 132.524 59.9322 132.196 59.7886C131.869 59.645 131.579 59.4282 131.349 59.155C131.118 58.8818 130.953 58.5595 130.867 58.2127C130.781 57.8659 130.775 57.5039 130.85 57.1546Z" fill="#22798C" stroke="#22798C" stroke-width="0.05" stroke-miterlimit="10"/>
<path d="M138.448 52.1505H139.829L139.424 56.7785H139.462L141.538 54.4445H143.083L141.017 56.6535L142.784 59.8456H141.249L140.133 57.6076L139.274 58.4956L139.156 59.8456H137.775L138.448 52.1505Z" fill="#22798C" stroke="#22798C" stroke-width="0.05" stroke-miterlimit="10"/>
<path d="M146.093 52.7085H148.438C150.02 52.7085 151.188 53.2596 151.038 54.9466C150.894 56.5756 149.605 57.3086 148.071 57.3086H147.116L146.894 59.8456H145.467L146.093 52.7085ZM148.076 56.1815C149.06 56.1815 149.57 55.7666 149.642 54.9466C149.714 54.1266 149.218 53.8385 148.233 53.8385H147.423L147.217 56.1815H148.076Z" fill="#22798C" stroke="#22798C" stroke-width="0.05" stroke-miterlimit="10"/>
<path d="M153.386 58.3795C153.486 57.2235 154.476 56.6145 156.668 56.3795C156.695 55.8495 156.498 55.4436 155.833 55.4436C155.288 55.4847 154.762 55.6606 154.301 55.9555L153.872 55.0196C154.569 54.5806 155.37 54.3345 156.193 54.3065C157.563 54.3065 158.193 55.1265 158.059 56.6875L157.783 59.8415H156.625L156.569 59.2625H156.541C156.074 59.6855 155.477 59.9372 154.848 59.9765C154.641 59.9902 154.433 59.9572 154.24 59.8797C154.047 59.8023 153.874 59.6825 153.734 59.5291C153.593 59.3758 153.489 59.1929 153.429 58.9939C153.369 58.7949 153.354 58.585 153.386 58.3795ZM156.497 58.3426L156.597 57.2516C155.269 57.4256 154.797 57.7825 154.752 58.2635C154.715 58.6875 154.998 58.8725 155.412 58.8725C155.83 58.8457 156.22 58.6553 156.497 58.3426Z" fill="#22798C" stroke="#22798C" stroke-width="0.05" stroke-miterlimit="10"/>
<path d="M160.52 61.9096L160.875 60.8195C160.995 60.859 161.119 60.8819 161.246 60.8875C161.49 60.8831 161.726 60.8013 161.921 60.654C162.116 60.5066 162.26 60.3013 162.331 60.0675L162.453 59.7495L160.815 54.4496H162.242L162.883 56.9576C163.005 57.4395 163.095 57.9575 163.203 58.4815H163.25C163.419 57.9815 163.601 57.4585 163.77 56.9576L164.733 54.4496H166.094L163.686 60.0146C163.103 61.2886 162.46 62.0205 161.253 62.0205C161.004 62.0256 160.756 61.9881 160.52 61.9096Z" fill="#22798C" stroke="#22798C" stroke-width="0.05" stroke-miterlimit="10"/>
<path d="M75.1863 57.2436H94.4633" stroke="#22798C" stroke-width="1.25" stroke-miterlimit="10"/>
<path d="M180.409 57.2436H199.686" stroke="#22798C" stroke-width="1.25" stroke-miterlimit="10"/>
<path d="M57.1284 7.85956C57.1904 7.99556 57.2514 8.13155 57.3074 8.27155C57.2514 8.13155 57.1904 7.99556 57.1284 7.85956Z" fill="#96BE0B"/>
<path d="M57.4893 8.77954C57.5433 8.94054 57.5893 9.10456 57.6393 9.26956C57.5933 9.10356 57.5433 8.93954 57.4893 8.77954Z" fill="#96BE0B"/>
<path d="M57.7673 9.76355C57.8083 9.94755 57.8424 10.1345 57.8734 10.3225C57.8394 10.1345 57.8053 9.94755 57.7673 9.76355Z" fill="#96BE0B"/>
<path d="M52.8113 3.34854L52.8223 3.35455L52.8113 3.34854Z" fill="#96BE0B"/>
<path d="M48.0063 2.23553C48.3563 2.23553 48.6953 2.25854 49.0323 2.28754C48.6973 2.25554 48.3563 2.23553 48.0063 2.23553Z" fill="#96BE0B"/>
<path d="M51.9023 2.94754L51.9423 2.96255L51.9023 2.94754Z" fill="#96BE0B"/>
<path d="M56.2673 6.33356C56.2973 6.37656 56.3303 6.41653 56.3593 6.45953C56.3283 6.41653 56.2953 6.37956 56.2673 6.33356Z" fill="#96BE0B"/>
<path d="M57.9434 10.8026C57.9674 11.0106 57.9813 11.2225 57.9943 11.4345C57.9813 11.2225 57.9674 11.0106 57.9434 10.8026Z" fill="#96BE0B"/>
<path d="M56.7012 7.02454C56.7602 7.12454 56.8221 7.22456 56.8771 7.33356C56.8221 7.22856 56.7602 7.12754 56.7012 7.02454Z" fill="#96BE0B"/>
<path d="M50.9502 2.63556L50.9852 2.64554L50.9502 2.63556Z" fill="#96BE0B"/>
<path d="M58.0192 11.8896C58.0192 12.1336 58.0132 12.3816 58.0012 12.6306C58.0132 12.3796 58.0232 12.1336 58.0192 11.8896Z" fill="#96BE0B"/>
<path d="M57.9863 13.0155C57.9563 13.3965 57.9103 13.7835 57.8413 14.1755C57.9103 13.7795 57.9563 13.3965 57.9863 13.0155Z" fill="#96BE0B"/>
<path opacity="0.28" d="M51.9424 2.96255C52.2404 3.07855 52.5301 3.20721 52.8114 3.34854C52.5301 3.20654 52.2404 3.07789 51.9424 2.96255Z" fill="url(#paint0_linear_1715_3795)"/>
<path opacity="0.28" d="M56.2672 6.33356C55.3841 5.07063 54.201 4.04695 52.8242 3.35455C54.201 4.04695 55.3841 5.07063 56.2672 6.33356Z" fill="url(#paint1_linear_1715_3795)"/>
<path opacity="0.28" d="M50.9854 2.64554C51.2994 2.73287 51.605 2.83289 51.9023 2.94556C51.6043 2.83489 51.2987 2.73487 50.9854 2.64554Z" fill="url(#paint2_linear_1715_3795)"/>
<path opacity="0.28" d="M56.4204 6.54553C56.4014 6.51553 56.3774 6.48853 56.3574 6.45953C56.3774 6.48853 56.3934 6.52056 56.4124 6.54956L56.4204 6.54553Z" fill="url(#paint3_linear_1715_3795)"/>
<path opacity="0.28" d="M50.9502 2.63556C50.6302 2.54856 50.3042 2.47453 49.9692 2.41653C50.3042 2.47953 50.6302 2.54856 50.9502 2.63556Z" fill="url(#paint4_linear_1715_3795)"/>
<path opacity="0.28" d="M49.9673 2.41653C49.6603 2.36253 49.3493 2.31654 49.0303 2.28754C49.3483 2.31954 49.6606 2.36253 49.9673 2.41653Z" fill="url(#paint5_linear_1715_3795)"/>
<path d="M35.9353 52.3136H12.0353C11.8349 52.3213 11.6353 52.2826 11.4524 52.2004C11.2694 52.1182 11.108 51.9949 10.9806 51.8399C10.8533 51.685 10.7635 51.5027 10.7183 51.3073C10.6731 51.1119 10.6738 50.9086 10.7203 50.7135L10.7463 50.5666L17.1673 14.1795C17.2547 13.7405 17.4876 13.3437 17.8284 13.0534C18.1692 12.7631 18.5979 12.5961 19.0453 12.5796H41.6113L49.9712 2.41754C49.6639 2.36354 49.3516 2.32054 49.0343 2.28854C48.6973 2.25954 48.3583 2.23654 48.0083 2.23654H20.8672C14.2842 2.23654 7.98429 7.59254 6.82329 14.1765L0.380239 50.7176C0.00773638 52.4652 0.110016 54.2806 0.676443 55.9753C1.24287 57.67 2.25278 59.1821 3.60125 60.3545C5.46266 61.8812 7.8062 62.6965 10.2132 62.6546H37.3533C39.0707 62.6353 40.7557 62.1845 42.2533 61.3435C40.2481 59.9762 38.812 57.923 38.2153 55.5705C37.4613 52.5795 35.9353 52.3136 35.9353 52.3136Z" fill="#96BE0B"/>
<path d="M57.9943 11.4345C57.9813 11.2225 57.9674 11.0106 57.9434 10.8026C57.9234 10.6406 57.8974 10.4815 57.8704 10.3225C57.8394 10.1345 57.8053 9.94755 57.7643 9.76355C57.7263 9.59688 57.6847 9.43189 57.6393 9.26855C57.5933 9.10355 57.5393 8.93953 57.4893 8.77853C57.4393 8.61753 57.3723 8.43755 57.3073 8.27155C57.2513 8.13155 57.1904 7.99556 57.1284 7.85956C57.0484 7.68156 56.9683 7.50456 56.8773 7.33356C56.8223 7.22856 56.7604 7.12754 56.7014 7.02454C56.6084 6.86354 56.5144 6.70456 56.4124 6.54956C56.3934 6.52056 56.3774 6.48853 56.3574 6.45953C56.3374 6.43053 56.2953 6.37656 56.2653 6.33356C55.3822 5.07063 54.1991 4.04695 52.8223 3.35455L52.8113 3.34854C52.53 3.20654 52.2403 3.07789 51.9423 2.96255L51.9023 2.94754C51.6043 2.83354 51.2987 2.73355 50.9854 2.64755L50.9503 2.63754C50.6313 2.55054 50.3044 2.47655 49.9694 2.41855L41.6104 12.5796H46.1833C46.383 12.5744 46.5812 12.6149 46.7628 12.6978C46.9445 12.7808 47.1048 12.9042 47.2316 13.0584C47.3584 13.2127 47.4483 13.3939 47.4945 13.5882C47.5407 13.7824 47.5421 13.9847 47.4984 14.1795L43.1043 37.6006C47.0963 37.6756 50.2213 40.8006 52.3043 43.9256L57.8403 14.1795C57.9093 13.7875 57.9554 13.4006 57.9854 13.0196C57.9964 12.8896 57.9953 12.7636 58.0013 12.6346C58.0123 12.3856 58.0223 12.1346 58.0183 11.8936C58.0163 11.7356 58.0033 11.5855 57.9943 11.4345Z" fill="#96BE0B"/>
<path d="M50.2172 45.9015C45.0122 38.4205 37.7172 40.5016 37.7172 40.5016L30.4312 47.2555C30.4312 47.2555 38.3902 47.7396 40.1992 52.5976C43.2602 60.8146 52.2092 62.5976 52.2092 62.5976L60.7261 52.5216C60.7261 52.5216 54.0802 51.4515 50.2172 45.9015Z" fill="#FF9900"/>
<path d="M49.4302 49.5486C48.7622 48.8416 47.8301 48.7286 46.0381 49.7486L44.4822 48.1036C44.693 47.9374 44.9494 47.8394 45.2173 47.8224C45.4853 47.8054 45.752 47.8704 45.9822 48.0086L46.8972 47.1506C46.3492 46.6996 45.2841 46.4056 43.9031 47.4976L43.3881 46.9536L42.8192 47.4866L43.3262 48.0216C42.3632 49.0466 42.1002 50.2886 42.8712 51.1046C43.5712 51.8436 44.4352 51.8046 46.0582 50.9046L47.7822 52.7276C47.5405 52.925 47.2442 53.0435 46.933 53.0673C46.6219 53.0911 46.311 53.019 46.0422 52.8606L45.1102 53.7336C45.9322 54.4076 47.1421 54.3476 48.3671 53.3456L49.0491 54.0666L49.6182 53.5336L48.9362 52.8126C50.0442 51.6466 50.2802 50.4466 49.4302 49.5486ZM43.7172 50.1486C43.3832 49.7956 43.3172 49.2646 43.8942 48.6196L45.3331 50.1396C44.4771 50.5636 44.0672 50.5146 43.7172 50.1476V50.1486ZM48.3682 52.2126L46.7681 50.5246C47.7151 50.0546 48.1772 50.1246 48.5562 50.5246C49.0052 50.9996 48.9441 51.5635 48.3671 52.2115L48.3682 52.2126Z" fill="white"/>
<path opacity="0.28" fill-rule="evenodd" clip-rule="evenodd" d="M56.798 7.19072C56.7842 7.16682 56.7703 7.14299 56.7563 7.11915L56.7559 7.11842C56.7376 7.08719 56.7194 7.05596 56.7014 7.02454C56.6084 6.86354 56.5144 6.70456 56.4124 6.54956C56.4038 6.53644 56.3958 6.52269 56.3878 6.50889C56.3781 6.49219 56.3683 6.47541 56.3574 6.45953C56.348 6.4459 56.3337 6.42674 56.3181 6.40581L56.318 6.40574C56.3005 6.38216 56.2812 6.35632 56.2653 6.33356C55.3822 5.07063 54.1991 4.04695 52.8223 3.35455L52.8113 3.34854C52.53 3.20654 52.2403 3.07789 51.9423 2.96255L51.9023 2.94754C51.6043 2.83354 51.2987 2.73355 50.9854 2.64755L50.9503 2.63754C50.6316 2.55062 50.305 2.47668 49.9703 2.41871L49.9712 2.41754C49.6639 2.36354 49.3516 2.32054 49.0343 2.28854C48.6973 2.25954 48.3583 2.23654 48.0083 2.23654H20.8672C14.2842 2.23654 7.98429 7.59254 6.82329 14.1765L0.380239 50.7176C0.00773641 52.4652 0.110016 54.2806 0.676443 55.9753C1.24287 57.67 2.25278 59.1821 3.60125 60.3545C3.9234 60.6187 4.26 60.8617 4.60886 61.0825C6.45498 58.4192 8.65406 55.3463 11.1591 52.0185C11.0942 51.9651 11.0344 51.9053 10.9806 51.8399C10.8533 51.685 10.7635 51.5027 10.7183 51.3073C10.6731 51.1119 10.6738 50.9086 10.7203 50.7135L10.7463 50.5666L17.1673 14.1795C17.2547 13.7405 17.4876 13.3437 17.8284 13.0534C18.1692 12.7631 18.5979 12.5961 19.0453 12.5796H41.6104H41.6113H46.1833C46.383 12.5744 46.5812 12.6149 46.7628 12.6978C46.9445 12.7808 47.1048 12.9042 47.2316 13.0584C47.3584 13.2127 47.4483 13.3939 47.4945 13.5882C47.5033 13.6249 47.5104 13.662 47.5159 13.6993C48.8675 12.6494 50.2342 11.632 51.6143 10.6526C53.3016 9.43717 55.0307 8.28257 56.798 7.19072Z" fill="url(#paint6_linear_1715_3795)"/>
<defs>
<linearGradient id="paint0_linear_1715_3795" x1="56.7515" y1="19.7286" x2="47.5102" y2="-24.0327" gradientUnits="userSpaceOnUse">
<stop stop-color="white"/>
<stop offset="1" stop-color="#22798C"/>
</linearGradient>
<linearGradient id="paint1_linear_1715_3795" x1="57.0798" y1="19.3786" x2="23.281" y2="-22.8017" gradientUnits="userSpaceOnUse">
<stop stop-color="white"/>
<stop offset="1" stop-color="#22798C"/>
</linearGradient>
<linearGradient id="paint2_linear_1715_3795" x1="56.4662" y1="19.9194" x2="51.7263" y2="-21.1761" gradientUnits="userSpaceOnUse">
<stop stop-color="white"/>
<stop offset="1" stop-color="#22798C"/>
</linearGradient>
<linearGradient id="paint3_linear_1715_3795" x1="57.2289" y1="19.2273" x2="10.1033" y2="-2.32416" gradientUnits="userSpaceOnUse">
<stop stop-color="white"/>
<stop offset="1" stop-color="#22798C"/>
</linearGradient>
<linearGradient id="paint4_linear_1715_3795" x1="56.1208" y1="20.4048" x2="54.0235" y2="-18.8989" gradientUnits="userSpaceOnUse">
<stop stop-color="white"/>
<stop offset="1" stop-color="#22798C"/>
</linearGradient>
<linearGradient id="paint5_linear_1715_3795" x1="55.7449" y1="20.8056" x2="54.9723" y2="-17.2745" gradientUnits="userSpaceOnUse">
<stop stop-color="white"/>
<stop offset="1" stop-color="#22798C"/>
</linearGradient>
<linearGradient id="paint6_linear_1715_3795" x1="39.1251" y1="43.5451" x2="3.36757" y2="12.2581" gradientUnits="userSpaceOnUse">
<stop stop-color="white"/>
<stop offset="1" stop-color="#96BE0B"/>
</linearGradient>
</defs>
</svg>
