<svg width="50" height="50" viewBox="0 0 50 50" fill="none" xmlns="http://www.w3.org/2000/svg">
<rect width="50" height="50" rx="13.8889" fill="#22798C"/>
<g clip-path="url(#clip0_5778_188230)">
<path d="M16.7704 10.1846H13.4782C12.6051 10.1846 11.7677 10.5314 11.1503 11.1488C10.5329 11.7662 10.186 12.6036 10.186 13.4768V16.7689M33.2313 10.1846H36.5235C37.3966 10.1846 38.234 10.5314 38.8514 11.1488C39.4688 11.7662 39.8157 12.6036 39.8157 13.4768V16.7689M31.5852 18.415V21.7072M18.4165 18.415V21.7072M20.0626 31.5837C20.0626 31.5837 21.7087 33.2298 25.0008 33.2298C28.293 33.2298 29.9391 31.5837 29.9391 31.5837M25.0008 18.415V26.6455H23.3548M16.7704 39.8142H13.4782C12.6051 39.8142 11.7677 39.4673 11.1503 38.8499C10.5329 38.2325 10.186 37.3952 10.186 36.522V33.2298M33.2313 39.8142H36.5235C37.3966 39.8142 38.234 39.4673 38.8514 38.8499C39.4688 38.2325 39.8157 37.3952 39.8157 36.522V33.2298" stroke="white" stroke-width="2.46914" stroke-linecap="round" stroke-linejoin="round"/>
</g>
<defs>
<clipPath id="clip0_5778_188230">
<rect width="33.3333" height="33.3333" fill="white" transform="translate(8.3335 8.33325)"/>
</clipPath>
</defs>
</svg>
