<svg width="50" height="50" viewBox="0 0 50 50" fill="none" xmlns="http://www.w3.org/2000/svg">
<g clip-path="url(#clip0_4261_189867)">
<path d="M12.5 2.5H7.5C6.17392 2.5 4.90215 3.02678 3.96447 3.96447C3.02678 4.90215 2.5 6.17392 2.5 7.5V12.5M37.5 2.5H42.5C43.8261 2.5 45.0979 3.02678 46.0355 3.96447C46.9732 4.90215 47.5 6.17392 47.5 7.5V12.5M35 15V20M15 15V20M17.5 35C17.5 35 20 37.5 25 37.5C30 37.5 32.5 35 32.5 35M25 15V27.5H22.5M12.5 47.5H7.5C6.17392 47.5 4.90215 46.9732 3.96447 46.0355C3.02678 45.0979 2.5 43.8261 2.5 42.5V37.5M37.5 47.5H42.5C43.8261 47.5 45.0979 46.9732 46.0355 46.0355C46.9732 45.0979 47.5 43.8261 47.5 42.5V37.5" stroke="#22798C" stroke-width="3.75" stroke-linecap="round" stroke-linejoin="round"/>
</g>
<defs>
<clipPath id="clip0_4261_189867">
<rect width="50" height="50" fill="white"/>
</clipPath>
</defs>
</svg>
