<svg width="120" height="120" viewBox="0 0 120 120" fill="none" xmlns="http://www.w3.org/2000/svg">
<rect width="120" height="120" rx="60" fill="white"/>
<path fill-rule="evenodd" clip-rule="evenodd" d="M25 60C25 40.67 40.67 25 60 25C79.33 25 95 40.67 95 60C95 67.8625 92.4075 75.1175 88.0325 80.96L93.535 86.465C94.0126 86.9262 94.3935 87.478 94.6555 88.088C94.9175 88.698 95.0555 89.3541 95.0613 90.018C95.067 90.6819 94.9405 91.3403 94.6891 91.9548C94.4377 92.5692 94.0664 93.1275 93.597 93.597C93.1275 94.0664 92.5692 94.4377 91.9548 94.6891C91.3403 94.9405 90.6819 95.067 90.018 95.0613C89.3541 95.0555 88.698 94.9175 88.088 94.6555C87.478 94.3935 86.9262 94.0126 86.465 93.535L80.96 88.0325C74.9138 92.5665 67.5574 95.0119 60 95C40.67 95 25 79.33 25 60ZM80.8575 73.7875L73.535 66.4625C73.0704 65.9983 72.519 65.6301 71.9122 65.379C71.3053 65.1279 70.655 64.9988 69.9982 64.999C69.3415 64.9992 68.6912 65.1288 68.0846 65.3803C67.4779 65.6319 66.9267 66.0005 66.4625 66.465C65.9983 66.9296 65.6301 67.481 65.379 68.0878C65.1279 68.6947 64.9988 69.345 64.999 70.0018C64.9995 71.3281 65.5268 72.6 66.465 73.5375L73.7875 80.8575C69.7002 83.5666 64.9036 85.0077 60 85C46.1925 85 35 73.8075 35 60C35 46.1925 46.1925 35 60 35C73.8075 35 85 46.1925 85 60C85 65.095 83.475 69.835 80.8575 73.7875Z" fill="#EE6C5F"/>
</svg>
