<svg width="50" height="50" viewBox="0 0 50 50" fill="none" xmlns="http://www.w3.org/2000/svg">
<path d="M49.5043 25.5702C49.5064 23.8666 49.3624 22.166 49.0738 20.4871H25.4982V30.1152H39.0012C38.7249 31.653 38.1401 33.1189 37.282 34.4245C36.4239 35.7302 35.3103 36.8485 34.0083 37.7122V43.962H42.0671C46.7857 39.6114 49.5043 33.1776 49.5043 25.5702Z" fill="#4285F4"/>
<path d="M25.4982 50C32.2445 50 37.9249 47.7848 42.0671 43.9655L34.0083 37.7157C31.7654 39.2365 28.8766 40.1045 25.4982 40.1045C18.9776 40.1045 13.443 35.7088 11.4639 29.7854H3.16211V36.2261C5.24283 40.3666 8.43339 43.8472 12.3776 46.2794C16.3218 48.7117 20.8644 49.9998 25.4982 50Z" fill="#34A853"/>
<path d="M11.4638 29.7854C10.4175 26.6815 10.4175 23.3202 11.4638 20.2163V13.7755H3.16197C1.41159 17.2586 0.5 21.1027 0.5 25.0008C0.5 28.899 1.41159 32.7431 3.16197 36.2262L11.4638 29.7854Z" fill="#FBBC04"/>
<path d="M25.4982 9.89715C29.0633 9.8389 32.5082 11.1859 35.0882 13.647L42.2234 6.51184C37.6989 2.26225 31.705 -0.0708542 25.4982 0.00164018C20.8644 0.00185137 16.3218 1.28998 12.3776 3.72222C8.43339 6.15446 5.24283 9.63508 3.16211 13.7755L11.4639 20.2163C13.443 14.2928 18.9776 9.89715 25.4982 9.89715Z" fill="#EA4335"/>
</svg>
