<svg width="50" height="50" viewBox="0 0 50 50" fill="none" xmlns="http://www.w3.org/2000/svg">
<path d="M40.3391 20.5484C40.5155 20.5424 40.6914 20.5719 40.8563 20.6352C41.0211 20.6985 41.1715 20.7944 41.2985 20.9171C41.4255 21.0398 41.5265 21.1868 41.5955 21.3494C41.6645 21.5119 41.7 21.6867 41.7 21.8633C41.7 22.0399 41.6645 22.2146 41.5955 22.3772C41.5265 22.5398 41.4255 22.6868 41.2985 22.8095C41.1715 22.9322 41.0211 23.028 40.8563 23.0914C40.6914 23.1547 40.5155 23.1842 40.3391 23.1781H36.6844V25.5219H40.3391C40.5166 25.5132 40.6941 25.5407 40.8607 25.6027C41.0273 25.6646 41.1795 25.7598 41.3082 25.8824C41.437 26.005 41.5394 26.1524 41.6095 26.3158C41.6795 26.4792 41.7156 26.6551 41.7156 26.8328C41.7156 27.0106 41.6795 27.1865 41.6095 27.3498C41.5394 27.5132 41.437 27.6607 41.3082 27.7833C41.1795 27.9058 41.0273 28.001 40.8607 28.063C40.6941 28.1249 40.5166 28.1524 40.3391 28.1437H35.375C35.028 28.1425 34.6956 28.0039 34.4505 27.7582C34.2054 27.5126 34.0676 27.1798 34.0672 26.8328V16.8953C34.0672 16.1719 34.6531 15.5781 35.375 15.5781H40.3484C40.6858 15.5956 41.0036 15.7421 41.2359 15.9874C41.4682 16.2328 41.5972 16.5581 41.5962 16.8959C41.5952 17.2338 41.4642 17.5583 41.2305 17.8022C40.9967 18.0462 40.6781 18.1908 40.3406 18.2063H36.6859V20.55L40.3391 20.5484ZM32.3172 26.8313C32.3143 27.1793 32.1741 27.512 31.9272 27.7572C31.6802 28.0024 31.3464 28.1402 30.9984 28.1406C30.7924 28.1426 30.5887 28.0967 30.4035 28.0064C30.2182 27.9161 30.0566 27.7839 29.9313 27.6203L24.8453 20.7031V26.8297C24.8453 27.1774 24.7072 27.5108 24.4613 27.7567C24.2155 28.0025 23.8821 28.1406 23.5344 28.1406C23.1867 28.1406 22.8533 28.0025 22.6074 27.7567C22.3616 27.5108 22.2234 27.1774 22.2234 26.8297V16.8922C22.2234 16.3312 22.5906 15.8281 23.1187 15.6484C23.2492 15.6024 23.3867 15.5796 23.525 15.5812C23.9312 15.5812 24.3063 15.8016 24.5578 16.1109L29.6844 23.0437V16.8922C29.6844 16.1687 30.2703 15.575 30.9953 15.575C31.7203 15.575 32.3141 16.1687 32.3141 16.8922L32.3172 26.8313ZM20.3547 26.8313C20.353 27.1798 20.2133 27.5134 19.9661 27.7592C19.719 28.0049 19.3845 28.1426 19.0359 28.1422C18.69 28.1393 18.3592 28 18.1155 27.7545C17.8717 27.509 17.7348 27.1772 17.7344 26.8313V16.8938C17.7344 16.1703 18.3203 15.5766 19.0453 15.5766C19.7688 15.5766 20.3562 16.1703 20.3562 16.8938L20.3547 26.8313ZM15.2187 28.1422H10.2453C9.89716 28.1414 9.56338 28.0032 9.31647 27.7578C9.06955 27.5123 8.92944 27.1794 8.92656 26.8313V16.8938C8.92656 16.1703 9.52031 15.5766 10.2453 15.5766C10.9703 15.5766 11.5562 16.1703 11.5562 16.8938V25.5203H15.2187C15.5664 25.5203 15.8999 25.6584 16.1457 25.9043C16.3916 26.1501 16.5297 26.4836 16.5297 26.8313C16.5297 27.1789 16.3916 27.5124 16.1457 27.7582C15.8999 28.0041 15.5664 28.1422 15.2187 28.1422V28.1422ZM50 21.4828C50 10.2937 38.7766 1.1875 25 1.1875C11.2234 1.1875 0 10.2937 0 21.4828C0 31.5094 8.89531 39.9078 20.9063 41.5031C21.7203 41.6734 22.8266 42.0406 23.1125 42.7328C23.3641 43.3578 23.275 44.3266 23.1937 44.9875L22.8516 47.1109C22.7531 47.7375 22.3469 49.5781 25.0328 48.4547C27.7266 47.3312 39.4453 39.9594 44.6938 33.9187C48.2828 29.9891 50 25.9516 50 21.4828Z" fill="white"/>
</svg>
