<svg width="25" height="30" viewBox="0 0 25 30" fill="none" xmlns="http://www.w3.org/2000/svg">
<path d="M16.5942 4.80752C15.5298 6.06705 13.8267 7.06048 12.1237 6.91856C11.9108 5.21553 12.7446 3.40606 13.7203 2.28845C14.7847 0.993435 16.6474 0.0709596 18.1553 0C18.3327 1.77399 17.6408 3.5125 16.5942 4.80752ZM18.1375 7.25562C15.6717 7.1137 13.5606 8.65708 12.3898 8.65708C11.2012 8.65708 9.40949 7.32658 7.4581 7.36206C4.92129 7.39754 2.56188 8.83447 1.26687 11.1229C-1.39412 15.6998 0.575012 22.4765 3.1473 26.2018C4.40683 28.0468 5.91472 30.0691 7.90159 29.9982C9.78202 29.9272 10.5271 28.7741 12.7978 28.7741C15.0863 28.7741 15.7426 29.9982 17.7295 29.9627C19.7873 29.9272 21.0823 28.1178 22.3419 26.2728C23.7788 24.1795 24.3642 22.1394 24.3997 22.033C24.3642 21.9975 20.426 20.4896 20.3905 15.9482C20.355 12.1518 23.495 10.3424 23.6369 10.2359C21.8629 7.61042 19.0955 7.32658 18.1375 7.25562Z" fill="white"/>
</svg>
