<svg width="51" height="42" viewBox="0 0 51 42" fill="none" xmlns="http://www.w3.org/2000/svg">
<path d="M25.4885 30.4182C27.1099 30.33 28.6409 33.6145 29.3252 34.5681C29.7575 35.1861 30.2078 35.3805 30.6942 35.9631C30.8565 36.1575 31.7212 36.6165 31.9912 36.6341C33.6305 36.7931 34.6572 36.2458 35.4318 36.0338C36.4765 35.7511 37.1248 35.7158 38.0075 35.2038C38.8361 34.7095 45.1948 32.0959 45.5371 34.2148C45.8071 35.8395 41.2318 38.4885 40.2231 39.1594C40.0068 39.3004 39.9348 39.6714 39.6828 39.7774C38.5478 40.2894 34.1348 41.9848 32.6215 41.6138C30.3702 41.0664 27.4879 36.0691 26.5692 34.1618C26.3892 33.8618 24.3176 30.4713 25.4885 30.4182Z" fill="white"/>
<path d="M35.7059 31.9231C35.1529 31.603 34.9456 30.8917 35.2566 30.3048C36.5702 27.8686 37.3479 25.0944 37.3996 22.1246C37.3996 22.0002 37.3996 21.8934 37.3996 21.7689C37.3996 18.319 36.4319 15.1003 34.7556 12.3794C33.0789 9.65864 30.6939 7.43578 27.8596 5.99536C27.2893 5.7108 27.0473 4.99947 27.341 4.41264C27.6176 3.82577 28.309 3.57681 28.8793 3.87914C32.0939 5.5152 34.8072 8.02261 36.7082 11.1169C38.6095 14.2111 39.7155 17.8744 39.7155 21.7867C39.7155 21.929 39.7155 22.0535 39.7155 22.1957C39.6465 25.5567 38.7822 28.7221 37.2786 31.4785C37.0712 31.8698 36.6739 32.0832 36.2762 32.0832C36.0862 32.0832 35.8789 32.0298 35.7059 31.9231Z" fill="white"/>
<path d="M50.507 18.6895C49.2156 13.5121 46.4917 8.87962 42.7417 5.31895C42.264 4.86482 41.521 4.90115 41.0787 5.39161C40.6367 5.88214 40.672 6.6451 41.1497 7.0993C43.113 8.97042 44.758 11.1504 46.0317 13.5666C42.1047 10.3147 37.1697 8.46176 32.0048 8.46176C29.9528 8.46176 27.8831 8.75246 25.8138 9.37008C20.4188 10.9687 16.0495 14.4748 13.2372 18.962C12.8836 19.5251 13.0426 20.27 13.5909 20.6333C13.7855 20.7604 14.0155 20.8331 14.2279 20.8331C14.6169 20.8331 14.9885 20.6333 15.2182 20.27C17.7479 16.2551 21.6392 13.1124 26.4681 11.6954C28.3078 11.1504 30.1828 10.8961 32.0048 10.8961C37.3644 10.8961 42.4764 13.1306 46.173 16.9637C46.067 16.9637 45.9787 16.9637 45.8723 16.9637C44.3333 16.9637 43.0777 17.3815 42.193 17.7811C41.3087 18.199 40.7957 18.6168 40.7427 18.6531C40.2297 19.071 40.159 19.8339 40.5657 20.3608C40.7957 20.6514 41.1497 20.815 41.4857 20.815C41.751 20.815 41.9987 20.7241 42.2287 20.5425C42.2287 20.5425 42.2287 20.5425 42.2464 20.5243C42.3347 20.4516 42.7417 20.1609 43.3783 19.8885C44.015 19.616 44.882 19.3616 45.89 19.3616C46.7747 19.3616 47.765 19.5433 48.8793 20.0883C49.2863 20.2881 49.7816 20.2336 50.1353 19.9248C50.4713 19.616 50.6306 19.1436 50.507 18.6895Z" fill="white"/>
<path d="M27.8405 24.5832C30.2569 24.5832 32.2155 22.7177 32.2155 20.4165C32.2155 18.1153 30.2569 16.2499 27.8405 16.2499C25.4242 16.2499 23.4656 18.1153 23.4656 20.4165C23.4656 22.7177 25.4242 24.5832 27.8405 24.5832Z" fill="white"/>
<path d="M2.95058 24.1841C2.98641 24.844 2.46665 25.3969 1.80345 25.4148C1.14029 25.4504 0.584662 24.9332 0.566762 24.2733C0.548829 23.9344 0.548828 23.6134 0.548828 23.2745C0.548828 17.8171 2.69965 12.8233 6.23055 9.13147C9.3851 5.83203 13.6507 3.54914 18.4544 2.92493C16.9487 2.55039 15.3714 2.37204 13.7764 2.37204C13.0057 2.37204 12.2171 2.42555 11.4284 2.51472C10.7651 2.58606 10.1738 2.12236 10.1021 1.4803C10.0304 0.820404 10.4964 0.231852 11.1414 0.160513C12.0197 0.0535033 12.8981 0 13.7764 0C17.9524 0 21.9493 1.17711 25.3906 3.24595C25.767 3.45998 25.9823 3.87017 25.9643 4.2982C25.9463 4.72623 25.6953 5.11863 25.319 5.31483C22.8457 6.58109 20.677 8.34674 18.9564 10.4869C18.723 10.7723 18.3827 10.9328 18.024 10.9328C17.7554 10.9328 17.4864 10.8436 17.2714 10.6653C16.7517 10.2551 16.68 9.50603 17.092 8.98877C18.275 7.54418 19.6194 6.24226 21.125 5.13646C20.856 5.13646 20.5873 5.13646 20.3184 5.1543C15.4254 5.38616 11.0877 7.50848 7.95121 10.7901C4.83253 14.0717 2.93264 18.477 2.93264 23.2924C2.93264 23.5956 2.93264 23.8809 2.95058 24.1841Z" fill="white"/>
<path d="M14.8356 23.6825C14.2266 23.4335 13.5279 23.7181 13.2773 24.3052C12.2026 26.8312 11.6653 29.5174 11.6653 32.1857C11.6653 32.2746 11.6653 32.3636 11.6653 32.4525C10.0533 28.9659 9.08596 24.7499 9.08596 20.1959C9.08596 20.0714 9.08596 19.9469 9.08596 19.8401C9.13963 15.1438 10.2503 10.6787 12.0056 7.12092C12.2919 6.53392 12.0413 5.82236 11.4503 5.53769C10.8593 5.25306 10.1426 5.48436 9.85629 6.08916C7.93964 9.98496 6.75751 14.788 6.68588 19.8223C6.68588 19.9469 6.68588 20.0892 6.68588 20.2137C6.68588 25.497 7.88594 30.389 9.94562 34.3916C7.47398 32.7016 5.43209 30.4068 4.07087 27.6851C3.76637 27.098 3.04991 26.8668 2.45885 27.1514C1.86778 27.4538 1.63495 28.1654 1.92152 28.7524C4.26787 33.3776 8.31577 36.9532 13.2056 38.6785C13.3309 38.7322 13.4743 38.7499 13.5996 38.7499C13.9039 38.7499 14.1906 38.6432 14.4236 38.4295C14.7459 38.1272 14.8713 37.6649 14.7459 37.2379C14.2623 35.6012 14.0116 33.8936 14.0116 32.1857C14.0116 29.8198 14.4773 27.4538 15.4266 25.2302C15.7309 24.6254 15.4443 23.9316 14.8356 23.6825Z" fill="white"/>
</svg>
