<svg width="100" height="30" viewBox="0 0 100 30" fill="none" xmlns="http://www.w3.org/2000/svg">
<path d="M62.8461 4.74792C62.7121 4.88194 62.6547 5.05424 62.6547 5.2074C62.6547 5.3797 62.7121 5.53287 62.8461 5.66688C62.9801 5.8009 63.1524 5.85833 63.3056 5.85833C63.4779 5.85833 63.6311 5.8009 63.7651 5.66688L65.7944 3.69496C65.9284 3.58009 65.9859 3.40778 65.9859 3.21634C65.9859 3.04403 65.9093 2.87173 65.7944 2.73771L63.7651 0.765795C63.6311 0.650925 63.4779 0.574346 63.3056 0.574346C63.1333 0.574346 62.961 0.631781 62.8461 0.765795C62.7312 0.899809 62.6547 1.05297 62.6547 1.22527C62.6547 1.39757 62.7121 1.56988 62.8461 1.68475L64.3969 3.17805L62.8461 4.74792ZM48.5258 9.91704C48.5449 9.91704 48.5832 9.91704 48.6023 9.91704C50.3828 9.6873 51.9336 9.09381 53.1971 8.34716C54.4607 9.17039 56.0114 9.87875 57.7153 10.1276C57.7536 10.1276 57.7727 10.1276 57.811 10.1276C58.1173 10.1276 58.3854 9.8979 58.4428 9.59158C58.4428 9.55329 58.4428 9.53414 58.4428 9.49585C58.4428 9.18954 58.2131 8.92151 57.9067 8.86407C56.6049 8.67262 55.3988 8.194 54.3649 7.56222L54.3841 7.54308C55.8391 6.43267 57.2367 5.18826 57.7344 4.17358C57.8493 3.96298 57.9642 3.69496 57.9642 3.33121C57.9642 3.21634 57.945 3.06318 57.8876 2.92916C57.811 2.71857 57.6196 2.50798 57.409 2.39311C57.1984 2.27824 56.9687 2.23995 56.7389 2.23995H50.402L51.1869 0.957243C51.2443 0.861519 51.2826 0.746647 51.2826 0.631778C51.2826 0.421185 51.1677 0.210594 50.9763 0.0957243C50.8806 0.0382897 50.7657 0 50.6508 0C50.4403 0 50.2297 0.11487 50.1148 0.306319L48.7364 2.56541C48.6789 2.66114 48.6406 2.77601 48.6406 2.89088C48.6406 3.00575 48.6598 3.10146 48.7172 3.19719C48.8321 3.38864 49.0427 3.52265 49.2724 3.52265H56.624C56.4134 3.88641 55.9923 4.38417 55.4945 4.88194C54.9393 5.43714 54.2692 6.01149 53.6183 6.50925C53.4843 6.60498 53.3694 6.7007 53.2354 6.79643C52.1059 5.95405 51.2443 4.99681 50.7849 4.32674C50.67 4.15444 50.4594 4.05871 50.268 4.05871C50.1339 4.05871 50.0191 4.097 49.9042 4.17358C49.7319 4.28845 49.6362 4.49904 49.6362 4.69049C49.6362 4.80536 49.6745 4.93937 49.751 5.05424C50.2488 5.7626 51.0337 6.66241 52.0867 7.50478C51.0529 8.04084 49.8468 8.46203 48.4492 8.65348C48.1237 8.69177 47.894 8.97894 47.894 9.28526C47.894 9.3044 47.894 9.34269 47.894 9.36184C47.9323 9.6873 48.2003 9.91704 48.5258 9.91704ZM46.2284 8.13657C46.2284 8.48118 46.5155 8.76835 46.8602 8.76835C47.2048 8.76835 47.4919 8.48118 47.4919 8.13657V2.89088C47.4919 2.54627 47.2048 2.25909 46.8602 2.25909C46.5155 2.25909 46.2284 2.54627 46.2284 2.89088V8.13657ZM72.8014 3.00574H77.9897C78.3343 3.00574 78.6215 2.71857 78.6215 2.37396C78.6215 2.02935 78.3343 1.74218 77.9897 1.74218H73.8161L74.2182 0.918951C74.2565 0.823227 74.2756 0.727504 74.2756 0.650924C74.2756 0.421186 74.1416 0.191447 73.9119 0.0765783C73.8161 0.0382886 73.7396 0.019146 73.6438 0.019146C73.4141 0.019146 73.1843 0.153159 73.0695 0.382897L72.2463 2.10594C72.208 2.20166 72.1888 2.27824 72.1888 2.37396C72.1888 2.48883 72.2271 2.6037 72.2845 2.71857C72.3803 2.91002 72.5909 3.00574 72.8014 3.00574ZM71.9591 5.64774C71.9591 5.30313 71.6719 5.01595 71.3273 5.01595H69.0682C69.0682 4.74792 69.0682 4.51819 69.0682 4.28845C69.0682 3.98213 69.0682 3.7141 69.0682 3.50351H70.9061C71.0784 3.50351 71.2316 3.42693 71.3656 3.31206C71.4805 3.19719 71.557 3.02489 71.557 2.85258V0.650924C71.557 0.306317 71.2699 0.019146 70.9253 0.019146C70.5806 0.019146 70.2935 0.306317 70.2935 0.650924V2.23995H67.0771C66.7325 2.23995 66.4454 2.52712 66.4454 2.87173C66.4454 3.21634 66.7325 3.50351 67.0771 3.50351H67.8238C67.8238 3.69496 67.8238 3.96299 67.8238 4.28845C67.8238 5.28398 67.7855 6.79642 67.5941 8.3663C67.4026 9.91704 67.058 11.5252 66.4836 12.6165C66.4454 12.7122 66.4071 12.8079 66.4071 12.9036C66.4071 13.1334 66.5411 13.3631 66.7517 13.478C66.8474 13.5163 66.9431 13.5546 67.0388 13.5546C67.2686 13.5546 67.4983 13.4206 67.6132 13.21C68.2833 11.8698 68.647 10.1659 68.8385 8.53861C68.9342 7.75367 68.9916 7.00702 69.0299 6.31781H70.6764C70.6572 6.83472 70.6381 7.61966 70.5615 8.51947C70.4466 9.99362 70.1978 11.7932 69.7574 13.2865C69.7383 13.344 69.7383 13.4014 69.7383 13.478C69.7383 13.746 69.9106 14.014 70.1978 14.0906C70.2552 14.1098 70.3126 14.1098 70.3701 14.1098C70.6381 14.1098 70.9061 13.9375 70.9827 13.6503C71.4613 12.0038 71.7102 10.1468 71.8251 8.61519C71.9399 7.06446 71.9591 5.85833 71.9591 5.64774ZM73.7587 12.5973C73.4141 12.5973 73.1269 12.8845 73.1269 13.2291C73.1269 13.5737 73.4141 13.8609 73.7587 13.8609H75.5009C76.1135 13.8609 76.5921 13.3631 76.5921 12.7505V9.32355H77.9514C78.296 9.32355 78.5832 9.03638 78.5832 8.69177C78.5832 8.34716 78.296 8.05999 77.9514 8.05999H76.6113V6.79643L77.7217 4.86279C77.7791 4.76707 77.7983 4.6522 77.7983 4.53733C77.7983 4.42246 77.7791 4.30759 77.7217 4.21187C77.6068 4.02042 77.3962 3.88641 77.1665 3.88641H73.4524C73.1078 3.88641 72.8206 4.17358 72.8206 4.51819C72.8206 4.8628 73.1078 5.14997 73.4524 5.14997H76.0752L75.4243 6.27951C75.3669 6.37524 75.3477 6.49011 75.3477 6.60498V8.04084H72.9738C72.6291 8.04084 72.342 8.32801 72.342 8.67262C72.342 9.01723 72.6291 9.30441 72.9738 9.30441H75.3477V12.559H73.7587V12.5973ZM45.9412 0.0765783C45.8455 0.0191437 45.7498 0 45.654 0C45.4243 0 45.2137 0.114867 45.0988 0.344605C44.6011 1.30185 43.4715 3.10146 41.5762 4.63305C41.423 4.76707 41.3464 4.93937 41.3464 5.13082C41.3464 5.26484 41.3847 5.418 41.4805 5.53287C41.6145 5.68602 41.7868 5.76261 41.9782 5.76261C42.1122 5.76261 42.2654 5.72431 42.3803 5.62859C42.8015 5.30313 43.1652 4.95852 43.5098 4.61391V9.36184C43.5098 9.70645 43.797 9.99362 44.1416 9.99362C44.4862 9.99362 44.7734 9.70645 44.7734 9.36184V3.17805C45.4626 2.29739 45.9221 1.51244 46.2284 0.957243C46.2858 0.861519 46.305 0.765795 46.305 0.67007C46.2667 0.421187 46.1518 0.191447 45.9412 0.0765783ZM57.7344 11.4295C57.6387 11.1806 57.3898 11.0274 57.1409 11.0274C57.0644 11.0274 56.9878 11.0466 56.9112 11.0657C56.6623 11.1615 56.5092 11.4103 56.5092 11.6592C56.5092 11.7358 56.5283 11.8124 56.5475 11.889L57.8876 15.335C57.9833 15.5839 58.2322 15.7371 58.4811 15.7371C58.5577 15.7371 58.6343 15.7179 58.7108 15.6988C58.9597 15.6031 59.1129 15.3542 59.1129 15.1053C59.1129 15.0287 59.0937 14.9521 59.0746 14.8756L57.7344 11.4295ZM78.1237 14.7415C68.915 14.7415 68.915 14.7415 68.8959 14.7415C67.5749 14.7415 66.79 14.3012 66.2922 13.88C65.9859 13.6311 65.7944 13.3631 65.6987 13.21V8.23229C65.6987 7.38992 65.0286 6.71985 64.1863 6.71985H62.8844C62.5398 6.71985 62.2526 7.00702 62.2526 7.35163C62.2526 7.69623 62.5398 7.98341 62.8844 7.98341H64.1288C64.3011 7.98341 64.4352 8.11742 64.4352 8.28972V12.7888C64.4352 13.1334 64.3203 13.5737 64.0523 13.9375C63.8034 14.3204 63.4205 14.6267 62.9227 14.799C62.6547 14.8947 62.4824 15.1436 62.4824 15.4116C62.4824 15.4691 62.4824 15.5456 62.5207 15.6031C62.6164 15.8711 62.8653 16.0434 63.1333 16.0434C63.1907 16.0434 63.2673 16.0243 63.3247 16.0051C64.1288 15.7562 64.7415 15.2393 65.1244 14.6458C65.1435 14.6075 65.1626 14.5884 65.1818 14.5501C65.2775 14.6458 65.3732 14.7415 65.4881 14.8373C66.1773 15.4308 67.2877 16.0051 68.8959 16.0051H68.915C68.9533 16.0051 68.9533 16.0051 78.1429 16.0051C78.4875 16.0051 78.7746 15.7179 78.7746 15.3733C78.7746 15.0287 78.4683 14.7415 78.1237 14.7415ZM44.1033 11.0274C43.7395 11.0274 43.4524 11.3146 43.4524 11.6784V11.6975C43.4524 11.7741 43.4524 12.2527 43.3375 12.8462C43.2226 13.4588 42.9929 14.1863 42.5909 14.7607C42.5143 14.8756 42.476 14.9904 42.476 15.1244C42.476 15.335 42.5717 15.5265 42.7632 15.6605C42.878 15.7371 42.9929 15.7754 43.1269 15.7754C43.3375 15.7754 43.529 15.6796 43.663 15.4882C44.2182 14.6841 44.467 13.8034 44.6011 13.0951C44.7351 12.3867 44.7351 11.8315 44.7351 11.7167C44.7351 11.6975 44.7351 11.6975 44.7351 11.6975C44.7542 11.2955 44.4671 11.0274 44.1033 11.0274ZM92.7504 10.5297C92.8844 10.6828 93.0759 10.7403 93.2482 10.7403C93.4205 10.7403 93.5736 10.6828 93.7076 10.568C93.8608 10.4339 93.9182 10.2425 93.9182 10.0702C93.9182 9.8979 93.8608 9.74473 93.7459 9.61072L91.2762 6.93044C91.1422 6.79642 90.9699 6.71985 90.7785 6.71985C90.587 6.71985 90.4147 6.79642 90.2807 6.93044L87.811 9.61072C87.6962 9.74473 87.6387 9.8979 87.6387 10.0702C87.6387 10.2616 87.7153 10.4339 87.8493 10.568C87.9833 10.6828 88.1365 10.7403 88.3088 10.7403C88.5002 10.7403 88.6725 10.6637 88.8066 10.5297L90.7785 8.38545L92.7504 10.5297ZM87.9259 0.842373C87.9259 0.59349 87.7727 0.344604 87.543 0.229735C87.4473 0.191445 87.3516 0.172303 87.275 0.172303C87.0261 0.172303 86.7772 0.325462 86.6623 0.5552C86.4709 0.976387 85.9923 1.89534 85.1882 3.00574C84.3841 4.11614 83.2546 5.39885 81.7613 6.60498C81.589 6.73899 81.5124 6.93044 81.5124 7.12189C81.5124 7.27505 81.5698 7.40906 81.6655 7.54308C81.7995 7.71538 81.991 7.79196 82.1824 7.79196C82.3356 7.79196 82.4696 7.73452 82.6036 7.6388C83.3694 7.02616 84.0586 6.37524 84.6521 5.74346V15.3925C84.6521 15.7562 84.9584 16.0625 85.3222 16.0625C85.6859 16.0625 85.9923 15.7562 85.9923 15.3925V4.19272C86.088 4.05871 86.1837 3.9247 86.2794 3.80983C87.141 2.62285 87.6579 1.64646 87.8876 1.12955C87.9068 1.03382 87.9259 0.938097 87.9259 0.842373ZM98.6853 3.75239H96.8283V0.842373C96.8283 0.47862 96.5219 0.172303 96.1582 0.172303C95.7944 0.172303 95.4881 0.47862 95.4881 0.842373V3.75239H87.6579C87.2941 3.75239 86.9878 4.05871 86.9878 4.42247C86.9878 4.78622 87.2941 5.09254 87.6579 5.09254H95.4881V12.8845C95.4881 13.4397 95.2584 13.9566 94.8946 14.3204C94.5309 14.6841 94.0331 14.9138 93.4588 14.9138C92.9036 14.9138 92.3867 14.6841 92.0229 14.3204C91.6591 13.9566 91.4294 13.4588 91.4294 12.8845V11.0083C91.4294 10.6445 91.1231 10.3382 90.7593 10.3382C90.3956 10.3382 90.0893 10.6445 90.0893 11.0083V12.8845C90.0893 14.7415 91.6017 16.2348 93.4396 16.2348C95.2967 16.2348 96.79 14.7224 96.79 12.8845V5.09254H98.647C99.0108 5.09254 99.3171 4.78622 99.3171 4.42247C99.3554 4.05871 99.0491 3.75239 98.6853 3.75239ZM55.5519 11.3146C55.3413 11.1232 55.0542 11.0274 54.7478 11.0274H50.3637C49.9999 11.0274 49.7127 11.3146 49.7127 11.6784C49.7127 11.7549 49.7319 11.8507 49.751 11.9272L50.4977 13.8226C50.5934 14.0715 50.8423 14.2246 51.0912 14.2246C51.1678 14.2246 51.2443 14.2055 51.3209 14.1863C51.5698 14.0906 51.723 13.8417 51.723 13.5929C51.723 13.5163 51.7038 13.4397 51.6847 13.3631L51.2826 12.3484H54.6138V14.5884C54.6138 14.7033 54.5181 14.7798 54.4224 14.7798H47.7025C47.5877 14.7798 47.5111 14.6841 47.5111 14.5884V10.6063C47.5111 10.2425 47.2239 9.95533 46.8602 9.95533C46.4964 9.95533 46.2092 10.2425 46.2092 10.6063V14.6267C46.2092 15.4116 46.8602 16.0625 47.6451 16.0625H54.4798C55.2839 16.0625 55.9157 15.4116 55.9157 14.6267V12.1761C55.9348 11.7932 55.7625 11.5061 55.5519 11.3146Z" fill="black"/>
<path d="M44.5818 26.7261H47.5684C47.8747 26.7261 48.1045 26.8601 48.1045 27.1856C48.1045 27.4919 47.8747 27.6259 47.5684 27.6259H44.0649C43.6629 27.6259 43.4714 27.3962 43.4714 27.0898V20.3317C43.4714 20.0445 43.6437 19.7957 44.0649 19.7957H47.5684C47.8747 19.7957 48.1045 19.9297 48.1045 20.2551C48.1045 20.5614 47.8747 20.6955 47.5684 20.6955H44.5818V23.2609H47.243C47.5493 23.2609 47.779 23.3949 47.779 23.7204C47.779 24.0267 47.5493 24.1798 47.243 24.1798H44.5818V26.7261V26.7261Z" fill="black"/>
<path d="M54.3266 27.2241C54.3266 27.5687 54.0203 27.7027 53.8097 27.7027C53.5799 27.7027 53.2927 27.5687 53.2927 27.2241V26.822H53.2736C52.795 27.4155 52.1823 27.7027 51.474 27.7027C49.5978 27.7027 48.564 26.2668 48.564 24.7161C48.564 23.1654 49.6169 21.7295 51.474 21.7295C52.2398 21.7295 52.7758 22.0167 53.2736 22.5144H53.2927V22.2081C53.2927 21.8635 53.5799 21.7295 53.8097 21.7295C54.0203 21.7295 54.3266 21.8635 54.3266 22.2081V27.2241ZM51.474 26.8603C52.8141 26.8603 53.2927 25.6925 53.2927 24.7161C53.2927 23.7206 52.8141 22.5719 51.474 22.5719C50.1338 22.5719 49.6552 23.7397 49.6552 24.7161C49.6552 25.6925 50.1338 26.8603 51.474 26.8603Z" fill="black"/>
<path d="M57.7726 21.7295C58.6724 21.7295 59.9743 22.1507 59.9743 22.7633C59.9743 22.9739 59.8211 23.1654 59.4765 23.1654C58.9979 23.1654 58.8256 22.5719 57.7726 22.5719C57.1408 22.5719 56.6239 22.8207 56.6239 23.2994C56.6239 24.314 60.1657 24.2183 60.1657 25.9031C60.1657 27.1283 58.9788 27.7027 57.7535 27.7027C56.3559 27.7027 55.2646 27.0901 55.2646 26.5923C55.2646 26.3243 55.4752 26.152 55.705 26.152C56.1836 26.152 56.5856 26.8603 57.7918 26.8603C58.5959 26.8603 59.0745 26.4583 59.0745 26.0754C59.0745 24.9267 55.5327 25.0033 55.5327 23.376C55.5327 22.2847 56.6814 21.7295 57.7726 21.7295Z" fill="black"/>
<path d="M60.8358 22.6676C60.7209 22.3421 60.6826 22.2464 60.6826 22.1315C60.6826 21.8827 60.9315 21.7295 61.1804 21.7295C61.4484 21.7295 61.659 21.8826 61.7356 22.0932L63.248 26.0945H63.2672L64.7605 22.0932C64.8371 21.8826 65.0094 21.7295 65.2774 21.7295C65.5263 21.7295 65.7752 21.9018 65.7752 22.1315C65.7752 22.2464 65.756 22.3421 65.622 22.6676L62.8651 29.6363C62.7694 29.8469 62.5971 30.0001 62.3291 30.0001C62.0802 30.0001 61.8313 29.8278 61.8313 29.598C61.8313 29.4832 61.8505 29.3874 61.9845 29.062L62.6737 27.4347L60.8358 22.6676Z" fill="black"/>
<path d="M71.2314 22.1121C71.3463 21.825 71.5186 21.7292 71.7866 21.7292C72.0546 21.7292 72.2269 21.825 72.3418 22.1121C72.7821 23.2225 74.2946 26.458 74.2946 26.458H74.3137L75.4816 20.2168C75.539 19.8913 75.7496 19.7573 76.0751 19.7573C76.3814 19.7573 76.5728 19.9488 76.5728 20.1977C76.5728 20.3125 75.1752 27.0707 75.1752 27.0707C75.0987 27.4153 74.9455 27.7024 74.3903 27.7024C73.9691 27.7024 73.7394 27.5876 73.5288 27.0707C73.1459 26.0943 71.8057 23.3183 71.8057 23.3183H71.7866C71.7866 23.3183 70.4465 26.1134 70.0636 27.0707C69.853 27.5876 69.6232 27.7024 69.202 27.7024C68.6468 27.7024 68.4937 27.4153 68.4171 27.0707C68.4171 27.0707 67.0195 20.3125 67.0195 20.1977C67.0195 19.9488 67.211 19.7573 67.5173 19.7573C67.8619 19.7573 68.0533 19.8913 68.1108 20.2168L69.2595 26.458H69.2786C69.2786 26.4389 70.7911 23.2225 71.2314 22.1121Z" fill="black"/>
<path d="M82.6034 27.2241C82.6034 27.5687 82.2971 27.7027 82.0865 27.7027C81.8568 27.7027 81.5696 27.5687 81.5696 27.2241V26.822H81.5505C81.0718 27.4155 80.4592 27.7027 79.7508 27.7027C77.8746 27.7027 76.8408 26.2668 76.8408 24.7161C76.8408 23.1654 77.8938 21.7295 79.7508 21.7295C80.5166 21.7295 81.0527 22.0167 81.5505 22.5144H81.5696V22.2081C81.5696 21.8635 81.8568 21.7295 82.0865 21.7295C82.2971 21.7295 82.6034 21.8635 82.6034 22.2081V27.2241ZM79.7508 26.8603C81.091 26.8603 81.5696 25.6925 81.5696 24.7161C81.5696 23.7206 81.091 22.5719 79.7508 22.5719C78.4107 22.5719 77.9321 23.7397 77.9321 24.7161C77.9321 25.6925 78.3916 26.8603 79.7508 26.8603Z" fill="black"/>
<path d="M85.035 27.1855C85.035 27.511 84.8244 27.7024 84.4798 27.7024C84.1351 27.7024 83.9246 27.511 83.9246 27.1855V20.2742C83.9246 19.9488 84.1351 19.7573 84.4798 19.7573C84.8244 19.7573 85.035 19.9488 85.035 20.2742V27.1855Z" fill="black"/>
<path d="M87.5811 27.1855C87.5811 27.511 87.3705 27.7024 87.0259 27.7024C86.6813 27.7024 86.4707 27.511 86.4707 27.1855V20.2742C86.4707 19.9488 86.6813 19.7573 87.0259 19.7573C87.3705 19.7573 87.5811 19.9488 87.5811 20.2742V27.1855Z" fill="black"/>
<path d="M89.6296 25.0797C89.6296 26.0752 90.3571 26.8602 91.5824 26.8602C93.0374 26.8602 93.4203 26.0752 93.8223 26.0752C94.0138 26.0752 94.2244 26.2284 94.2244 26.4964C94.2244 26.975 92.8651 27.6834 91.5824 27.6834C89.4573 27.6834 88.5383 26.2475 88.5383 24.6968C88.5383 23.1078 89.6679 21.7102 91.5058 21.7102C93.3054 21.7102 94.3584 23.1461 94.3584 24.5628C94.3584 24.9074 94.2244 25.0797 93.7457 25.0797H89.6296V25.0797ZM93.2671 24.3522C93.2671 23.5098 92.7119 22.5526 91.5058 22.5526C90.1465 22.5143 89.6679 23.4715 89.6296 24.3522H93.2671Z" fill="black"/>
<path d="M95.7561 20.2552C95.7561 19.9297 95.9667 19.7383 96.3113 19.7383C96.6559 19.7383 96.8665 19.9297 96.8665 20.2552V21.7102H97.4025C97.7663 21.7102 97.9577 21.8634 97.9577 22.1314C97.9577 22.3994 97.7663 22.5526 97.4025 22.5526H96.8665V27.1665C96.8665 27.492 96.6559 27.6834 96.3113 27.6834C95.9667 27.6834 95.7561 27.492 95.7561 27.1665V22.5526H95.22C94.8562 22.5526 94.6648 22.3994 94.6648 22.1314C94.6648 21.8634 94.8562 21.7102 95.22 21.7102H95.7561V20.2552Z" fill="black"/>
<path d="M17.9233 21.8335C19.0771 21.7694 20.1669 24.1541 20.6541 24.8464C20.9618 25.2951 21.2823 25.4361 21.6284 25.8592C21.7438 26.0003 22.3592 26.3336 22.5515 26.3464C23.7182 26.4618 24.449 26.0644 25.0003 25.9105C25.7439 25.7054 26.2054 25.6797 26.8336 25.3079C27.4234 24.949 31.9491 23.0515 32.1927 24.59C32.385 25.7695 29.1285 27.6926 28.4106 28.1798C28.2567 28.2823 28.2054 28.5516 28.0259 28.6285C27.2182 29.0003 24.0772 30.2311 23.0003 29.9618C21.3977 29.5644 19.3464 25.9362 18.6925 24.5515C18.5643 24.3336 17.0899 21.872 17.9233 21.8335Z" fill="#EC008C"/>
<path d="M25.1926 23.0258C24.7823 22.7951 24.6285 22.2823 24.8592 21.8592C25.8336 20.1027 26.4105 18.1027 26.449 15.9617C26.449 15.8719 26.449 15.795 26.449 15.7053C26.449 13.2181 25.731 10.8975 24.4874 8.93596C23.2438 6.9744 21.4746 5.37182 19.372 4.33335C18.9489 4.12822 18.7694 3.6154 18.9874 3.19231C19.1925 2.76923 19.7053 2.58974 20.1284 2.8077C22.5131 3.98719 24.5259 5.79491 25.9362 8.0257C27.3464 10.2565 28.167 12.8975 28.167 15.7181C28.167 15.8206 28.167 15.9104 28.167 16.013C28.1157 18.4361 27.4746 20.7181 26.3593 22.7053C26.2054 22.9874 25.9105 23.1412 25.6157 23.1412C25.4746 23.1412 25.3208 23.1028 25.1926 23.0258Z" fill="#EC008C"/>
<path d="M36.0388 13.3592C35.1029 9.7053 33.1285 6.43604 30.4105 3.92319C30.0644 3.60268 29.5259 3.62832 29.2054 3.97447C28.8849 4.32063 28.9105 4.8591 29.2567 5.17961C30.6798 6.50014 31.8721 8.03862 32.7952 9.74376C29.949 7.44887 26.372 6.14116 22.6284 6.14116C21.1412 6.14116 19.6412 6.34629 18.1412 6.78219C14.2309 7.91041 11.0642 10.3848 9.02572 13.5515C8.76931 13.9489 8.88469 14.4746 9.28213 14.731C9.42316 14.8207 9.58982 14.872 9.74367 14.872C10.0257 14.872 10.295 14.731 10.4616 14.4746C12.295 11.6412 15.1155 9.42325 18.6156 8.42324C19.9489 8.03862 21.3079 7.85913 22.6284 7.85913C26.5131 7.85913 30.2182 9.43607 32.8978 12.1412C32.8208 12.1412 32.7567 12.1412 32.6798 12.1412C31.5644 12.1412 30.6541 12.4361 30.0131 12.7182C29.3721 13.013 29.0003 13.3079 28.9618 13.3335C28.59 13.6284 28.5387 14.1669 28.8336 14.5387C29.0003 14.7438 29.2567 14.8592 29.5003 14.8592C29.6926 14.8592 29.8721 14.7951 30.0387 14.6669C30.0387 14.6669 30.0387 14.6669 30.0516 14.6541C30.1157 14.6028 30.4105 14.3977 30.8721 14.2053C31.3336 14.013 31.9618 13.8335 32.6926 13.8335C33.3337 13.8335 34.0516 13.9618 34.8593 14.3464C35.1542 14.4874 35.5132 14.4489 35.7696 14.231C36.0132 14.013 36.1286 13.6797 36.0388 13.3592Z" fill="#2DA343"/>
<path d="M19.5644 17.7181C21.2 17.7181 22.5259 16.3921 22.5259 14.7565C22.5259 13.1209 21.2 11.7949 19.5644 11.7949C17.9287 11.7949 16.6028 13.1209 16.6028 14.7565C16.6028 16.3921 17.9287 17.7181 19.5644 17.7181Z" fill="#EC008C"/>
<path d="M1.71797 17.3848C1.74361 17.8592 1.37181 18.2566 0.897445 18.2694C0.423081 18.2951 0.0256401 17.9233 0.0128195 17.4489C-1.17396e-06 17.2053 0 16.9745 0 16.7309C0 12.8078 1.53848 9.21804 4.06414 6.56417C6.32058 4.19235 9.37189 2.55131 12.8078 2.10258C11.7309 1.83335 10.6027 1.70515 9.46163 1.70515C8.91035 1.70515 8.34624 1.74361 7.78213 1.80771C7.30776 1.85899 6.88468 1.52566 6.8334 1.06411C6.78212 0.58975 7.11545 0.166668 7.577 0.115385C8.20521 0.0384611 8.83342 0 9.46163 0C12.4488 0 15.3078 0.846162 17.7694 2.33336C18.0386 2.4872 18.1925 2.78208 18.1797 3.08978C18.1668 3.39747 17.9874 3.67952 17.7181 3.82055C15.9489 4.73082 14.3976 6.00006 13.1668 7.53854C13.0001 7.74367 12.7565 7.85905 12.5001 7.85905C12.3078 7.85905 12.1155 7.79495 11.9617 7.66674C11.5899 7.37187 11.5386 6.8334 11.8335 6.4616C12.6796 5.42313 13.6412 4.48722 14.7181 3.69235C14.5258 3.69235 14.3335 3.69234 14.1412 3.70516C10.6411 3.87183 7.53854 5.39749 5.29492 7.75649C3.06413 10.1155 1.70515 13.2822 1.70515 16.7438C1.70515 16.9617 1.70514 17.1668 1.71797 17.3848Z" fill="#0082C4"/>
<path d="M10.1669 17.0644C9.73095 16.8849 9.23094 17.09 9.05145 17.5131C8.28221 19.3336 7.8976 21.2695 7.8976 23.1926C7.8976 23.2567 7.8976 23.3208 7.8976 23.3849C6.74374 20.8721 6.05142 17.8336 6.05142 14.5515C6.05142 14.4618 6.05142 14.372 6.05142 14.2951C6.08989 10.9105 6.88476 7.69248 8.14119 5.12835C8.34632 4.70527 8.16683 4.19244 7.74375 3.98731C7.32067 3.78218 6.80784 3.94885 6.60271 4.38475C5.2309 7.19247 4.38474 10.654 4.33346 14.2823C4.33346 14.372 4.33346 14.4746 4.33346 14.5643C4.33346 18.3721 5.19244 21.8977 6.66682 24.7824C4.89757 23.5644 3.43601 21.9106 2.46164 19.949C2.24369 19.5259 1.73087 19.3593 1.30779 19.5644C0.884706 19.7823 0.718037 20.2952 0.923167 20.7183C2.60267 24.0516 5.50014 26.6286 9.00017 27.8722C9.08992 27.9106 9.19248 27.9234 9.28223 27.9234C9.50018 27.9234 9.70531 27.8465 9.87197 27.6927C10.1027 27.4747 10.1925 27.1414 10.1027 26.8337C9.75659 25.6542 9.5771 24.4234 9.5771 23.1926C9.5771 21.4875 9.91044 19.7823 10.5899 18.1798C10.8079 17.7439 10.6028 17.2439 10.1669 17.0644Z" fill="#FAAB54"/>
</svg>
