<svg width="53" height="50" viewBox="0 0 53 50" fill="none" xmlns="http://www.w3.org/2000/svg">
<path d="M22.2967 25.0001H33.9851C33.9851 31.4553 28.7519 36.6884 22.2967 36.6884C15.8415 36.6884 10.6084 31.4553 10.6084 25.0001C10.6084 18.5449 15.8415 13.3118 22.2967 13.3118C25.5243 13.3118 28.4464 14.6202 30.5617 16.7351" stroke="white" stroke-width="3.89611" stroke-linecap="round" stroke-linejoin="round"/>
<path d="M42.2042 15.4429C41.9803 14.9773 41.5806 14.6197 41.0931 14.4487C40.6055 14.2778 40.07 14.3075 39.6044 14.5314C39.1387 14.7553 38.7811 15.155 38.6102 15.6425C38.4392 16.1301 38.469 16.6656 38.6928 17.1313L42.2042 15.4429ZM38.6928 32.8686C38.4689 33.3343 38.4391 33.8698 38.61 34.3574C38.781 34.845 39.1386 35.2447 39.6042 35.4686C40.0698 35.6925 40.6054 35.7223 41.093 35.5514C41.5805 35.3805 41.9803 35.0229 42.2042 34.5573L38.6928 32.8686ZM33.4136 10.6114C33.6157 10.7699 33.8472 10.8868 34.0947 10.9554C34.3422 11.0241 34.6009 11.0431 34.8557 11.0114C35.1106 10.9797 35.3567 10.898 35.5799 10.7708C35.803 10.6437 35.9988 10.4736 36.156 10.2705C36.3132 10.0674 36.4287 9.83517 36.4958 9.58725C36.5629 9.33933 36.5803 9.08059 36.547 8.82591C36.5138 8.57124 36.4305 8.32565 36.3019 8.10329C36.1734 7.88093 36.0021 7.68619 35.798 7.53027L33.4136 10.6114ZM35.798 42.4699C36.203 42.1525 36.4659 41.6877 36.5294 41.1771C36.5929 40.6665 36.4518 40.1515 36.1369 39.7445C35.8219 39.3376 35.3588 39.0718 34.8486 39.0051C34.3384 38.9385 33.8225 39.0764 33.4136 39.3888L35.798 42.4699ZM22.2967 43.1819C12.2551 43.1819 4.11486 35.0417 4.11486 25.0001H0.21875C0.21875 37.1933 10.1035 47.078 22.2967 47.078V43.1819ZM4.11486 25.0001C4.11486 14.9585 12.2551 6.81825 22.2967 6.81825V2.92214C10.1035 2.92214 0.21875 12.8069 0.21875 25.0001H4.11486ZM38.6928 17.1313C39.8367 19.5095 40.4786 22.1774 40.4786 25.0001H44.3747C44.3747 21.5806 43.5958 18.3371 42.2042 15.4429L38.6928 17.1313ZM40.4786 25.0001C40.4786 27.8228 39.8367 30.49 38.6928 32.8686L42.2042 34.5573C43.5958 31.6631 44.3747 28.4196 44.3747 25.0001H40.4786ZM22.2967 6.81825C26.486 6.81825 30.3396 8.23286 33.4136 10.6114L35.798 7.53027C31.9347 4.53659 27.1842 2.9152 22.2967 2.92214V6.81825ZM33.4136 39.3888C30.3396 41.7673 26.486 43.1819 22.2967 43.1819V47.078C27.1842 47.085 31.9347 45.4636 35.798 42.4699L33.4136 39.3888Z" fill="white"/>
<path d="M47.475 12.9141C49.2334 16.5712 50.2188 20.6706 50.2188 24.9998C50.2188 29.329 49.2334 33.4284 47.475 37.0852" stroke="white" stroke-width="3.89611" stroke-linecap="round" stroke-linejoin="round"/>
</svg>
