<svg width="30" height="30" viewBox="0 0 30 30" fill="none" xmlns="http://www.w3.org/2000/svg">
<path d="M29.4025 15.3421C29.4037 14.32 29.3173 13.2996 29.1441 12.2922H14.9988V18.0691H23.1006C22.9348 18.9918 22.5839 19.8713 22.0691 20.6547C21.5542 21.4381 20.886 22.1091 20.1049 22.6273V26.3772H24.9401C27.7713 23.7669 29.4025 19.9066 29.4025 15.3421Z" fill="white"/>
<path d="M14.9988 30C19.0466 30 22.4548 28.6709 24.9402 26.3793L20.1049 22.6294C18.7591 23.5419 17.0258 24.0627 14.9988 24.0627C11.0864 24.0627 7.76572 21.4253 6.57826 17.8712H1.59717V21.7357C2.8456 24.2199 4.75994 26.3083 7.12645 27.7676C9.49297 29.227 12.2185 29.9999 14.9988 30V30Z" fill="white"/>
<path d="M6.57827 17.8712C5.9505 16.0089 5.9505 13.9921 6.57827 12.1297V8.26526H1.59718C0.546957 10.3551 0 12.6616 0 15.0005C0 17.3393 0.546957 19.6458 1.59718 21.7357L6.57827 17.8712Z" fill="white"/>
<path d="M14.9988 5.93829C17.1379 5.90334 19.2048 6.71155 20.7528 8.18822L25.0339 3.90711C22.3192 1.35735 18.7229 -0.0425125 14.9988 0.000984108C12.2185 0.00111082 9.49297 0.773989 7.12645 2.23333C4.75994 3.69268 2.8456 5.78105 1.59717 8.2653L6.57826 12.1298C7.76572 8.5757 11.0864 5.93829 14.9988 5.93829Z" fill="white"/>
</svg>
