<svg width="30" height="24" viewBox="0 0 30 24" fill="none" xmlns="http://www.w3.org/2000/svg">
<path d="M29.9984 18.4464C29.9984 21.0135 27.908 23.1039 25.3409 23.1039H0V4.65748C0 2.09039 2.09039 0 4.65748 0H29.9984V18.4464Z" fill="white"/>
<path d="M21.7466 13.7156H23.6719C23.7269 13.7156 23.8553 13.6973 23.9103 13.6973C24.2771 13.624 24.5888 13.2939 24.5888 12.8355C24.5888 12.3955 24.2771 12.0654 23.9103 11.9737C23.8553 11.9553 23.7453 11.9553 23.672 11.9553H21.7467V13.7156H21.7466Z" fill="url(#paint0_linear_4950_178844)"/>
<path d="M23.452 1.55859C21.6184 1.55859 20.1147 3.04398 20.1147 4.89591V8.36154H24.8273C24.9373 8.36154 25.0656 8.36154 25.1573 8.37982C26.2208 8.4349 27.0093 8.98494 27.0093 9.93833C27.0093 10.6902 26.4775 11.332 25.4874 11.4604V11.497C26.5692 11.5703 27.3944 12.1754 27.3944 13.1105C27.3944 14.1191 26.4775 14.7792 25.2673 14.7792H20.0964V21.5637H24.9923C26.8259 21.5637 28.3296 20.0785 28.3296 18.2264V1.55859H23.452V1.55859Z" fill="url(#paint1_linear_4950_178844)"/>
<path d="M24.3504 10.1585C24.3504 9.71834 24.0386 9.42492 23.6719 9.36984C23.6353 9.36984 23.5436 9.35156 23.4886 9.35156H21.7466V10.9651H23.4886C23.5437 10.9651 23.6536 10.9651 23.672 10.9469C24.0388 10.8918 24.3505 10.5985 24.3505 10.1584L24.3504 10.1585Z" fill="url(#paint2_linear_4950_178844)"/>
<path d="M5.0055 1.55859C3.17185 1.55859 1.66818 3.04398 1.66818 4.89591V13.1291C2.6034 13.5873 3.57519 13.8808 4.54709 13.8808C5.70226 13.8808 6.32566 13.184 6.32566 12.2305V8.34314H9.18617V12.2121C9.18617 13.7157 8.25106 14.9443 5.07886 14.9443C3.15357 14.9443 1.6499 14.5225 1.6499 14.5225V21.5453H6.54573C8.37938 21.5453 9.88305 20.0601 9.88305 18.208V1.55883H5.00538L5.0055 1.55859Z" fill="url(#paint3_linear_4950_178844)"/>
<path d="M14.2289 1.55859C12.3953 1.55859 10.8916 3.04398 10.8916 4.89591V9.25997C11.7352 8.54481 13.2021 8.0864 15.5675 8.19643C16.8327 8.25151 18.1895 8.59989 18.1895 8.59989V10.0118C17.511 9.66342 16.7044 9.3516 15.6591 9.27825C13.8621 9.14994 12.7803 10.0301 12.7803 11.5703C12.7803 13.1289 13.8621 14.0091 15.6591 13.8624C16.7044 13.789 17.5112 13.459 18.1895 13.1289V14.5409C18.1895 14.5409 16.851 14.8892 15.5675 14.9443C13.2021 15.0542 11.7352 14.5958 10.8917 13.8808V21.582H15.7875C17.6212 21.582 19.1247 20.0968 19.1247 18.2447V1.55883H14.2289V1.55859Z" fill="url(#paint4_linear_4950_178844)"/>
<defs>
<linearGradient id="paint0_linear_4950_178844" x1="20.1115" y1="12.8377" x2="28.3517" y2="12.8377" gradientUnits="userSpaceOnUse">
<stop stop-color="#007940"/>
<stop offset="0.2285" stop-color="#00873F"/>
<stop offset="0.7433" stop-color="#40A737"/>
<stop offset="1" stop-color="#5CB531"/>
</linearGradient>
<linearGradient id="paint1_linear_4950_178844" x1="20.1115" y1="11.5532" x2="28.3521" y2="11.5532" gradientUnits="userSpaceOnUse">
<stop stop-color="#007940"/>
<stop offset="0.2285" stop-color="#00873F"/>
<stop offset="0.7433" stop-color="#40A737"/>
<stop offset="1" stop-color="#5CB531"/>
</linearGradient>
<linearGradient id="paint2_linear_4950_178844" x1="20.1113" y1="10.1561" x2="28.3519" y2="10.1561" gradientUnits="userSpaceOnUse">
<stop stop-color="#007940"/>
<stop offset="0.2285" stop-color="#00873F"/>
<stop offset="0.7433" stop-color="#40A737"/>
<stop offset="1" stop-color="#5CB531"/>
</linearGradient>
<linearGradient id="paint3_linear_4950_178844" x1="1.66439" y1="11.5532" x2="10.0319" y2="11.5532" gradientUnits="userSpaceOnUse">
<stop stop-color="#1F286F"/>
<stop offset="0.4751" stop-color="#004E94"/>
<stop offset="0.8261" stop-color="#0066B1"/>
<stop offset="1" stop-color="#006FBC"/>
</linearGradient>
<linearGradient id="paint4_linear_4950_178844" x1="10.8442" y1="11.5531" x2="18.971" y2="11.5531" gradientUnits="userSpaceOnUse">
<stop stop-color="#6C2C2F"/>
<stop offset="0.1735" stop-color="#882730"/>
<stop offset="0.5731" stop-color="#BE1833"/>
<stop offset="0.8585" stop-color="#DC0436"/>
<stop offset="1" stop-color="#E60039"/>
</linearGradient>
</defs>
</svg>
