<svg width="75" height="28" viewBox="0 0 75 28" fill="none" xmlns="http://www.w3.org/2000/svg">
<path d="M17.9757 0H5.42344C2.4332 0 0 2.42913 0 5.41462V17.9463C0 20.9317 2.4332 23.3609 5.42344 23.3609H17.9757C20.966 23.3609 23.3992 20.9317 23.3992 17.9463V5.41462C23.3992 2.42913 20.966 0 17.9757 0Z" fill="#C9191D"/>
<path d="M8.10656 4.38793C8.36513 4.68126 8.32609 4.91975 8.17069 5.27399C8.01521 5.62831 7.43199 6.63357 6.43876 7.51212C5.43641 8.39876 4.52211 8.88478 4.14009 9.04599C3.75806 9.20729 3.52644 9.16326 3.26787 8.86993L2.95572 8.51586C2.69723 8.22253 2.6685 7.82578 2.89167 7.6298C2.89167 7.6298 4.40812 6.64226 5.07002 6.06176C5.73191 5.48135 6.92219 3.8578 6.92219 3.8578C7.14536 3.66174 7.53592 3.74054 7.79441 4.03386L8.10656 4.38793ZM8.09479 8.60814L7.778 8.24893C7.51563 7.9513 7.11754 7.87352 6.88787 8.07514C6.88787 8.07514 5.66117 9.73927 4.98077 10.3355C4.30079 10.932 2.74471 11.9492 2.74471 11.9492C2.51512 12.1509 2.54199 12.5554 2.80436 12.8529L3.12082 13.2122C3.38311 13.5098 3.61971 13.5531 4.0112 13.3859C4.2184 13.2974 4.58488 13.1074 5.03155 12.8198V18.9473C5.03155 19.3139 5.30677 19.6111 5.64638 19.6111H6.1844C6.52401 19.6111 6.79923 19.3139 6.79923 18.9473V11.3762C7.54951 10.5974 8.01824 9.81747 8.15445 9.51149C8.3156 9.14924 8.35683 8.90569 8.09479 8.60814Z" fill="white"/>
<path d="M20.1454 9.76381H14.1322C14.1194 9.76381 14.1087 9.77005 14.0962 9.77081C14.0837 9.77005 14.0734 9.76381 14.0609 9.76381H12.8507C12.6295 9.76381 12.45 9.58487 12.45 9.36376V8.52511C12.45 8.30434 12.6295 8.12507 12.8507 8.12507H14.0609C14.4281 8.12507 14.7258 7.82896 14.7258 7.46342V7.02229C14.7258 6.65675 14.4281 6.3603 14.0609 6.3603H12.8507C12.6295 6.3603 12.45 6.18145 12.45 5.96059V4.52576C12.45 4.15912 12.1534 3.86157 11.7872 3.86157H11.3454C10.9792 3.86157 10.6823 4.15912 10.6823 4.52576V5.96059C10.6823 6.18145 10.5032 6.3603 10.2819 6.3603H9.01662C8.64938 6.3603 8.35135 6.65675 8.35135 7.02229V7.46342C8.35135 7.82896 8.64938 8.12507 9.01662 8.12507H10.2819C10.5032 8.12507 10.6823 8.30434 10.6823 8.52511V9.36376C10.6823 9.58487 10.5032 9.76381 10.2819 9.76381H9.01662C8.64938 9.76381 8.35135 10.0603 8.35135 10.4254V10.867C8.35135 11.2321 8.64938 11.5286 9.01662 11.5286H10.2819C10.5032 11.5286 10.6823 11.7075 10.6823 11.9286V12.6843C10.6823 12.905 10.5032 13.0843 10.2819 13.0843H9.01662C8.64938 13.0843 8.35135 13.3804 8.35135 13.746V14.1871C8.35135 14.5526 8.64938 14.8491 9.01662 14.8491H10.2819C10.5032 14.8491 10.6823 15.0279 10.6823 15.2488V16.7203C10.6823 16.91 10.5499 17.0727 10.3644 17.112C9.25576 17.3459 8.14567 17.566 8.14567 17.566C7.77691 17.6593 7.55577 18.0421 7.65185 18.4212L7.76812 18.8789C7.8642 19.258 8.08973 19.3928 8.61 19.3961C9.13027 19.3998 9.8574 19.315 11.5173 18.8903C13.1623 18.4696 14.19 17.7651 14.5856 17.4962C14.9808 17.2277 15.175 17.0201 15.079 16.641L14.9627 16.1837C14.8667 15.8046 14.4899 15.5727 14.1212 15.666C14.1212 15.666 13.6385 15.9063 13.0159 16.1862C12.751 16.3056 12.45 16.1121 12.45 15.8219V15.2488C12.45 15.0279 12.6295 14.8491 12.8507 14.8491H14.0609C14.4281 14.8491 14.7258 14.5526 14.7258 14.1871V13.746C14.7258 13.3804 14.4281 13.0843 14.0609 13.0843H12.8507C12.6295 13.0843 12.45 12.905 12.45 12.6843V11.9286C12.45 11.7075 12.6295 11.5286 12.8507 11.5286H14.0609C14.0734 11.5286 14.0837 11.5223 14.0962 11.5216C14.1087 11.5223 14.1194 11.5286 14.1322 11.5286H15.6284C15.8539 11.5286 16.0368 11.7111 16.0368 11.936V18.9472C16.0368 19.3139 16.312 19.6111 16.6513 19.6111H17.1896C17.5292 19.6111 17.8045 19.3139 17.8045 18.9472V11.936C17.8045 11.7111 17.987 11.5286 18.2125 11.5286H20.1454C20.5126 11.5286 20.8107 11.2321 20.8107 10.867V10.4254C20.8107 10.0603 20.5126 9.76381 20.1454 9.76381Z" fill="white"/>
<path d="M16.9234 6.18609C16.5046 6.18609 16.1651 5.84712 16.1651 5.42902C16.1651 5.01092 16.5046 4.67195 16.9234 4.67195C17.3422 4.67195 17.6817 5.01092 17.6817 5.42902C17.6817 5.84712 17.3422 6.18609 16.9234 6.18609ZM17.0186 3.76447C16.9861 3.7627 16.9555 3.76911 16.9234 3.76919C16.8913 3.76911 16.8607 3.7627 16.8282 3.76447C15.8344 3.81838 15.1845 4.74872 15.3509 5.77777C15.5144 6.78869 16.7105 8.89099 16.7105 8.89099C16.752 8.98177 16.838 9.02521 16.9234 9.02378C17.0088 9.02521 17.0948 8.98177 17.1364 8.89099C17.1364 8.89099 18.3325 6.78869 18.4959 5.77777C18.6624 4.74872 18.0125 3.81838 17.0186 3.76447Z" fill="white"/>
<path d="M38.1021 16.6876L38.1125 7.71195C38.1129 7.31612 37.8764 7.0794 37.4798 7.07847L28.5636 7.06826C28.36 7.06826 28.2012 7.1258 28.0913 7.23885C27.9854 7.34793 27.9313 7.50307 27.9309 7.70014L27.9205 16.6757C27.9201 17.0892 28.139 17.3083 28.5535 17.3092L37.4695 17.3195C37.6656 17.3195 37.8203 17.266 37.9301 17.1603C38.0438 17.0508 38.1017 16.8917 38.1021 16.6876ZM38.2232 5.18817C39.4586 5.18952 40.0852 5.81667 40.0839 7.05004L40.0719 17.354C40.0701 18.6062 39.4423 19.2128 38.2069 19.2115L27.8099 19.1995C26.5552 19.1982 25.9475 18.5899 25.9493 17.3376L25.9613 7.03376C25.9627 5.80039 26.5715 5.17484 27.8262 5.17619L38.2232 5.18817ZM28.22 27.6569C27.966 27.8825 27.5819 27.9953 27.0678 27.9953C26.492 27.9953 25.9893 27.742 25.5487 27.2227C25.4245 27.0873 25.3679 26.9635 25.3679 26.8566C25.3679 26.7662 25.3961 26.6814 25.4638 26.6084C25.5261 26.5408 25.6051 26.5009 25.7013 26.5009C25.8143 26.5009 25.9102 26.5517 26.0005 26.6421C26.2378 26.9069 26.39 27.0705 26.4694 27.1325C26.667 27.2961 26.8761 27.3753 27.0904 27.3753C27.3899 27.3753 27.599 27.3076 27.723 27.1723C27.8417 27.037 27.9037 26.8224 27.9037 26.5182V24.4259C27.9037 24.3246 27.9379 24.2402 28.0056 24.1725C28.0735 24.1101 28.1581 24.0765 28.2652 24.0765C28.3671 24.0765 28.4517 24.1101 28.5195 24.1725C28.5872 24.2402 28.6212 24.3246 28.6212 24.4259V26.5408C28.6212 27.0479 28.4856 27.4204 28.22 27.6569ZM34.1072 27.8941C34.0281 27.9617 33.9377 27.9953 33.8473 27.9953C33.7231 27.9953 33.6214 27.9392 33.5478 27.8322L32.232 25.9937L31.5824 26.4789V27.646C31.5824 27.7472 31.5487 27.8322 31.4864 27.8993C31.4188 27.9617 31.3338 27.9953 31.2379 27.9953C31.125 27.9953 31.0347 27.9617 30.9669 27.8993C30.8991 27.8322 30.8652 27.7529 30.8652 27.646V24.4259C30.8652 24.3246 30.8936 24.2455 30.9614 24.1783C31.0234 24.1101 31.1024 24.0765 31.2041 24.0765C31.3113 24.0765 31.4016 24.1101 31.4752 24.1668C31.543 24.2344 31.5824 24.3189 31.5824 24.4259V25.5987L33.5142 24.1442C33.5821 24.0933 33.6553 24.0649 33.7286 24.0649C33.8248 24.0649 33.9093 24.1048 33.9829 24.1726C34.0507 24.2455 34.0901 24.3304 34.0901 24.4317C34.0901 24.5445 34.0394 24.6346 33.949 24.7023L32.8024 25.571L34.1468 27.4539C34.192 27.5217 34.2201 27.5893 34.2201 27.6518C34.2201 27.7472 34.1804 27.8264 34.1072 27.8941ZM38.1619 25.1083C37.9586 24.8377 37.6762 24.7023 37.3034 24.7023C36.9307 24.7023 36.6425 24.8377 36.4391 25.1083C36.2529 25.3563 36.1626 25.6669 36.1626 26.0498C36.1626 26.4281 36.2529 26.7323 36.445 26.9693C36.6483 27.2285 36.9362 27.358 37.3034 27.358C37.6762 27.358 37.9586 27.2285 38.1562 26.9693C38.3314 26.738 38.4218 26.4338 38.4218 26.0498C38.4218 25.6669 38.3314 25.3512 38.1619 25.1083ZM38.6815 27.443C38.3652 27.8091 37.9077 27.9953 37.3092 27.9953C36.7219 27.9953 36.2642 27.8091 35.9311 27.4372C35.6091 27.082 35.4509 26.6084 35.4509 26.0163C35.4509 25.4413 35.6091 24.9787 35.9367 24.6236C36.27 24.257 36.7219 24.0707 37.2922 24.0707C37.8514 24.0707 38.3032 24.257 38.6421 24.6294C38.9639 24.9903 39.1276 25.4524 39.1276 26.0163C39.1276 26.6252 38.9752 27.0989 38.6815 27.443ZM43.2949 24.9672C43.1988 24.8602 43.0746 24.804 42.9277 24.804H41.6232C41.4876 24.804 41.4199 24.8884 41.4199 25.0573V25.9376H42.9277C43.0746 25.9376 43.1988 25.8809 43.2949 25.7681C43.3854 25.6554 43.4361 25.5258 43.4361 25.368C43.4361 25.2158 43.3854 25.0805 43.2949 24.9672ZM43.803 26.225C43.5771 26.4615 43.2949 26.5801 42.9616 26.5801H41.4199V27.6738C41.4199 27.8883 41.2953 27.9953 41.0584 27.9953C40.8209 27.9953 40.7025 27.8825 40.7025 27.6685V24.7306C40.7025 24.556 40.7646 24.4148 40.8944 24.3136C41.0074 24.2234 41.1598 24.1726 41.3405 24.1726H43.0123C43.3401 24.1726 43.6112 24.2906 43.8256 24.5161C44.0347 24.7532 44.1419 25.0354 44.1419 25.3622C44.1419 25.7004 44.0289 25.9879 43.803 26.225ZM47.0142 25.0522L46.3081 26.5293H47.7256L47.0142 25.0522ZM48.9287 27.8883C48.8383 27.9617 48.737 28.0011 48.6234 28.0011C48.4769 28.0011 48.3755 27.9277 48.3072 27.7813L48.0193 27.1665H46.0144L45.7265 27.7813C45.6587 27.9277 45.5457 28.0011 45.3986 28.0011C45.2856 28.0011 45.1895 27.9617 45.1049 27.8883C45.0145 27.8091 44.9752 27.7247 44.9752 27.6119C44.9752 27.5558 44.9867 27.4934 45.0203 27.4315L46.6244 24.2853C46.6921 24.1442 46.8219 24.0707 47.0142 24.0707C47.206 24.0707 47.3363 24.1442 47.4093 24.2853L49.0081 27.4315C49.0417 27.4934 49.0585 27.5558 49.0585 27.6119C49.0585 27.7247 49.0133 27.8091 48.9287 27.8883ZM53.4169 24.6178L51.971 26.5009V27.6402C51.971 27.7472 51.9374 27.8322 51.8691 27.8993C51.8019 27.9617 51.7225 27.9953 51.6211 27.9953C51.5135 27.9953 51.4289 27.9617 51.361 27.8993C51.2932 27.8322 51.2597 27.7472 51.2597 27.6402V26.5009L49.8137 24.6178C49.757 24.5502 49.7345 24.4825 49.7345 24.4091C49.7345 24.3136 49.7738 24.2344 49.859 24.1668C49.9378 24.1048 50.0339 24.0708 50.1353 24.0708C50.2372 24.0708 50.3218 24.1216 50.3954 24.2176L51.6154 25.8924L52.8296 24.2176C52.8973 24.1216 52.9877 24.0708 53.0891 24.0708C53.191 24.0708 53.2814 24.1048 53.366 24.1668C53.4452 24.2344 53.4904 24.3136 53.4904 24.4091C53.4904 24.4825 53.4621 24.5502 53.4169 24.6178ZM49.6497 14.8912C49.7202 14.8566 49.7732 14.8392 49.8433 14.8037C50.9699 14.2431 51.9559 13.5768 52.8365 12.8054C53.5055 12.2091 53.893 11.7001 53.9639 11.3137C53.9642 11.2258 53.8584 11.1734 53.6828 11.1729L45.4498 11.1634C45.4678 11.1984 45.4848 11.2334 45.5023 11.2334C45.6783 11.427 45.8361 11.6028 45.9591 11.7435C46.8728 12.8683 48.0149 13.871 49.4036 14.7508C49.474 14.8033 49.5621 14.8562 49.6497 14.8912ZM73.7778 6.59512C73.9363 6.70049 74.0235 6.96361 74.0231 7.36762C74.0227 7.68373 73.9697 7.91193 73.8818 8.01764C73.7232 8.22803 73.4767 8.31543 73.1251 8.3151L71.7527 8.31349L71.7419 17.5865C71.7415 18.008 71.5476 18.359 71.1956 18.6398C70.8786 18.8675 70.3684 19.025 69.6647 19.0946C68.961 19.0938 55.8483 19.8961 49.5947 16.9285C48.257 17.4891 46.7087 18.0669 44.9133 18.6445C43.9102 18.942 43.1364 19.0986 42.6083 19.1335C42.3268 19.1331 42.081 19.0274 41.905 18.8516C41.7294 18.6755 41.6414 18.4823 41.6418 18.307C41.6422 17.903 41.7481 17.6219 41.9947 17.4819C44.2292 16.8876 46.095 16.3099 47.6079 15.7496C46.6238 15.0463 45.5872 14.1143 44.498 12.9184C44.0412 12.4436 43.8126 12.0747 43.7955 11.7936C43.7959 11.53 43.8664 11.3197 44.0249 11.1618L43.2336 11.1611C42.899 11.1606 42.6879 11.0899 42.6 10.9141C42.4598 10.7733 42.4072 10.5626 42.4076 10.2816C42.408 10.0179 42.4785 9.80721 42.637 9.64979C42.7776 9.52696 42.9715 9.45694 43.2356 9.45736L48.6007 9.46335L48.6031 7.12744L42.6923 7.1207C42.3933 7.12027 42.165 7.04992 42.0069 6.9092C41.866 6.78628 41.7964 6.55775 41.7967 6.22367C41.797 5.9252 41.8676 5.69734 42.0085 5.53941C42.1666 5.39912 42.3956 5.32918 42.6947 5.32952L48.6055 5.33635L48.6071 3.82585C48.6075 3.57968 48.6955 3.35198 48.8895 3.14125C49.0125 3.01833 49.259 2.94839 49.6462 2.94873C49.9806 2.94915 50.2263 3.01993 50.367 3.14276C50.5605 3.31891 50.6656 3.54711 50.6652 3.82821L50.6636 5.33871L56.8559 5.34588C57.1726 5.34622 57.4007 5.41658 57.5413 5.55738C57.6824 5.66309 57.752 5.89137 57.7516 6.2424C57.7512 6.5235 57.6811 6.71677 57.5752 6.85673C57.4167 7.04992 57.1702 7.1374 56.8535 7.13698L50.6613 7.12989L50.6588 9.46563L54.441 9.4701C55.0742 9.50587 55.496 9.57665 55.725 9.6999C56.1112 9.94641 56.3044 10.3153 56.304 10.8422C56.2506 11.3868 55.9507 12.0536 55.3868 12.8432C54.5943 13.8436 53.5024 14.7907 52.1116 15.6673C51.9706 15.7548 51.8301 15.8248 51.7071 15.8948C53.818 16.7123 56.9813 17.0797 60.0617 17.2259L60.0686 11.5666C60.0332 11.6019 60.0156 11.6369 59.9977 11.6719C59.7863 11.9526 59.5226 12.0751 59.1705 12.0747C58.8364 12.0743 58.5548 11.9864 58.3442 11.7932C58.1507 11.6345 58.0635 11.4063 58.0638 11.1252C58.0638 10.9495 58.1518 10.7567 58.2932 10.546C59.615 8.40452 60.6201 6.1577 61.3087 3.78771C61.4322 3.47203 61.6437 3.27884 61.9252 3.2267C62.2419 3.22713 62.5234 3.29748 62.7341 3.40285C62.9626 3.52653 63.0857 3.77219 63.0853 4.12364C63.0499 4.38685 63.0145 4.63294 62.961 4.86114C62.7316 5.73867 62.4139 6.66944 61.9906 7.65226L61.9791 17.291C65.8833 17.3737 69.2425 17.1621 69.5437 17.1622C69.7197 17.1627 69.8076 17.0748 69.8076 16.899L69.8176 8.31105L64.1884 8.30472C63.9073 8.3043 63.6962 8.23394 63.5381 8.09322C63.3621 7.95242 63.2924 7.70676 63.2928 7.35531C63.2931 6.96884 63.3637 6.70563 63.5397 6.56525C63.6627 6.45997 63.8742 6.39029 64.1909 6.39071L69.8201 6.39704L69.8224 4.06122C69.8232 3.55192 70.1582 3.27116 70.7913 3.237C71.4246 3.23784 71.7408 3.51936 71.7575 4.06358L71.7551 6.39948L73.1274 6.40109C73.4086 6.40151 73.6372 6.47144 73.7778 6.59512ZM66.2744 14.7175C66.1693 14.6646 66.0988 14.5592 66.0284 14.4185C65.6253 13.5927 64.9578 12.3451 64.045 10.6931C63.9575 10.5523 63.9049 10.4119 63.9049 10.2362C63.9053 10.1309 63.9228 10.0254 63.9753 9.88515C64.0637 9.72689 64.2047 9.60448 64.3983 9.49911C64.5393 9.44698 64.6974 9.41163 64.8734 9.41196C65.1199 9.4474 65.3481 9.5353 65.5592 9.67644C65.928 10.0632 66.4373 10.8716 67.0693 12.1368C67.4202 12.9096 67.6129 13.5426 67.6122 14.0694C67.6122 14.3151 67.5413 14.4729 67.4182 14.5784C67.2418 14.7541 67.0132 14.8236 66.7142 14.8232C66.5031 14.8229 66.3625 14.7879 66.2744 14.7175Z" fill="#333333"/>
</svg>
