<svg width="50" height="54" viewBox="0 0 50 54" fill="none" xmlns="http://www.w3.org/2000/svg">
<path d="M17.1917 0.017334H14.6101C14.425 0.0172762 14.2473 0.0895589 14.1148 0.218753C13.9823 0.347947 13.9055 0.523816 13.9009 0.708823V16.1308C13.9064 16.3152 13.9836 16.4902 14.116 16.6186C14.2484 16.747 14.4256 16.8189 14.6101 16.8188H17.1917C17.3761 16.8189 17.5534 16.747 17.6858 16.6186C17.8182 16.4902 17.8953 16.3152 17.9009 16.1308V0.708823C17.8962 0.523816 17.8195 0.347947 17.687 0.218753C17.5545 0.0895589 17.3767 0.0172762 17.1917 0.017334Z" fill="white"/>
<path d="M10.9539 12.9747H4.00354V0.708701C3.99893 0.523694 3.92215 0.347825 3.78967 0.218631C3.65715 0.0894368 3.47939 0.0171541 3.29433 0.0172119H0.70922C0.524156 0.0171541 0.346398 0.0894368 0.213892 0.218631C0.0813854 0.347825 0.0046266 0.523694 0 0.708701V16.1307C0.00553401 16.3151 0.0826914 16.49 0.215101 16.6185C0.347511 16.7469 0.524752 16.8187 0.70922 16.8186H10.9574C11.1419 16.8187 11.3191 16.7469 11.4516 16.6185C11.584 16.49 11.6611 16.3151 11.6667 16.1307V13.6484C11.6575 13.4659 11.5783 13.294 11.4455 13.1685C11.3127 13.043 11.1366 12.9735 10.9539 12.9747Z" fill="white"/>
<path d="M49.2907 3.87563C49.4758 3.8757 49.6535 3.80339 49.7861 3.67421C49.9183 3.54503 49.9953 3.36914 49.9999 3.18414V0.701865C49.9953 0.516858 49.9183 0.340989 49.7861 0.211794C49.6535 0.0826001 49.4758 0.0103182 49.2907 0.010376H39.0496C38.8644 0.0103182 38.6868 0.0826001 38.5542 0.211794C38.4215 0.340989 38.3449 0.516858 38.3403 0.701865V16.131C38.346 16.3154 38.423 16.4903 38.5552 16.6188C38.6878 16.7472 38.8652 16.819 39.0496 16.8189H49.2907C49.4751 16.819 49.6524 16.7472 49.7847 16.6188C49.9173 16.4903 49.9942 16.3154 49.9999 16.131V13.6487C49.9907 13.4668 49.912 13.2954 49.7801 13.17C49.6481 13.0445 49.4726 12.9747 49.2907 12.9749H42.3474V10.3473H49.2907C49.4751 10.3473 49.6524 10.2756 49.7847 10.1471C49.9173 10.0187 49.9942 9.84372 49.9999 9.65932V7.17705C49.9953 6.99205 49.9183 6.81616 49.7861 6.68698C49.6535 6.55779 49.4758 6.48549 49.2907 6.48556H42.3474V3.87563H49.2907Z" fill="white"/>
<path d="M34.8935 0.0173656H32.3119C32.1269 0.0173075 31.9491 0.0895904 31.8166 0.218784C31.6841 0.347977 31.6073 0.52385 31.6027 0.708857V9.63085L24.8651 0.357793C24.7734 0.23642 24.6525 0.140245 24.5136 0.0782376C24.3747 0.0162298 24.2224 -0.0095917 24.0708 0.00318156C24.0307 -0.000365599 23.9903 -0.000365599 23.9502 0.00318156H21.3474C21.1623 0.00312341 20.9846 0.0754057 20.8521 0.2046C20.7196 0.333793 20.6428 0.509665 20.6382 0.694672V16.1309C20.6437 16.3152 20.7209 16.4902 20.8533 16.6186C20.9857 16.7471 21.1629 16.8189 21.3474 16.8188H23.929C24.1134 16.8189 24.2907 16.7471 24.4231 16.6186C24.5555 16.4902 24.6327 16.3152 24.6382 16.1309V6.80816L31.6843 16.4784C31.751 16.5741 31.8368 16.655 31.9363 16.716C32.0357 16.777 32.1467 16.8168 32.2623 16.833H34.8935C35.078 16.8331 35.2552 16.7612 35.3876 16.6328C35.5201 16.5044 35.5971 16.3294 35.6027 16.145V0.708857C35.5981 0.52385 35.5212 0.347977 35.3888 0.218784C35.2563 0.0895904 35.0786 0.0173075 34.8935 0.0173656Z" fill="white"/>
<path fill-rule="evenodd" clip-rule="evenodd" d="M2.69151 23.7159H47.2589C48.5554 23.7159 49.6064 24.767 49.6064 26.0635V51.0528C49.6064 52.3493 48.5554 53.4004 47.2589 53.4004H2.69151C1.39501 53.4004 0.343994 52.3493 0.343994 51.0528V26.0635C0.343994 24.767 1.39501 23.7159 2.69151 23.7159ZM13.1027 39.996C15.9183 39.996 18.1027 37.9003 18.1027 35.294C18.1027 32.6841 15.9289 30.5883 13.092 30.599H8.18777C8.0633 30.597 7.94309 30.6445 7.85341 30.7308C7.76373 30.8172 7.71185 30.9355 7.70905 31.06V43.8506C7.71185 43.9751 7.76373 44.0935 7.85341 44.1797C7.94309 44.2662 8.0633 44.3138 8.18777 44.3116H10.4927C10.5547 44.313 10.6163 44.3024 10.674 44.2801C10.7318 44.2574 10.7846 44.224 10.8294 44.1811C10.8742 44.1382 10.9101 44.0872 10.9351 44.0304C10.96 43.9737 10.9736 43.9127 10.975 43.8506V39.996H13.1027ZM14.7159 34.6185C14.8014 34.8332 14.8425 35.063 14.8367 35.294C14.8465 35.5272 14.8083 35.7599 14.7245 35.9779C14.6407 36.1957 14.5131 36.3939 14.3495 36.5606C14.186 36.7272 13.99 36.8584 13.7737 36.946C13.5574 37.0336 13.3254 37.0762 13.092 37.0705H10.9644V33.5422H13.092C13.3231 33.5374 13.5527 33.5794 13.7671 33.6658C13.9814 33.7522 14.176 33.8812 14.3391 34.0449C14.5022 34.2087 14.6304 34.4038 14.7159 34.6185ZM30.2303 34.7514V44.067C30.2299 44.0996 30.223 44.1319 30.2101 44.1617C30.1972 44.1918 30.1785 44.2188 30.1551 44.2415C30.1317 44.2642 30.1041 44.2823 30.0738 44.2943C30.0435 44.306 30.0111 44.312 29.9785 44.3117H27.4218C27.3892 44.312 27.3568 44.306 27.3266 44.2943C27.2962 44.2823 27.2686 44.2642 27.2452 44.2415C27.2219 44.2188 27.2032 44.1918 27.1903 44.1617C27.1774 44.1319 27.1705 44.0996 27.17 44.067V43.3897C26.4963 44.1344 25.4963 44.5847 24.1275 44.5847C21.4537 44.5847 19.248 42.3294 19.248 39.411C19.248 36.4925 21.4537 34.2514 24.1275 34.2514C25.4963 34.2514 26.4963 34.7018 27.17 35.4464V34.7514C27.1705 34.7188 27.1774 34.6866 27.1903 34.6567C27.2032 34.6267 27.2219 34.5996 27.2452 34.5769C27.2686 34.5542 27.2962 34.5363 27.3266 34.5242C27.3568 34.5122 27.3892 34.5062 27.4218 34.5067H29.9785C30.0111 34.5062 30.0435 34.5122 30.0738 34.5242C30.1041 34.5363 30.1317 34.5542 30.1551 34.5769C30.1785 34.5996 30.1972 34.6267 30.2101 34.6567C30.223 34.6866 30.2299 34.7188 30.2303 34.7514ZM27.17 39.411C27.17 37.9393 26.1488 37.0174 24.741 37.0174C23.3332 37.0174 22.3119 37.9393 22.3119 39.411C22.3119 40.8826 23.3296 41.8011 24.741 41.8011C26.1523 41.8011 27.17 40.8791 27.17 39.411ZM38.0709 40.4358L40.4184 34.762C40.4549 34.6895 40.5113 34.629 40.5811 34.5875C40.6506 34.5461 40.7308 34.5254 40.812 34.528H43.4184C43.4588 34.527 43.4985 34.5359 43.5347 34.5541C43.5705 34.5722 43.6013 34.599 43.6248 34.632C43.6478 34.665 43.6623 34.7031 43.6673 34.7431C43.6723 34.7831 43.667 34.8237 43.6524 34.8613L38.2198 48.0103C38.1865 48.0865 38.1315 48.1518 38.0613 48.1971C37.9914 48.2425 37.9095 48.2663 37.8262 48.2656H35.2198C35.1795 48.2666 35.1396 48.2574 35.1036 48.2393C35.0676 48.2213 35.0367 48.1947 35.0135 48.1617C34.9904 48.1287 34.9757 48.0904 34.9709 48.0503C34.966 48.0103 34.9711 47.9698 34.9857 47.9323L36.4645 44.3578L32.4113 34.8648C32.3918 34.8264 32.3829 34.7834 32.3854 34.7403C32.3878 34.6973 32.4016 34.6556 32.4254 34.6196C32.4492 34.5836 32.482 34.5546 32.5206 34.5353C32.5593 34.5161 32.6023 34.5075 32.6453 34.5102H35.2482C35.3308 34.509 35.4119 34.5323 35.4815 34.5771C35.5506 34.6219 35.6052 34.6862 35.6382 34.762L38.0709 40.4358Z" fill="white"/>
</svg>
