<svg width="50" height="40" viewBox="0 0 50 40" fill="none" xmlns="http://www.w3.org/2000/svg">
<path d="M43.2251 8.62355L42.9167 8.33573C35.9858 1.69783 26.9606 2.44308 22.1961 3.47873C20.5428 3.82058 18.9252 4.31703 17.3648 4.96153C17.1659 5.04956 16.9957 5.19158 16.8735 5.37148C16.7513 5.55138 16.682 5.76194 16.6734 5.97926C16.6648 6.19658 16.7174 6.41194 16.8251 6.6009C16.9327 6.78986 17.0912 6.94484 17.2826 7.04824C18.0252 7.4517 18.4339 7.90143 18.493 8.38455C18.5983 9.24802 17.7451 10.3248 17.2671 10.7848C15.5369 12.0157 13.9347 13.4173 12.4847 14.9685C12.423 14.7603 12.351 14.5547 12.2765 14.3543C13.0552 13.8994 13.6771 13.0822 14.0754 11.9772C14.4737 10.8876 14.9157 8.54901 13.7491 7.5108C13.4981 7.28849 13.1843 7.14957 12.8511 7.1132C12.5178 7.07684 12.1815 7.14483 11.8885 7.30778C11.0554 7.73337 10.3303 8.34332 9.76837 9.09126C8.98713 8.68779 7.61996 8.20209 6.25536 8.75204C4.99359 9.25572 4.82654 10.2117 4.81371 10.5972C4.77516 11.8307 5.94184 12.9511 7.04431 13.4703C7.78985 13.8143 8.61813 13.9382 9.43171 13.8275C10.0442 14.7968 10.425 15.8942 10.5444 17.0346C10.5476 17.1147 10.5606 17.1941 10.583 17.271C9.99641 18.0651 9.46985 18.9017 9.00768 19.7741C8.61336 19.1156 8.04517 18.5785 7.36555 18.2219C6.75789 17.9194 6.07846 17.7908 5.4023 17.8502C4.72614 17.9096 4.07955 18.1548 3.53395 18.5585C2.08196 19.6096 0.912699 21.9481 1.58085 23.3872C1.68879 23.6211 2.30556 24.7621 3.96052 24.3458C5.74397 23.9089 6.79506 22.403 7.28588 21.4804C7.59991 22.3285 7.75077 23.2284 7.73048 24.1325C7.73385 24.2094 7.7433 24.2859 7.75875 24.3612C7.67781 25.616 7.78171 26.8758 8.06712 28.1003C8.65555 30.7408 10.2613 33.0428 12.5361 34.5069L12.572 34.5275C14.6536 35.6248 16.7609 35.9512 18.8296 35.5015C20.4048 35.1397 21.8649 34.3907 23.0775 33.3223C24.6814 34.5208 26.4717 35.4472 28.3765 36.0643C28.3945 36.0694 30.25 36.6887 33.5162 36.6605L33.6113 36.6707C33.6421 36.6733 33.673 36.6759 33.7038 36.6759L33.7501 36.6785C34.7603 36.6649 35.7667 36.5504 36.7542 36.3367C43.811 34.8025 48.8993 28.3085 48.8504 20.892C48.817 16.2482 46.6635 11.548 43.2251 8.62355ZM9.28263 11.1728C9.25052 11.3604 9.23504 11.5505 9.23639 11.7408L9.23382 11.9309L9.04365 11.9438C8.97684 11.9463 8.91259 11.9489 8.84835 11.9489C8.50886 11.9536 8.1726 11.8825 7.86408 11.7408C7.43618 11.5462 7.0693 11.2388 6.80276 10.8516L6.69225 10.664L6.88499 10.5664C6.91393 10.5487 6.94502 10.5349 6.9775 10.5252C7.77417 10.204 8.70442 10.6589 9.19015 10.9595L9.30836 11.0341L9.28263 11.1728ZM5.84425 20.0465C5.8391 20.0645 5.11182 22.0355 3.57763 22.4673L3.26155 22.5572L3.31807 22.2334C3.51315 21.3948 3.98475 20.6462 4.65695 20.1082C4.86934 19.9528 5.11178 19.8434 5.3688 19.7869C5.46005 19.7662 5.55291 19.7533 5.64636 19.7484L5.93161 19.733L5.84425 20.0465ZM10.8117 11.2062C11.0673 10.4351 11.5728 9.77131 12.2482 9.31996L12.5566 9.09896L12.5746 9.47673C12.6004 10.3324 12.4029 11.1799 12.0016 11.9361C11.8336 12.2781 11.5632 12.5593 11.228 12.7404L11.0507 12.8252L10.9608 12.6505C10.7221 12.2077 10.6685 11.6884 10.8117 11.2062ZM24.2186 28.568C23.9723 29.261 23.6109 29.9074 23.1495 30.48L22.9979 30.6779L22.8334 30.4877C21.8836 29.4446 21.2772 28.1349 21.0962 26.7358C21.0936 26.7229 20.9934 25.6667 21.5588 25.0397C21.7856 24.7864 22.0841 24.6081 22.4145 24.5283C22.9465 24.4126 23.4656 24.6491 23.9564 25.235C24.0592 25.3892 24.8148 26.6278 24.2186 28.568ZM36.2608 34.0649C35.4482 34.2414 34.6201 34.337 33.7887 34.3502L33.6859 34.3399C33.6499 34.3373 33.6087 34.3348 33.5702 34.3348H33.5573C30.7331 34.363 29.1218 33.8619 29.1064 33.8568C27.5276 33.3405 26.0364 32.5875 24.6837 31.6236C25.2778 30.8768 25.7393 30.0337 26.0482 29.1308C26.976 26.119 25.5626 24.1813 25.5086 24.1119L25.4675 24.0528C24.162 22.4673 22.7383 22.4981 22.0085 22.6574C21.2846 22.8212 20.6297 23.2065 20.1351 23.7599C18.9941 25.032 19.1714 26.7615 19.1971 26.9542C19.4126 28.7289 20.171 30.3938 21.3686 31.7212C20.4918 32.4575 19.4524 32.9746 18.3362 33.2297C16.8226 33.5587 15.255 33.3068 13.6874 32.4871C11.9845 31.3356 10.7843 29.5786 10.3312 27.5735C9.85875 25.5834 9.99574 23.4971 10.7244 21.5858C10.7989 21.3982 12.626 16.9472 18.6831 12.6325C18.719 12.6063 18.7534 12.578 18.7859 12.5477C19.0223 12.3344 21.0782 10.407 20.8007 8.10702C20.7281 7.49843 20.4948 6.92012 20.1248 6.43148C20.9523 6.16936 21.8132 5.94065 22.6921 5.75048C27.9577 4.6069 35.4642 4.41673 41.3157 10.019L41.6498 10.3376L41.6729 10.3582C41.6857 10.3659 41.696 10.3762 41.7011 10.3787C43.1996 11.6726 44.3969 13.2786 45.209 15.0841C46.0533 16.9115 46.5009 18.897 46.5222 20.9099C46.5659 27.2292 42.2511 32.762 36.2608 34.0649Z" fill="#5CB8B2"/>
<path d="M40.3623 15.3744C39.9768 14.2694 39.3086 13.943 38.8152 13.8634C38.4041 13.7966 37.5971 13.8377 36.8287 14.8399C36.5843 15.1655 36.3814 15.5203 36.2248 15.8961C35.5623 15.3509 34.776 14.9768 33.9351 14.8065C33.6223 14.7393 33.2975 14.7519 32.9908 14.8431C32.6841 14.9342 32.4053 15.101 32.1799 15.3282C31.6402 15.9141 31.522 16.9086 31.8715 17.9263C32.1542 18.7564 33.1693 20.7454 36.4818 21.4907C36.4616 22.1469 36.3807 22.7998 36.2402 23.4412C36.2053 23.6108 36.2084 23.786 36.2493 23.9543C36.2901 24.1225 36.3678 24.2797 36.4767 24.4143C36.5855 24.549 36.7229 24.6579 36.8789 24.7331C37.0348 24.8083 37.2055 24.8481 37.3787 24.8494C37.4609 24.8491 37.5427 24.8396 37.6228 24.8212C37.8413 24.7738 38.0416 24.6645 38.1997 24.5064C38.3579 24.3482 38.4671 24.148 38.5145 23.9294C38.7728 22.7784 38.8577 21.5952 38.7664 20.419C39.4731 19.81 41.2643 17.9494 40.3623 15.3744ZM38.2421 16.1454L38.4966 15.7368L38.6148 16.202C38.7 16.5737 38.6987 16.9601 38.6109 17.3312C38.5232 17.7024 38.3513 18.0484 38.1085 18.3426L37.8567 18.6741L37.7462 18.2758C37.5688 17.6359 37.9286 16.6465 38.2421 16.1454V16.1454ZM33.5985 16.9703L33.5522 16.6491L33.8631 16.7416C35.0127 17.1866 35.9517 18.0494 36.4921 19.1573L36.7054 19.5941L36.2428 19.4425C34.8705 18.9928 34.2101 18.2835 33.8965 17.767V17.7644C33.7459 17.5219 33.6446 17.2521 33.5985 16.9703V16.9703Z" fill="#5CB8B2"/>
</svg>
