<svg width="103" height="103" viewBox="0 0 103 103" fill="none" xmlns="http://www.w3.org/2000/svg">
<g clip-path="url(#clip0_2222_31558)">
<path d="M64.2757 89.5167C59.8334 91.1119 55.0075 92.0004 49.9998 92.0004C44.9921 92.0004 40.1661 91.1119 35.7238 89.5167C35.4815 89.4965 35.6027 89.4763 35.5623 89.4561C29.4844 87.235 24.0729 83.6407 19.6911 79.0773C12.4502 71.5254 7.99979 61.2879 7.99979 50.0004C7.99979 26.8034 26.7988 8.00037 49.9998 8.00037C73.2007 8.00037 91.9998 26.8034 91.9998 50.0004C91.9998 61.2879 87.3757 71.5254 80.3084 79.0773C80.1065 79.2792 79.9046 79.5013 79.7027 79.7032C75.3815 84.0042 70.1315 87.3965 64.2757 89.5167ZM45.9411 30.434V31.8273C44.8104 32.0696 43.5584 32.4129 42.7306 32.8571C39.7219 34.2302 37.0969 36.7744 36.4507 40.4696C36.0873 42.5292 36.2892 44.5282 37.1373 46.3254C37.9854 48.1023 39.2979 49.3542 40.6306 50.2629C42.9729 51.8581 46.0623 52.7869 48.4248 53.4936L48.869 53.6148C51.6959 54.4831 53.594 55.109 54.7854 55.9773C55.2902 56.3408 55.4719 56.6234 55.5325 56.8052C55.6132 56.9667 55.7344 57.3302 55.5931 58.1379C55.4719 58.8446 55.0882 59.4504 53.9777 59.9148C52.7459 60.4398 50.7469 60.7023 48.1623 60.2984C46.9507 60.0965 44.7902 59.3696 42.8719 58.7234C42.4277 58.5619 41.9834 58.4206 41.5796 58.2792C39.4594 57.5725 37.1777 58.7234 36.4709 60.8436C35.7642 62.9638 36.9152 65.2456 39.0354 65.7706C39.2777 66.0331 39.5806 66.134 39.9238 66.2552C41.3373 66.8004 44.0229 67.6484 45.9411 68.0927V69.385C45.9411 71.6263 47.7584 73.4436 49.8181 73.4436C52.2411 73.4436 54.0584 71.6263 54.0584 69.385V68.2744C55.1286 68.0725 56.1786 67.5879 57.1479 67.3456C60.3382 65.9927 62.8825 63.3677 63.5488 59.5311C63.9123 57.4311 63.7507 55.4119 62.9431 53.5744C62.1556 51.7571 60.8834 50.4244 59.5306 49.4552C57.0873 47.6581 53.8161 46.6888 51.3729 45.9417L51.0296 45.9013C48.344 45.0331 46.4056 44.4273 45.1738 43.5792C44.6488 43.2157 44.4873 42.9734 44.4469 42.8725C44.4065 42.7917 44.2854 42.5494 44.4065 41.8629C44.4873 41.459 44.7902 40.7927 46.0623 40.2273C47.1931 39.6417 49.3738 39.3186 51.8373 39.5206C52.7257 39.8436 55.4517 40.3686 56.2392 40.5706C58.3796 41.1561 60.6007 39.8638 61.1661 37.7032C61.7517 35.5629 60.4594 33.3417 58.2988 32.7763C57.4104 32.534 55.3911 32.1302 54.0584 31.8879V30.6157C54.0584 28.3744 52.2411 26.5571 49.9998 26.5571C47.7584 26.5571 45.9411 28.3744 45.9411 30.6157V30.434Z" fill="#96BE0B"/>
</g>
<path d="M0 0H100H0ZM102.5 51.25C102.5 79.5546 79.5546 102.5 51.25 102.5C22.9454 102.5 0 79.5546 0 51.25V50C0 76.2335 22.3858 97.5 50 97.5C76.2335 97.5 97.5 76.2335 97.5 50L102.5 51.25ZM0 100V0V100ZM51.25 0C79.5546 0 102.5 22.9454 102.5 51.25C102.5 79.5546 79.5546 102.5 51.25 102.5L50 97.5C76.2335 97.5 97.5 76.2335 97.5 50C97.5 22.3858 76.2335 0 50 0H51.25Z" fill="#FF9900"/>
<defs>
<clipPath id="clip0_2222_31558">
<rect width="84" height="84" fill="white" transform="translate(8 8)"/>
</clipPath>
</defs>
</svg>
