<svg width="50" height="50" viewBox="0 0 50 50" fill="none" xmlns="http://www.w3.org/2000/svg">
<path d="M32.322 8.01253C30.548 10.1117 27.7096 11.7675 24.8712 11.5309C24.5164 8.69256 25.906 5.67677 27.5322 3.81408C29.3062 1.65572 32.4107 0.118266 34.9238 0C35.2195 2.95665 34.0664 5.85417 32.322 8.01253ZM34.8942 12.0927C30.7845 11.8562 27.2661 14.4285 25.3147 14.4285C23.3337 14.4285 20.3475 12.211 17.0952 12.2701C12.8672 12.3292 8.93484 14.7241 6.77649 18.5382C2.34151 26.1664 5.62339 37.4608 9.91054 43.6697C12.0098 46.7447 14.5229 50.1152 17.8344 49.997C20.9684 49.8787 22.2102 47.9569 25.9947 47.9569C29.8088 47.9569 30.9028 49.997 34.2142 49.9378C37.6439 49.8787 39.8023 46.8629 41.9015 43.788C44.2964 40.2992 45.2721 36.899 45.3312 36.7216C45.2721 36.6625 38.7083 34.1493 38.6492 26.5803C38.5901 20.2531 43.8233 17.2373 44.0599 17.0599C41.1032 12.684 36.4908 12.211 34.8942 12.0927Z" fill="black"/>
</svg>
