<svg width="81" height="82" viewBox="0 0 81 82" fill="none" xmlns="http://www.w3.org/2000/svg">
<path d="M76.0474 7.96484C76.1294 8.14684 76.2104 8.32884 76.2844 8.51584C76.2104 8.32884 76.1294 8.14684 76.0474 7.96484Z" fill="#96BE0B"/>
<path d="M76.5283 9.19183C76.6003 9.40783 76.667 9.62617 76.7283 9.84683C76.6673 9.62483 76.6003 9.40783 76.5283 9.19183Z" fill="#96BE0B"/>
<path d="M76.8923 10.5068C76.9463 10.7518 76.9923 11.0018 77.0343 11.2538C76.9923 11.0018 76.9503 10.7518 76.8923 10.5068Z" fill="#96BE0B"/>
<path d="M74.8923 5.92783C74.9323 5.98583 74.9773 6.03883 75.0153 6.09683C74.9783 6.03883 74.9343 5.98583 74.8923 5.92783Z" fill="#96BE0B"/>
<path d="M77.1333 11.8938C77.1663 12.1718 77.1853 12.4548 77.2023 12.7378C77.1853 12.4578 77.1663 12.1718 77.1333 11.8938Z" fill="#96BE0B"/>
<path d="M75.4763 6.85083C75.5553 6.98783 75.6383 7.12283 75.7123 7.26283C75.6373 7.12283 75.5553 6.98783 75.4763 6.85083Z" fill="#96BE0B"/>
<path d="M77.2354 13.3448C77.2414 13.6698 77.2274 14.0018 77.2124 14.3348C77.2274 14.0018 77.2414 13.6708 77.2354 13.3448Z" fill="#96BE0B"/>
<path d="M77.1924 14.8478C77.1524 15.3578 77.0924 15.8738 76.9924 16.3958C77.0924 15.8728 77.1524 15.3578 77.1924 14.8478Z" fill="#96BE0B"/>
<path opacity="0.28" d="M75.1013 6.21083C75.0753 6.17183 75.0443 6.13583 75.0173 6.09683C75.0443 6.13483 75.0653 6.17783 75.0913 6.21683L75.1013 6.21083Z" fill="url(#paint0_linear_1715_3793)"/>
<path d="M65.2383 0.527824C64.7893 0.488824 64.3383 0.457825 63.8693 0.457825H27.6403C18.8523 0.457825 10.4403 7.60783 8.89333 16.3958L0.293325 65.1758C-0.203789 67.5088 -0.0671787 69.9324 0.688985 72.1947C1.44515 74.457 2.79327 76.4756 4.59331 78.0408C7.0774 80.0801 10.2059 81.1694 13.4193 81.1138H49.6493C51.9399 81.0873 54.187 80.4855 56.1843 79.3638C53.507 77.539 51.5893 74.7983 50.7923 71.6578C49.7923 67.6578 47.7553 67.3078 47.7553 67.3078H15.8553C15.5886 67.3168 15.3233 67.2644 15.0801 67.1545C14.8368 67.0447 14.6221 66.8804 14.4524 66.6743C14.2828 66.4682 14.1629 66.2259 14.1018 65.9661C14.0407 65.7063 14.0402 65.4359 14.1003 65.1758L14.1343 64.9758L22.7013 16.3918C22.8189 15.8066 23.1303 15.278 23.5851 14.8914C24.0399 14.5047 24.6117 14.2826 25.2083 14.2608H55.3323L66.4923 0.698822C66.0793 0.627822 65.6623 0.569824 65.2383 0.527824Z" fill="#96BE0B"/>
<path d="M74.1042 4.93384C74.3802 5.25484 74.6512 5.58083 74.8942 5.92783C74.6494 5.58218 74.3857 5.25034 74.1042 4.93384Z" fill="#96BE0B"/>
<path d="M77.2024 12.7378C77.1854 12.4548 77.1664 12.1718 77.1334 11.8938C77.1084 11.6778 77.0724 11.4658 77.0334 11.2528C76.9914 11.0018 76.9454 10.7528 76.8914 10.5068C76.8414 10.2841 76.7858 10.0641 76.7244 9.84681C76.6631 9.62948 76.5964 9.41114 76.5244 9.19181C76.4474 8.96381 76.3684 8.73682 76.2804 8.51582C76.2064 8.32882 76.1254 8.14682 76.0434 7.96482C75.9364 7.72782 75.8284 7.49182 75.7084 7.26482C75.6344 7.12482 75.5514 6.98981 75.4724 6.85281C75.3484 6.63781 75.2224 6.42481 75.0874 6.21881C75.0614 6.17981 75.0404 6.13682 75.0134 6.09882C74.9754 6.04082 74.9304 5.98782 74.8904 5.92982C74.6464 5.58282 74.3764 5.25681 74.1004 4.93581C73.516 4.27059 72.8646 3.66739 72.1564 3.13581C71.5717 2.68781 70.9487 2.29228 70.2944 1.95381L70.2794 1.94582C69.9054 1.75682 69.5174 1.58582 69.1194 1.43182L69.0654 1.41081C68.6694 1.25881 68.2617 1.12548 67.8424 1.01081L67.7944 0.99781C67.4944 0.91581 67.1784 0.853818 66.8654 0.789818C66.7374 0.763818 66.6154 0.727811 66.4854 0.704811C66.0754 0.632811 65.6614 0.571813 65.2344 0.533813C65.6584 0.575813 66.0754 0.633811 66.4854 0.704811L55.3264 14.2708H61.4314C61.6974 14.2641 61.9615 14.318 62.2036 14.4285C62.4457 14.539 62.6594 14.7031 62.8286 14.9085C62.9979 15.1138 63.1181 15.355 63.1803 15.6137C63.2424 15.8725 63.2449 16.142 63.1874 16.4018L57.3254 47.6578C62.6544 47.7578 66.8254 51.9308 69.6074 56.1018L76.9974 16.3918C77.0904 15.8698 77.1524 15.3538 77.1974 14.8438C77.2114 14.6708 77.2094 14.5018 77.2174 14.3308C77.2324 13.9978 77.2464 13.6658 77.2404 13.3408C77.2314 13.1398 77.2144 12.9398 77.2024 12.7378Z" fill="#96BE0B"/>
<path d="M73.9463 4.73584C74.0033 4.79884 74.0463 4.86984 74.1043 4.93584C74.0483 4.86984 74.0033 4.79884 73.9463 4.73584Z" fill="#96BE0B"/>
<path d="M66.8214 58.7478C59.8724 48.7628 50.1374 51.5478 50.1374 51.5478L40.4114 60.5648C40.4114 60.5648 51.0354 61.2098 53.4504 67.6948C57.5374 78.6638 69.4824 81.0478 69.4824 81.0478L80.8524 67.5968C80.8524 67.5968 71.9774 66.1578 66.8214 58.7478Z" fill="#FF9900"/>
<path d="M65.7704 63.6168C64.8774 62.6738 63.6285 62.5168 61.2425 63.8848L59.1644 61.6848C59.4465 61.4617 59.79 61.3299 60.1489 61.307C60.5079 61.2841 60.8653 61.3713 61.1735 61.5568L62.3954 60.4118C61.6634 59.8118 60.2414 59.4178 58.3954 60.8748L57.7074 60.1488L56.9484 60.8608L57.6244 61.5748C56.3384 62.9438 55.9874 64.6018 57.0174 65.6898C57.9514 66.6768 59.1054 66.6198 61.2714 65.4288L63.5714 67.8618C63.2487 68.1256 62.8529 68.284 62.4374 68.3159C62.0219 68.3477 61.6065 68.2513 61.2474 68.0398L60.0034 69.2048C61.1034 70.1048 62.7164 70.0248 64.3524 68.6878L65.2624 69.6498L66.0224 68.9378L65.1114 67.9758C66.5924 66.4178 66.9044 64.8158 65.7704 63.6168ZM58.1435 64.4168C57.6985 63.9468 57.6095 63.2368 58.3805 62.3758L60.3004 64.4058C59.1574 64.9718 58.6075 64.9068 58.1435 64.4158V64.4168ZM64.3524 67.1728L62.2204 64.9198C63.4854 64.2928 64.1004 64.3898 64.6074 64.9248C65.2034 65.5578 65.1224 66.3068 64.3524 67.1718V67.1728Z" fill="white"/>
<path opacity="0.28" fill-rule="evenodd" clip-rule="evenodd" d="M75.6012 7.07302C75.5826 7.0409 75.5637 7.00888 75.5449 6.97687L75.5447 6.97661L75.5438 6.97502C75.5199 6.93434 75.496 6.89366 75.4724 6.85281C75.3484 6.63781 75.2224 6.42481 75.0874 6.21881C75.0758 6.2013 75.0651 6.18297 75.0544 6.16466L75.0543 6.1644L75.0542 6.16428C75.0412 6.14195 75.0282 6.11963 75.0134 6.09882C74.9925 6.06686 74.9694 6.03642 74.9462 6.00583L74.9461 6.00558C74.9272 5.98073 74.9083 5.95577 74.8904 5.92982C74.6464 5.58282 74.3764 5.25681 74.1004 4.93581C73.516 4.27059 72.8646 3.66739 72.1564 3.13581C71.5717 2.68781 70.9487 2.29228 70.2944 1.95381L70.2794 1.94582C69.9054 1.75682 69.5174 1.58582 69.1194 1.43182L69.0654 1.41081C68.6694 1.25881 68.2617 1.12548 67.8424 1.01081L67.7944 0.99781C67.5248 0.924108 67.2422 0.866569 66.9605 0.809208L66.8654 0.789818C66.8099 0.778534 66.7554 0.765364 66.701 0.752192L66.7009 0.752169C66.6305 0.735133 66.5601 0.718094 66.4872 0.705119L66.4923 0.698822C66.0793 0.627822 65.6623 0.569824 65.2383 0.527824C64.7893 0.488824 64.3383 0.457825 63.8693 0.457825H27.6403C18.8523 0.457825 10.4403 7.60783 8.89333 16.3958L0.293325 65.1758C-0.203789 67.5088 -0.0671787 69.9324 0.688985 72.1947C1.44515 74.457 2.79327 76.4756 4.59331 78.0408C5.02275 78.3934 5.47144 78.7175 5.9365 79.0123C8.40241 75.4559 11.3396 71.3522 14.6854 66.9081C14.6008 66.8379 14.5227 66.7597 14.4524 66.6743C14.2828 66.4682 14.1629 66.2259 14.1018 65.9661C14.0407 65.7063 14.0402 65.4359 14.1003 65.1758L14.1343 64.9758L22.7013 16.3918C22.8189 15.8066 23.1303 15.278 23.5851 14.8914C24.0399 14.5047 24.6117 14.2826 25.2083 14.2608H55.3323L61.333 6.96861L55.3264 14.2708H61.4314C61.6974 14.2641 61.9615 14.318 62.2036 14.4285C62.4457 14.539 62.6594 14.7031 62.8286 14.9085C62.9979 15.1138 63.1181 15.355 63.1803 15.6137C63.1921 15.6632 63.2018 15.713 63.2093 15.763C65.0152 14.3601 66.8412 13.0005 68.6853 11.6918C70.9365 10.0703 73.2433 8.52984 75.6012 7.07302Z" fill="url(#paint1_linear_1715_3793)"/>
<defs>
<linearGradient id="paint0_linear_1715_3793" x1="17.3997" y1="23.1313" x2="-45.4733" y2="-5.64125" gradientUnits="userSpaceOnUse">
<stop stop-color="white"/>
<stop offset="1" stop-color="#22798C"/>
</linearGradient>
<linearGradient id="paint1_linear_1715_3793" x1="59.1382" y1="55.6018" x2="10.9797" y2="7.69094" gradientUnits="userSpaceOnUse">
<stop stop-color="white"/>
<stop offset="1" stop-color="#96BE0B"/>
</linearGradient>
</defs>
</svg>
