<svg width="101" height="100" viewBox="0 0 101 100" fill="none" xmlns="http://www.w3.org/2000/svg">
<path d="M38.0001 45.8327C42.6025 45.8327 46.3334 42.1017 46.3334 37.4993C46.3334 32.897 42.6025 29.166 38.0001 29.166C33.3977 29.166 29.6667 32.897 29.6667 37.4993C29.6667 42.1017 33.3977 45.8327 38.0001 45.8327Z" stroke="#BDBDBD" stroke-width="6.25"/>
<path d="M54.6667 62.4993C54.6667 67.1035 54.6667 70.8327 38 70.8327C21.3334 70.8327 21.3334 67.1035 21.3334 62.4993C21.3334 57.8952 28.7917 54.166 38 54.166C47.2084 54.166 54.6667 57.8952 54.6667 62.4993Z" stroke="#BDBDBD" stroke-width="6.25"/>
<path d="M8.83337 49.9993C8.83337 34.2868 8.83337 26.4285 13.7167 21.5493C18.6 16.6702 26.4542 16.666 42.1667 16.666H58.8334C74.5459 16.666 82.4042 16.666 87.2834 21.5493C92.1625 26.4327 92.1667 34.2868 92.1667 49.9993C92.1667 65.7118 92.1667 73.5702 87.2834 78.4493C82.4 83.3285 74.5459 83.3327 58.8334 83.3327H42.1667C26.4542 83.3327 18.5959 83.3327 13.7167 78.4493C8.83754 73.566 8.83337 65.7118 8.83337 49.9993Z" stroke="#BDBDBD" stroke-width="6.25"/>
<path d="M79.6667 50H63M79.6667 37.5H58.8334M79.6667 62.5H67.1667" stroke="#BDBDBD" stroke-width="6.25" stroke-linecap="round"/>
<rect x="10" y="2.87868" width="123" height="9" rx="4.5" transform="rotate(45 10 2.87868)" fill="#BDBDBD" stroke="white" stroke-width="3"/>
</svg>
