<svg width="24" height="22" viewBox="0 0 24 22" fill="none" xmlns="http://www.w3.org/2000/svg">
<g clip-path="url(#clip0_4950_176824)">
<path d="M23.1075 8.09013C22.0411 8.45949 21.275 9.47421 21.275 10.6665C21.275 11.8589 22.0413 12.8737 23.1078 13.243C23.181 13.2688 23.2366 13.3086 23.2653 13.3402C23.2696 13.345 23.2728 13.3489 23.275 13.3519V15.9998C23.275 17.0703 22.4038 17.9415 21.3333 17.9415H2.66667C1.59624 17.9415 0.725 17.0703 0.725 15.9998V13.3519C0.727214 13.3489 0.730354 13.345 0.73471 13.3402C0.76344 13.3085 0.819166 13.2686 0.892606 13.2428C1.95893 12.8734 2.725 11.8588 2.725 10.6665C2.725 9.4741 1.95873 8.4593 0.892187 8.09002C0.818954 8.06423 0.763385 8.02444 0.73471 7.99278C0.730354 7.98797 0.727214 7.9841 0.725 7.98114V5.33317C0.725 4.26274 1.59624 3.3915 2.66667 3.3915H21.3333C22.4038 3.3915 23.275 4.26274 23.275 5.33317V7.98114M23.1075 8.09013C23.108 8.08996 23.1085 8.0898 23.1089 8.08964L23.3458 8.77484L23.1067 8.09041C23.107 8.09032 23.1072 8.09022 23.1075 8.09013ZM23.1075 8.09013C23.1809 8.06434 23.2366 8.02448 23.2653 7.99278C23.2696 7.98797 23.2728 7.9841 23.275 7.98114M23.275 7.98114V7.99984C23.275 7.98269 23.2796 7.97387 23.2797 7.97391C23.2798 7.97392 23.2786 7.97631 23.275 7.98114ZM23.2797 13.3591C23.2797 13.3591 23.2795 13.3588 23.2791 13.358L23.2797 13.3591Z" stroke="#FF9900" stroke-width="1.45"/>
</g>
<defs>
<clipPath id="clip0_4950_176824">
<rect width="24" height="21.3333" fill="white"/>
</clipPath>
</defs>
</svg>
