<svg width="24" height="22" viewBox="0 0 24 22" fill="none" xmlns="http://www.w3.org/2000/svg">
<path d="M0.7 5.33329C0.7 4.24906 1.58243 3.36663 2.66667 3.36663H21.3333C22.4176 3.36663 23.3 4.24906 23.3 5.33329V7.98897C23.2974 7.99322 23.2925 8.0001 23.2838 8.00969C23.2519 8.04487 23.1925 8.08688 23.1157 8.11387C22.0591 8.47984 21.3 9.48528 21.3 10.6666C21.3 11.8481 22.0592 12.8536 23.116 13.2195C23.1927 13.2465 23.252 13.2884 23.2838 13.3236C23.2925 13.3331 23.2974 13.34 23.3 13.3443V16C23.3 17.0842 22.4176 17.9666 21.3333 17.9666H2.66667C1.58243 17.9666 0.7 17.0842 0.7 16V13.3443C0.702606 13.34 0.707498 13.3331 0.716182 13.3236C0.748035 13.2884 0.807398 13.2464 0.884172 13.2194C1.94085 12.8535 2.7 11.848 2.7 10.6666C2.7 9.48517 1.94076 8.47964 0.88398 8.11376C0.807298 8.08677 0.748008 8.04482 0.716182 8.00969C0.707498 8.0001 0.702606 7.99322 0.7 7.98897V5.33329ZM23.3026 7.98376C23.3027 7.98378 23.3025 7.98445 23.3018 7.98579C23.3022 7.98443 23.3026 7.98375 23.3026 7.98376ZM23.3026 13.3495C23.3026 13.3495 23.3022 13.3488 23.3018 13.3475C23.3025 13.3488 23.3027 13.3495 23.3026 13.3495ZM0.697373 13.3495C0.697306 13.3495 0.697515 13.3488 0.698205 13.3475C0.697785 13.3488 0.69744 13.3495 0.697373 13.3495ZM0.697373 7.98377C0.697441 7.98377 0.697786 7.98445 0.698205 7.98579C0.697515 7.98444 0.697305 7.98376 0.697373 7.98377Z" stroke="white" stroke-width="1.4"/>
</svg>
