<svg width="50" height="34" viewBox="0 0 50 34" fill="none" xmlns="http://www.w3.org/2000/svg">
<path d="M1.875 5.55558C1.875 3.52686 3.52687 1.875 5.55556 1.875H44.4444C46.4731 1.875 48.125 3.52686 48.125 5.55558V10.9067C48.0937 10.925 48.0579 10.9418 48.0204 10.9551C45.6566 11.7742 43.9583 14.0234 43.9583 16.6668C43.9583 19.3101 45.6566 21.5593 48.0204 22.3784C48.0579 22.3917 48.0937 22.4085 48.125 22.4268V27.7779C48.125 29.8066 46.4731 31.4585 44.4444 31.4585H5.55556C3.52687 31.4585 1.875 29.8066 1.875 27.7779V22.4268C1.90629 22.4085 1.94209 22.3916 1.9796 22.3784C4.34338 21.5592 6.04167 19.3101 6.04167 16.6668C6.04167 14.0234 4.34338 11.7743 1.97959 10.9551C1.94208 10.9419 1.90629 10.925 1.875 10.9067V5.55558Z" stroke="#96BE0B" stroke-width="3.75001"/>
</svg>
