<svg width="76" height="40" viewBox="0 0 76 40" fill="none" xmlns="http://www.w3.org/2000/svg">
<path d="M55.7247 3.05176e-05H20.5823C9.60027 3.05176e-05 0.61499 9.00003 0.61499 20C0.61499 31 9.60027 40 20.5823 40H55.7247C66.7067 40 75.6919 31 75.6919 20C75.6919 9.00003 66.7067 3.05176e-05 55.7247 3.05176e-05Z" fill="white"/>
<path d="M55.7247 1.62003C58.1906 1.62003 60.5867 2.11003 62.843 3.07003C65.0294 4.00003 66.9862 5.33003 68.6834 7.02003C70.3707 8.71003 71.6985 10.68 72.627 12.87C73.5854 15.13 74.0746 17.53 74.0746 20C74.0746 22.47 73.5854 24.87 72.627 27.13C71.6985 29.32 70.3707 31.28 68.6834 32.98C66.9962 34.67 65.0294 36 62.843 36.93C60.5867 37.89 58.1906 38.38 55.7247 38.38H20.5823C18.1163 38.38 15.7202 37.89 13.4639 36.93C11.2775 36 9.32072 34.67 7.6235 32.98C5.93627 31.29 4.60845 29.32 3.67997 27.13C2.72154 24.87 2.23234 22.47 2.23234 20C2.23234 17.53 2.72154 15.13 3.67997 12.87C4.60845 10.68 5.93627 8.72003 7.6235 7.02003C9.31074 5.33003 11.2775 4.00003 13.4639 3.07003C15.7202 2.11003 18.1163 1.62003 20.5823 1.62003H55.7247ZM55.7247 3.05176e-05H20.5823C9.60027 3.05176e-05 0.61499 9.00003 0.61499 20C0.61499 31 9.60027 40 20.5823 40H55.7247C66.7067 40 75.6919 31 75.6919 20C75.6919 9.00003 66.7067 3.05176e-05 55.7247 3.05176e-05Z" fill="#3C4043"/>
<path d="M36.4162 21.42V27.47H34.4994V12.53H39.5811C40.869 12.53 41.9672 12.96 42.8657 13.82C43.7842 14.68 44.2434 15.73 44.2434 16.97C44.2434 18.24 43.7842 19.29 42.8657 20.14C41.9771 20.99 40.8789 21.41 39.5811 21.41H36.4162V21.42ZM36.4162 14.37V19.58H39.621C40.3798 19.58 41.0187 19.32 41.5179 18.81C42.0271 18.3 42.2866 17.68 42.2866 16.98C42.2866 16.29 42.0271 15.68 41.5179 15.17C41.0187 14.64 40.3897 14.38 39.621 14.38H36.4162V14.37Z" fill="#3C4043"/>
<path d="M49.2552 16.91C50.6729 16.91 51.791 17.29 52.6097 18.05C53.4284 18.81 53.8377 19.85 53.8377 21.17V27.47H52.0107V26.05H51.9308C51.1421 27.22 50.0838 27.8 48.766 27.8C47.6378 27.8 46.6994 27.47 45.9406 26.8C45.1819 26.13 44.8025 25.3 44.8025 24.3C44.8025 23.24 45.2018 22.4 46.0005 21.78C46.7992 21.15 47.8675 20.84 49.1953 20.84C50.3334 20.84 51.2719 21.05 52.0007 21.47V21.03C52.0007 20.36 51.7411 19.8 51.212 19.33C50.6829 18.86 50.0639 18.63 49.355 18.63C48.2868 18.63 47.4382 19.08 46.8192 19.99L45.1319 18.93C46.0604 17.58 47.4382 16.91 49.2552 16.91ZM46.7792 24.33C46.7792 24.83 46.9889 25.25 47.4182 25.58C47.8375 25.91 48.3367 26.08 48.9058 26.08C49.7144 26.08 50.4333 25.78 51.0622 25.18C51.6912 24.58 52.0107 23.88 52.0107 23.07C51.4117 22.6 50.583 22.36 49.5148 22.36C48.736 22.36 48.0871 22.55 47.568 22.92C47.0388 23.31 46.7792 23.78 46.7792 24.33Z" fill="#3C4043"/>
<path d="M64.2607 17.24L57.8711 31.96H55.8944L58.2705 26.81L54.0574 17.24H56.144L59.179 24.58H59.2189L62.1741 17.24H64.2607Z" fill="#3C4043"/>
<path d="M28.7919 20.2C28.7919 19.574 28.7359 18.975 28.6321 18.399H20.5973V21.699L25.2247 21.7C25.037 22.798 24.433 23.734 23.5075 24.358V26.499H26.262C27.8704 25.008 28.7919 22.804 28.7919 20.2Z" fill="#4285F4"/>
<path d="M23.5085 24.358C22.7418 24.876 21.7544 25.179 20.5993 25.179C18.3679 25.179 16.475 23.673 15.7972 21.643H12.9558V23.851C14.3635 26.649 17.2568 28.569 20.5993 28.569C22.9095 28.569 24.8503 27.808 26.263 26.498L23.5085 24.358Z" fill="#34A853"/>
<path d="M15.5296 20.005C15.5296 19.435 15.6244 18.884 15.7971 18.366V16.158H12.9558C12.3737 17.315 12.0463 18.621 12.0463 20.005C12.0463 21.389 12.3747 22.695 12.9558 23.852L15.7971 21.644C15.6244 21.126 15.5296 20.575 15.5296 20.005Z" fill="#FABB05"/>
<path d="M20.5993 14.83C21.8602 14.83 22.9894 15.265 23.8809 16.115L26.3219 13.672C24.8393 12.289 22.9065 11.44 20.5993 11.44C17.2578 11.44 14.3635 13.36 12.9558 16.158L15.7972 18.366C16.475 16.336 18.3679 14.83 20.5993 14.83Z" fill="#E94235"/>
</svg>
