<svg width="92" height="56" viewBox="0 0 92 56" fill="none" xmlns="http://www.w3.org/2000/svg">
<path d="M49.1178 15.1031C49.1178 10.6223 47.153 9.19377 42.8669 9.19377H31.7898V14.1021H43.0011V15.7533H35.8428C32.8193 15.7533 31.4302 16.7593 31.4302 19.9277V22.8416C31.4302 26.0063 32.8193 27.0164 35.8428 27.0164H49.1178V15.1031ZM43.0011 22.1096H37.5438V19.8168H43.0011V22.1096Z" fill="white"/>
<path d="M27.4642 14.4356V9.19377H17.0333C12.7426 9.19377 10.78 10.6297 10.78 15.1031V21.1094C10.78 25.5876 12.7418 27.0164 17.0333 27.0164H27.4647V21.686H16.8578V14.4354L27.4642 14.4356Z" fill="white"/>
<path d="M79.8497 9.19377H73.459V27.0164H79.8495V20.7368H85.3121V27.0164H91.6989V9.19377H85.3124V15.1119H79.8497V9.19377Z" fill="white"/>
<path d="M6.68693 12.0354L0.658203 9.19377V27.0164L6.68693 24.1765V12.0354Z" fill="white"/>
<path d="M53.1273 22.1096V27.0164H64.5289C68.457 27.0164 70.2519 25.7545 70.2519 21.7977V20.1147C70.2519 16.5962 68.6563 15.4728 65.166 15.4728H58.307V14.1021H69.7198V9.19377H58.3264C54.3977 9.19377 52.6011 10.4585 52.6011 14.4151V16.0965C52.6011 19.6103 54.196 20.7357 57.6887 20.7357H64.5398V22.1078L53.1273 22.1096Z" fill="white"/>
<path d="M7.13551 4.11795C7.13547 4.79388 6.935 5.45463 6.55945 6.01663C6.1839 6.57864 5.65013 7.01666 5.02564 7.27532C4.40115 7.53398 3.71399 7.60166 3.05104 7.4698C2.38809 7.33793 1.77913 7.01245 1.30116 6.53451C0.823184 6.05656 0.497664 5.44762 0.365758 4.78468C0.233853 4.12174 0.301486 3.43457 0.560105 2.81007C0.818725 2.18557 1.25672 1.65177 1.8187 1.27618C2.38068 0.900596 3.04141 0.700083 3.71735 0.699997C4.62376 0.700343 5.49295 1.06055 6.1339 1.70146C6.77485 2.34237 7.13511 3.21154 7.13551 4.11795Z" fill="white"/>
<path fill-rule="evenodd" clip-rule="evenodd" d="M28.7 34.85H89.8617C91.1189 34.85 91.9276 36.2659 91.6662 37.8169L88.2071 52.8325C87.9462 54.3835 87.1577 55.6406 85.4589 55.6406H33.5682C32.3111 55.6406 31.5031 54.3835 31.7644 52.8325L35.0567 37.8169L28.7 34.85ZM48.5048 38.4041H37.3562V53.372L42.6052 51.3528V47.863H48.5048C51.0441 47.863 52.2107 47.0179 52.2107 44.3564V41.9103C52.2107 39.2526 51.0441 38.4041 48.5048 38.4041ZM47.0762 44.4507H42.493V42.2727H47.0762V44.4507ZM63.7445 38.4041C67.3436 38.4041 68.9935 39.6037 68.9935 43.3669V53.3733H57.8458C55.3064 53.3733 54.1399 52.5239 54.1399 49.8667V47.4195C54.1399 44.7578 55.3064 43.9129 57.8458 43.9129H63.8571V42.2722H54.4413V38.4041H63.7445ZM59.2739 49.5908H63.8567L63.8571 47.3257H59.2739V49.5908ZM80.6288 38.4041H85.78L85.7798 48.9221C85.7798 52.2961 83.7216 53.372 80.4655 53.372H70.9258L73.8637 49.6237H80.6288V47.3254H76.0402C72.3321 47.3254 70.9258 46.3928 70.9258 42.7338V38.4041H76.0402V43.4919H80.6288V38.4041Z" fill="white"/>
</svg>
