<svg width="200" height="34" viewBox="0 0 200 34" fill="none" xmlns="http://www.w3.org/2000/svg">
<path d="M197.624 7.06644H119.212L127.362 10.8701L123.141 30.1207C122.806 32.1091 123.842 33.7208 125.453 33.7208H191.979C194.157 33.7208 195.168 32.1091 195.502 30.1207L199.937 10.8701C200.272 8.88171 199.235 7.06644 197.624 7.06644Z" fill="url(#paint0_linear_3267_844)"/>
<path d="M62.5873 18.4654C62.5873 12.7208 60.0684 10.8894 54.5735 10.8894H40.3721V17.1821H54.7455V19.2989H45.5683C41.6921 19.2989 39.9111 20.5887 39.9111 24.6506V28.3864C39.9111 32.4436 41.6921 33.7387 45.5683 33.7387H62.5873V18.4654ZM54.7455 27.448H47.7491V24.5085H54.7455V27.448Z" fill="#23ABAF"/>
<path d="M34.8268 17.6096V10.8894H21.454C15.9531 10.8894 13.437 12.7303 13.437 18.4654V26.1657C13.437 31.907 15.952 33.7387 21.454 33.7387H34.8274V26.9048H21.2289V17.6093L34.8268 17.6096Z" fill="#23ABAF"/>
<path d="M101.985 10.8894H93.792V33.7387H101.985V25.688H108.988V33.7387H117.176V10.8894H108.988V18.4766H101.985V10.8894Z" fill="#23ABAF"/>
<path d="M8.19049 14.5325L0.461426 10.8894V33.7387L8.19049 30.0978V14.5325Z" fill="#23ABAF"/>
<path d="M67.7271 27.448V33.7387H82.3445C87.3804 33.7387 89.6815 32.1209 89.6815 27.0481V24.8905C89.6815 20.3795 87.6359 18.9393 83.1612 18.9393H74.3677V17.1821H88.9993V10.8894H74.3926C69.3558 10.8894 67.0525 12.5109 67.0525 17.5833V19.739C67.0525 24.2438 69.0973 25.6866 73.575 25.6866H82.3584V27.4457L67.7271 27.448Z" fill="#23ABAF"/>
<path d="M8.76333 4.38195C8.76328 5.24852 8.50626 6.09562 8.02479 6.81613C7.54332 7.53665 6.85901 8.09821 6.05839 8.42982C5.25778 8.76144 4.37681 8.8482 3.52688 8.67915C2.67696 8.51009 1.89624 8.09281 1.28346 7.48007C0.67068 6.86733 0.25335 6.08664 0.0842422 5.23673C-0.0848658 4.38681 0.00184215 3.50584 0.333403 2.7052C0.664963 1.90456 1.22649 1.22021 1.94697 0.738695C2.66745 0.257176 3.51453 0.00011045 4.38111 0C5.54316 0.000443981 6.6575 0.462245 7.47922 1.28392C8.30094 2.10559 8.76281 3.21989 8.76333 4.38195Z" fill="#23ABAF"/>
<path d="M192.389 11.6229H185.785V18.1457H179.902V11.6229H173.345V17.1737C173.345 21.8648 175.148 23.0604 179.902 23.0604H185.785V26.0069H177.112L173.345 30.8124H185.576C189.75 30.8124 192.389 29.433 192.389 25.1075L192.389 11.6229Z" fill="white"/>
<path d="M170.869 17.9854C170.869 13.1609 168.754 11.6229 164.14 11.6229H152.213V16.582H164.284V18.6855H156.578C153.322 18.6855 151.826 19.7686 151.826 23.1811V26.3185C151.826 29.7251 153.322 30.8141 156.578 30.8141H170.869V17.9854ZM164.284 25.9647H158.408V23.0607H164.284L164.284 25.9647Z" fill="white"/>
<path d="M144.6 11.6229H130.307V30.8124L137.036 28.2237V23.7496H144.6C147.855 23.7496 149.351 22.6662 149.351 19.254V16.118C149.351 12.7108 147.855 11.6229 144.6 11.6229ZM142.768 19.3749H136.892V16.5826H142.768V19.3749Z" fill="white"/>
<defs>
<linearGradient id="paint0_linear_3267_844" x1="36.8889" y1="-15.6164" x2="74.5907" y2="84.4594" gradientUnits="userSpaceOnUse">
<stop offset="0.041" stop-color="#DC000C"/>
<stop offset="0.213" stop-color="#FAE300"/>
<stop offset="0.36" stop-color="#61A81D"/>
<stop offset="0.531" stop-color="#00ACEC"/>
<stop offset="0.707" stop-color="#001976"/>
<stop offset="0.883" stop-color="#4A3085"/>
</linearGradient>
</defs>
</svg>
