<svg width="50" height="50" viewBox="0 0 50 50" fill="none" xmlns="http://www.w3.org/2000/svg">
<path fill-rule="evenodd" clip-rule="evenodd" d="M11.5889 0H38.4109C44.8007 0 50 5.19063 50 11.5701V38.3482C50 44.7275 44.8007 49.9183 38.4109 49.9183H11.5889C5.19932 49.9183 0 44.7275 0 38.3482V11.5701C0 5.19063 5.19932 0 11.5889 0ZM17.4594 11.2694C17.7914 10.5125 17.8749 10.0029 17.3223 9.37609L16.6553 8.61951C16.103 7.99272 15.2684 7.82435 14.7916 8.24329C14.7916 8.24329 12.2481 11.7125 10.8338 12.9528C9.41944 14.1932 6.17905 16.3034 6.17905 16.3034C5.70218 16.7222 5.76358 17.57 6.31592 18.1968L6.98292 18.9534C7.53544 19.5802 8.03037 19.6743 8.84669 19.3296C9.66302 18.9851 11.6167 17.9466 13.7586 16.052C15.8809 14.1746 17.1272 12.0266 17.4594 11.2694ZM16.6203 17.6264L17.2972 18.394C17.8571 19.0298 17.769 19.5502 17.4247 20.3243C17.1336 20.9781 16.132 22.6447 14.5288 24.3087V40.4871C14.5288 41.2703 13.9407 41.9054 13.215 41.9054H12.0654C11.3397 41.9054 10.7516 41.2703 10.7516 40.4871V27.3937C9.79714 28.0082 9.01404 28.4142 8.5713 28.6033C7.73475 28.9606 7.22917 28.8679 6.6687 28.2321L5.99249 27.4643C5.43184 26.8285 5.37442 25.9643 5.86502 25.5333C5.86502 25.5333 9.19009 23.3596 10.6431 22.085C12.097 20.811 14.7182 17.255 14.7182 17.255C15.209 16.8242 16.0596 16.9904 16.6203 17.6264ZM43.0469 20.8634H30.1979C30.1832 20.8634 30.17 20.8672 30.1567 20.871L30.1567 20.871C30.145 20.8743 30.1334 20.8776 30.121 20.8784C30.1084 20.8776 30.0968 20.8743 30.0854 20.8709C30.0724 20.8672 30.0596 20.8634 30.0455 20.8634H27.4595C26.9869 20.8634 26.6032 20.4811 26.6032 20.0086V18.2165C26.6032 17.7448 26.9869 17.3617 27.4595 17.3617H30.0455C30.8302 17.3617 31.4662 16.729 31.4662 15.9479V15.0053C31.4662 14.2242 30.8302 13.5907 30.0455 13.5907H27.4595C26.9869 13.5907 26.6032 13.2085 26.6032 12.7366V9.67059C26.6032 8.88715 25.9694 8.25134 25.1871 8.25134H24.2429C23.4605 8.25134 22.826 8.88715 22.826 9.67059V12.7366C22.826 13.2085 22.4432 13.5907 21.9705 13.5907H19.2667C18.482 13.5907 17.8452 14.2242 17.8452 15.0053V15.9479C17.8452 16.729 18.482 17.3617 19.2667 17.3617H21.9705C22.4432 17.3617 22.826 17.7448 22.826 18.2165V20.0086C22.826 20.4811 22.4432 20.8634 21.9705 20.8634H19.2667C18.482 20.8634 17.8452 21.4969 17.8452 22.2771V23.2208C17.8452 24.001 18.482 24.6344 19.2667 24.6344H21.9705C22.4432 24.6344 22.826 25.0168 22.826 25.4893V27.1039C22.826 27.5757 22.4432 27.9588 21.9705 27.9588H19.2667C18.482 27.9588 17.8452 28.5915 17.8452 29.3726V30.3152C17.8452 31.0963 18.482 31.7298 19.2667 31.7298H21.9705C22.4432 31.7298 22.826 32.1119 22.826 32.5839V35.7283C22.826 36.1335 22.5431 36.4813 22.1467 36.5653C19.7777 37.0652 17.4057 37.5353 17.4057 37.5353C16.6177 37.7347 16.1452 38.5527 16.3505 39.3629L16.5989 40.3408C16.8042 41.1509 17.2861 41.439 18.3979 41.446C19.5096 41.454 21.0634 41.2726 24.6102 40.3652C28.0973 39.4735 30.2862 37.985 31.1461 37.4002L31.1666 37.3862C32.0111 36.8124 32.4262 36.369 32.2209 35.5589L31.9725 34.5816C31.7673 33.7715 30.9622 33.2761 30.1744 33.4755C30.1744 33.4755 29.1428 33.9889 27.8125 34.587C27.2464 34.8421 26.6032 34.4286 26.6032 33.8085V32.5839C26.6032 32.1119 26.9869 31.7298 27.4595 31.7298H30.0455C30.8302 31.7298 31.4662 31.0963 31.4662 30.3152V29.3726C31.4662 28.5915 30.8302 27.9588 30.0455 27.9588H27.4595C26.9869 27.9588 26.6032 27.5757 26.6032 27.1039V25.4893C26.6032 25.0168 26.9869 24.6344 27.4595 24.6344H30.0455C30.0596 24.6344 30.0724 24.6307 30.0854 24.6269C30.0968 24.6236 30.1084 24.6202 30.121 24.6195C30.1334 24.6202 30.145 24.6235 30.1567 24.6269C30.1699 24.6306 30.1832 24.6344 30.1979 24.6344H33.3949C33.8769 24.6344 34.2676 25.0245 34.2676 25.505V40.4868C34.2676 41.2703 34.8557 41.9054 35.5807 41.9054H36.731C37.4567 41.9054 38.0448 41.2703 38.0448 40.4868V25.505C38.0448 25.0245 38.4348 24.6344 38.9167 24.6344H43.0469C43.8317 24.6344 44.4685 24.001 44.4685 23.2208V22.2771C44.4685 21.4969 43.8317 20.8634 43.0469 20.8634ZM34.5421 11.6011C34.5421 12.4945 35.2676 13.2188 36.1624 13.2188C37.0573 13.2188 37.7828 12.4945 37.7828 11.6011C37.7828 10.7077 37.0573 9.98338 36.1624 9.98338C35.2676 9.98338 34.5421 10.7077 34.5421 11.6011ZM36.251 8.04896C36.2889 8.04553 36.3267 8.0421 36.3659 8.04424C38.4896 8.15943 39.8783 10.1474 39.5226 12.3463C39.1733 14.5065 36.6175 18.9988 36.6175 18.9988C36.5286 19.1927 36.345 19.2856 36.1624 19.2825C35.9799 19.2856 35.7963 19.1927 35.7074 18.9988C35.7074 18.9988 33.1516 14.5065 32.8023 12.3463C32.4466 10.1474 33.8353 8.15943 35.959 8.04424C35.9982 8.0421 36.036 8.04553 36.0739 8.04896C36.1032 8.05161 36.1325 8.05426 36.1624 8.05434C36.1924 8.05426 36.2217 8.05161 36.251 8.04896Z" fill="white"/>
</svg>
