<svg width="33" height="21" viewBox="0 0 33 21" fill="none" xmlns="http://www.w3.org/2000/svg">
<g clip-path="url(#clip0_4950_178840)">
<path d="M11.8086 2.13892H20.5591V17.8621H11.8086V2.13892Z" fill="#FF5F00"/>
<path d="M12.3648 10.0006C12.3648 6.80602 13.8649 3.97245 16.1705 2.13897C14.4761 0.805576 12.3371 0 10.0037 0C4.47536 0 0.00292969 4.47243 0.00292969 10.0006C0.00292969 15.5287 4.47536 20.0012 10.0035 20.0012C12.337 20.0012 14.476 19.1956 16.1705 17.8621C13.8649 16.0565 12.3648 13.1952 12.3648 10.0006V10.0006Z" fill="#EB001B"/>
<path d="M32.3651 10.0006C32.3651 15.5287 27.8927 20.0012 22.3645 20.0012C20.031 20.0012 17.8921 19.1956 16.1975 17.8621C18.531 16.0288 20.0033 13.1952 20.0033 10.0006C20.0033 6.80602 18.5031 3.97245 16.1975 2.13897C17.8919 0.805576 20.031 0 22.3645 0C27.8927 0 32.3652 4.50027 32.3652 10.0006H32.3651Z" fill="#F79E1B"/>
</g>
<defs>
<clipPath id="clip0_4950_178840">
<rect width="32.3994" height="20.0045" fill="white"/>
</clipPath>
</defs>
</svg>
