<svg width="84" height="25" viewBox="0 0 84 25" fill="none" xmlns="http://www.w3.org/2000/svg">
<g clip-path="url(#clip0_245_2631)">
<mask id="mask0_245_2631" style="mask-type:luminance" maskUnits="userSpaceOnUse" x="0" y="0" width="83" height="25">
<path d="M82.8759 0.637451H0.896973V24.2085H82.8759V0.637451Z" fill="white"/>
</mask>
<g mask="url(#mask0_245_2631)">
<path d="M18.992 0.637451C17.1043 0.636943 15.2914 1.37525 13.9411 2.69443L14.6731 4.08526L14.373 4.32683C13.7386 3.2279 12.8296 2.31273 11.7349 1.67108C10.6402 1.02942 9.39759 0.683318 8.12883 0.666728C4.14664 0.666728 0.925757 4.15115 0.925757 8.2358V17.0201C0.922656 17.0949 0.93512 17.1696 0.962349 17.2394C0.989578 17.3091 1.03099 17.3725 1.08397 17.4255C1.13693 17.4785 1.20031 17.5199 1.2701 17.5471C1.33989 17.5744 1.41458 17.5868 1.48943 17.5837H4.37359C4.44403 17.5847 4.51396 17.5715 4.57924 17.5451C4.64452 17.5186 4.70381 17.4792 4.75363 17.4294C4.80344 17.3796 4.84277 17.3202 4.86928 17.255C4.89578 17.1897 4.90893 17.1198 4.90795 17.0493V8.14064C4.90795 6.11297 6.13772 4.48056 8.2313 4.48056C10.1858 4.48056 11.584 5.94459 11.584 8.10408V15.4242C11.579 15.4968 11.5889 15.5696 11.613 15.6383C11.6372 15.7069 11.6751 15.7699 11.7244 15.8234C11.7738 15.8768 11.8335 15.9196 11.9 15.9492C11.9665 15.9787 12.0383 15.9944 12.111 15.9952H14.8415C14.9142 15.9944 14.986 15.9787 15.0525 15.9492C15.119 15.9196 15.1787 15.8768 15.2281 15.8234C15.2774 15.7699 15.3153 15.7069 15.3395 15.6383C15.3637 15.5696 15.3735 15.4968 15.3685 15.4242V8.10408C15.3361 7.63658 15.4009 7.16741 15.559 6.72631C15.7171 6.28516 15.9649 5.88157 16.2869 5.54106C16.6088 5.20054 16.9978 4.9305 17.4294 4.74796C17.861 4.56542 18.3258 4.47437 18.7944 4.48056C20.8806 4.48056 22.0445 6.14222 22.0445 8.14064V17.0347C22.0502 17.1797 22.1124 17.3167 22.2177 17.4165C22.323 17.5163 22.4631 17.5711 22.6082 17.5691H25.4631C25.5382 17.5733 25.6134 17.5616 25.6837 17.5348C25.754 17.508 25.8178 17.4666 25.8711 17.4134C25.9243 17.3602 25.9656 17.2964 25.9925 17.226C26.0193 17.1557 26.031 17.0805 26.0267 17.0054V8.22118C26.0267 4.12186 22.9449 0.637451 18.992 0.637451Z" fill="#432BA3"/>
<path d="M44.8538 0.966622H42.2332C42.1603 0.961541 42.0872 0.971655 42.0185 0.996322C41.9498 1.02099 41.8869 1.05967 41.8339 1.10992C41.7809 1.16016 41.7389 1.22087 41.7107 1.28819C41.6824 1.35551 41.6683 1.42797 41.6695 1.501V1.85968L42.5992 3.32373L42.343 3.57261C41.5756 2.66795 40.6231 1.93844 39.5496 1.43332C38.4763 0.928193 37.307 0.659209 36.1208 0.644531C33.9096 0.749398 31.8232 1.69996 30.293 3.29969C28.7628 4.89942 27.9058 7.02596 27.8992 9.23971C27.8926 11.4535 28.7369 13.585 30.2576 15.1938C31.7783 16.8027 33.859 17.7656 36.0696 17.8836C37.2614 17.8708 38.4367 17.6029 39.5163 17.0978C40.5959 16.5927 41.5547 15.8623 42.3283 14.9555L42.548 15.1312L41.6183 16.6538V16.9905C41.6173 17.0648 41.6312 17.1386 41.6592 17.2074C41.6872 17.2762 41.7286 17.3388 41.7812 17.3913C41.8337 17.4439 41.8962 17.4853 41.9651 17.5133C42.0339 17.5413 42.1077 17.5552 42.1819 17.5542H44.8538C44.9289 17.5584 45.0041 17.5468 45.0744 17.5199C45.1448 17.4931 45.2086 17.4517 45.2618 17.3985C45.315 17.3453 45.3564 17.2815 45.3832 17.2112C45.4101 17.1408 45.4217 17.0657 45.4175 16.9905V1.501C45.421 1.42734 45.4086 1.3538 45.3811 1.28539C45.3536 1.21696 45.3117 1.15528 45.2582 1.10454C45.2047 1.05381 45.1409 1.01523 45.0711 0.99143C45.0013 0.967627 44.9272 0.959163 44.8538 0.966622ZM36.0696 14.1796C34.7669 14.1796 33.5176 13.6621 32.5964 12.7409C31.6752 11.8198 31.1577 10.5704 31.1577 9.26773C31.1577 7.96503 31.6752 6.71569 32.5964 5.79453C33.5176 4.87338 34.7669 4.35588 36.0696 4.35588C37.3723 4.35588 38.6216 4.87338 39.5428 5.79453C40.4639 6.71569 40.9814 7.96503 40.9814 9.26773C40.9814 10.5704 40.4639 11.8198 39.5428 12.7409C38.6216 13.6621 37.3723 14.1796 36.0696 14.1796Z" fill="#432BA3"/>
<path d="M82.3046 0.966622H79.6841C79.6115 0.961541 79.5384 0.971655 79.4692 0.996322C79.4006 1.02099 79.3381 1.05967 79.285 1.10992C79.232 1.16016 79.1902 1.22087 79.1617 1.28819C79.1332 1.35551 79.1193 1.42797 79.1204 1.501V1.85968L80.0502 3.32373L79.7941 3.57261C79.0266 2.66795 78.0739 1.93844 77.0006 1.43332C75.9273 0.928193 74.758 0.659209 73.5719 0.644531C71.283 0.644531 69.0878 1.55382 67.4692 3.17236C65.8506 4.79089 64.9414 6.98611 64.9414 9.27504C64.9414 11.564 65.8506 13.7592 67.4692 15.3777C69.0878 16.9963 71.283 17.9055 73.5719 17.9055C74.7635 17.8928 75.939 17.6248 77.0184 17.1197C78.0979 16.6147 79.0568 15.8842 79.8303 14.9775L80.0502 15.1532L79.1204 16.6758V17.0125C79.1193 17.0868 79.1332 17.1605 79.1611 17.2294C79.1896 17.2982 79.2309 17.3607 79.2834 17.4133C79.3358 17.4658 79.3983 17.5073 79.4675 17.5353C79.5362 17.5632 79.6099 17.5771 79.6841 17.5761H82.3046C82.3799 17.5804 82.4553 17.5687 82.5256 17.5419C82.5959 17.5151 82.6595 17.4737 82.7126 17.4205C82.7662 17.3673 82.8074 17.3034 82.8342 17.2331C82.861 17.1628 82.8728 17.0877 82.8683 17.0125V1.501C82.8722 1.42734 82.8594 1.3538 82.832 1.28539C82.8047 1.21696 82.7628 1.15528 82.7092 1.10454C82.6556 1.05381 82.592 1.01523 82.5222 0.99143C82.4525 0.967626 82.3782 0.959163 82.3046 0.966622ZM73.5719 14.1796C72.2692 14.1796 71.0195 13.6621 70.0986 12.7409C69.1777 11.8198 68.6597 10.5704 68.6597 9.26772C68.6597 7.96503 69.1777 6.71569 70.0986 5.79453C71.0195 4.87337 72.2692 4.35588 73.5719 4.35588C74.8746 4.35588 76.1237 4.87337 77.0452 5.79453C77.9661 6.71569 78.4835 7.96503 78.4835 9.26772C78.4835 10.5704 77.9661 11.8198 77.0452 12.7409C76.1237 13.6621 74.8746 14.1796 73.5719 14.1796Z" fill="#432BA3"/>
<path d="M62.7875 0.967027H60.1011C59.6691 0.967027 59.4353 1.20128 59.4353 1.4282V9.53167C59.4732 10.0982 59.3906 10.6664 59.193 11.1987C58.9955 11.7311 58.6874 12.2155 58.2889 12.6201C57.8903 13.0247 57.4109 13.3403 56.8818 13.5461C56.3527 13.7519 55.7857 13.8432 55.2186 13.814C52.8615 13.814 51.3389 12.0571 51.3389 9.53167V1.4282C51.3389 1.20128 50.9729 0.967027 50.7387 0.967027H47.8106C47.6916 0.976992 47.58 1.02878 47.4956 1.11321C47.4112 1.19763 47.3594 1.30923 47.3494 1.4282V9.48043C47.3259 11.5852 48.1366 13.6138 49.6043 15.1226C51.072 16.6315 53.0773 17.4979 55.182 17.5327C57.1932 17.5345 59.1356 16.8002 60.6431 15.4683L60.7966 15.6074L59.6033 17.2325V17.884C59.6033 19.5457 57.1073 20.4753 55.6505 20.4753H54.7208C54.6462 20.4704 54.5713 20.4804 54.5006 20.5046C54.4298 20.5289 54.3646 20.567 54.3088 20.6168C54.2529 20.6665 54.2075 20.7269 54.1751 20.7943C54.1428 20.8618 54.1243 20.935 54.1206 21.0098V23.6596C54.1336 23.8085 54.203 23.9467 54.3146 24.046C54.4261 24.1454 54.5715 24.1983 54.7208 24.194H55.6505C60.1011 24.194 63.3512 21.6027 63.3512 16.7201V1.4282C63.3316 1.29503 63.263 1.17402 63.1586 1.08875C63.0543 1.00349 62.922 0.960099 62.7875 0.967027Z" fill="#432BA3"/>
</g>
</g>
<defs>
<clipPath id="clip0_245_2631">
<rect width="82.6047" height="24" fill="white" transform="translate(0.447754 0.5)"/>
</clipPath>
</defs>
</svg>
