<svg width="107" height="64" viewBox="0 0 107 64" fill="none" xmlns="http://www.w3.org/2000/svg">
<path fill-rule="evenodd" clip-rule="evenodd" d="M74.6999 0.300049C57.0999 0.300049 42.8999 14.5 42.8999 32.1C42.8999 49.7 57.0999 63.9 74.6999 63.9C92.2999 63.9 106.5 49.7 106.5 32.1C106.5 14.5 92.2999 0.300049 74.6999 0.300049ZM72.5999 53.2C71.3999 53.4 70.7999 53.6001 70.7999 53.6001C68.7999 54.1001 67.2999 55.6 66.3999 57.9C66.0999 58.7 65.2999 59.1 64.3999 58.8H64.2999C63.5999 58.6 63.1999 58 63.3999 56.8C63.5999 55 63.9999 53.2 64.3999 51.4C67.3999 38 73.4999 31.5 77.8999 28.4C78.3999 28 78.7999 27.6 78.6999 27.4C78.4999 27.1 77.2999 27.6 75.9999 28.2C72.3999 30.5 65.1999 35.8001 62.1999 48.1001C61.9999 49.0001 61.6999 49.9001 61.3999 50.1001C60.5999 50.5001 59.6999 49.3001 58.9999 48.1001C56.3999 43.1001 55.7999 38.3 57.2999 33.9C60.8999 23.3 73.8999 17 79.3999 14.6C83.2999 12.9 86.0999 11.5 88.8999 9.30005C89.7999 8.60005 90.1999 8.30005 90.7999 8.40005C91.2999 8.50005 91.8999 9.20004 91.8999 10.7C92.3999 33.8 84.8999 50.7 72.5999 53.2Z" fill="#00783F"/>
<path fill-rule="evenodd" clip-rule="evenodd" d="M40.6 45.7C37.6 49.7 33.9 52.3 29.6 53.1C28.4 53.3 27.8 53.5 27.8 53.5C25.8 54 24.3 55.5 23.4 57.8C23.1 58.6 22.3 59 21.4 58.7H21.3C20.6 58.5 20.2 57.9 20.4 56.7C20.6 54.9 21 53.1 21.4 51.3C24.4 37.9 30.5 31.4 34.9 28.3C35.4 27.9 35.8 27.5 35.7 27.3C35.5 27 34.3 27.5 33 28.1C29.4 30.4 22.2 35.7 19.2 48C19 48.9 18.7 49.8 18.4 50C17.6 50.4 16.7 49.2 16 48C13.4 43 12.8 38.2 14.3 33.8C17.9 23.2 30.9 16.9 36.4 14.5C40.3 12.8 43.1 11.4 45.9 9.2C46.3 8.9 46.6 8.7 46.8 8.5C47.7 7.5 48.6 6.5 49.7 5.6C44.6 2.1 38.4 0 31.8 0C14.2 0 0 14.2 0 31.8C0 49.4 14.2 63.6 31.8 63.6C38.4 63.6 44.6 61.6 49.7 58C45.7 54.9 42.7 50.6 40.6 45.7Z" fill="#FFB548"/>
</svg>
