<svg width="108" height="64" viewBox="0 0 108 64" fill="none" xmlns="http://www.w3.org/2000/svg">
<path fill-rule="evenodd" clip-rule="evenodd" d="M75.3 0.199951C57.7 0.199951 43.5 14.4 43.5 32C43.5 49.6 57.7 63.8 75.3 63.8C92.9 63.8 107.1 49.6 107.1 32C107.1 14.4 92.8 0.199951 75.3 0.199951ZM73.2 53.0999C72 53.2999 71.4 53.5 71.4 53.5C69.4 54 67.9 55.5 67 57.8C66.7 58.6 65.9 59 65 58.7H64.9C64.2 58.5 63.8 57.9 64 56.7C64.2 54.9 64.6 53.1 65 51.3C68 37.9 74.1 31.3999 78.5 28.2999C79 27.8999 79.4 27.4999 79.3 27.2999C79.1 26.9999 77.9 27.5 76.6 28.1C73 30.4 65.8 35.7 62.8 48C62.6 48.9 62.3 49.8 62 50C61.2 50.4 60.3 49.2 59.6 48C57 43 56.4 38.2 57.9 33.8C61.5 23.2 74.5 16.9 80 14.5C83.9 12.8 86.7 11.4 89.5 9.19995C90.4 8.49995 90.8 8.19995 91.4 8.29995C91.9 8.39995 92.5 9.09995 92.5 10.6C93 33.8 85.4 50.6999 73.2 53.0999Z" fill="white"/>
<path fill-rule="evenodd" clip-rule="evenodd" d="M41.2001 45.7C38.2001 49.7 34.5001 52.3 30.2001 53.1C29.0001 53.3 28.4001 53.5 28.4001 53.5C26.4001 54 24.9001 55.5 24.0001 57.8C23.7001 58.6 22.9001 59 22.0001 58.7H21.9001C21.2001 58.5 20.8001 57.9 21.0001 56.7C21.2001 54.9 21.6001 53.1 22.0001 51.3C25.0001 37.9 31.1001 31.4 35.5001 28.3C36.0001 27.9 36.4 27.5 36.3 27.3C36.1 27 34.9001 27.5 33.6001 28.1C30.0001 30.4 22.8 35.7 19.8 48C19.6 48.9 19.3001 49.8 19.0001 50C18.2001 50.4 17.3001 49.2 16.6001 48C14.0001 43 13.4001 38.2 14.9001 33.8C18.5001 23.2 31.5001 16.9 37.0001 14.5C40.9001 12.8 43.7001 11.4 46.5001 9.2C46.9001 8.9 47.2001 8.7 47.4001 8.5C48.3001 7.5 49.2 6.5 50.3 5.6C45.2 2.1 39.0001 0 32.4001 0C14.8001 0 0.600098 14.2 0.600098 31.8C0.600098 49.4 14.8001 63.6 32.4001 63.6C39.0001 63.6 45.2 61.6 50.3 58C46.4 54.9 43.2001 50.5 41.2001 45.7Z" fill="white"/>
</svg>
