<svg width="18" height="18" viewBox="0 0 18 18" fill="none" xmlns="http://www.w3.org/2000/svg">
<path d="M15.8665 4.23408L15.7495 4.12363C13.121 1.57638 9.69826 1.86236 7.89135 2.25978C7.26434 2.39097 6.6509 2.58148 6.05912 2.8288C5.98369 2.86258 5.91914 2.91708 5.87279 2.98612C5.82644 3.05515 5.80015 3.13595 5.7969 3.21935C5.79366 3.30274 5.81358 3.38539 5.85442 3.4579C5.89526 3.53041 5.95537 3.58988 6.02793 3.62956C6.30958 3.78439 6.46455 3.95697 6.48697 4.14237C6.52692 4.47372 6.20335 4.88692 6.02208 5.06344C5.3659 5.53579 4.75827 6.07364 4.20836 6.66891C4.18496 6.58903 4.15768 6.51013 4.12941 6.43322C4.42471 6.25867 4.66057 5.94507 4.81163 5.52102C4.96269 5.10289 5.13032 4.20548 4.68786 3.80707C4.5927 3.72176 4.4737 3.66845 4.34731 3.65449C4.22092 3.64054 4.09337 3.66663 3.98226 3.72916C3.66631 3.89248 3.39132 4.12654 3.17821 4.41356C2.88193 4.25873 2.36344 4.07235 1.84592 4.28339C1.3674 4.47667 1.30405 4.84353 1.29918 4.99145C1.28456 5.46481 1.72702 5.89477 2.14513 6.09398C2.42787 6.22599 2.74199 6.27355 3.05053 6.23106C3.28283 6.60302 3.42724 7.02417 3.47253 7.46178C3.47374 7.49251 3.47865 7.52298 3.48715 7.55251C3.2647 7.85721 3.065 8.17828 2.88972 8.51303C2.74018 8.26034 2.5247 8.05425 2.26695 7.91739C2.0365 7.80132 1.77883 7.75196 1.5224 7.77476C1.26597 7.79756 1.02075 7.89163 0.813839 8.04658C0.263179 8.44992 -0.180256 9.34732 0.0731372 9.89957C0.114074 9.98931 0.34798 10.4272 0.975615 10.2674C1.65198 10.0998 2.0506 9.52188 2.23674 9.16784C2.35584 9.49329 2.41305 9.8386 2.40535 10.1856C2.40663 10.2151 2.41021 10.2444 2.41607 10.2733C2.38538 10.7548 2.42478 11.2383 2.53302 11.7082C2.75618 12.7215 3.36516 13.6048 4.22784 14.1667L4.24149 14.1746C5.03091 14.5957 5.83009 14.7209 6.61463 14.5483C7.21202 14.4095 7.76574 14.1221 8.22564 13.7121C8.83391 14.172 9.51286 14.5275 10.2353 14.7643C10.2421 14.7663 10.9457 15.0039 12.1845 14.9931L12.2205 14.997C12.2322 14.998 12.2439 14.999 12.2556 14.999L12.2731 15C12.6563 14.9948 13.0379 14.9509 13.4124 14.8688C16.0887 14.2801 18.0184 11.7881 17.9999 8.94201C17.9872 7.16002 17.1705 5.35633 15.8665 4.23408ZM2.994 5.21235C2.98182 5.28433 2.97595 5.35727 2.97646 5.43029L2.97549 5.50327L2.90337 5.5082C2.87803 5.50919 2.85366 5.51017 2.8293 5.51017C2.70055 5.51198 2.57302 5.48469 2.45602 5.43029C2.29374 5.35562 2.1546 5.23767 2.05352 5.08908L2.01161 5.0171L2.0847 4.97963C2.09568 4.97286 2.10747 4.96756 2.11979 4.96385C2.42192 4.84058 2.77471 5.01513 2.95893 5.13051L3.00375 5.15911L2.994 5.21235ZM1.69001 8.61756C1.68806 8.62446 1.41224 9.38085 0.830406 9.54653L0.710532 9.58104L0.73197 9.45679C0.80595 9.13497 0.984802 8.8477 1.23973 8.64123C1.32028 8.58161 1.41222 8.53963 1.5097 8.51796C1.5443 8.51 1.57952 8.50506 1.61496 8.50317L1.72314 8.49726L1.69001 8.61756ZM3.57389 5.22517C3.67081 4.92926 3.86253 4.67453 4.11869 4.50133L4.23564 4.41652L4.24247 4.56149C4.25223 4.88983 4.17733 5.21508 4.02513 5.50524C3.96145 5.63649 3.85891 5.74439 3.73178 5.81391L3.66454 5.84645L3.63042 5.77939C3.53991 5.60948 3.51959 5.41021 3.57389 5.22517ZM8.65837 11.8877C8.56499 12.1536 8.42792 12.4016 8.25293 12.6214L8.19544 12.6973L8.13305 12.6243C7.77284 12.224 7.54286 11.7214 7.47422 11.1845C7.47326 11.1796 7.43525 10.7743 7.64965 10.5337C7.73569 10.4365 7.84887 10.3681 7.9742 10.3374C8.17594 10.2931 8.37281 10.3838 8.55896 10.6086C8.59793 10.6678 8.88447 11.1431 8.65837 11.8877ZM13.2253 13.9971C12.9171 14.0648 12.6031 14.1015 12.2878 14.1065L12.2488 14.1026C12.2351 14.1016 12.2195 14.1006 12.2049 14.1006H12.2C11.129 14.1115 10.5179 13.9192 10.5121 13.9172C9.91332 13.7191 9.34779 13.4301 8.83476 13.0602C9.06007 12.7737 9.23511 12.4501 9.35227 12.1036C9.70411 10.9479 9.16808 10.2043 9.14762 10.1777L9.13201 10.155C8.63692 9.54653 8.097 9.55836 7.8202 9.6195C7.54567 9.68235 7.29732 9.83023 7.10972 10.0426C6.67701 10.5307 6.74425 11.1944 6.754 11.2684C6.83574 11.9494 7.12336 12.5883 7.57754 13.0977C7.24501 13.3802 6.85081 13.5787 6.42751 13.6766C5.85349 13.8028 5.25897 13.7062 4.66448 13.3916C4.01866 12.9497 3.5635 12.2755 3.39165 11.506C3.21249 10.7423 3.26444 9.94173 3.54077 9.20828C3.56902 9.13628 4.26196 7.42825 6.55909 5.77249C6.57271 5.76243 6.58572 5.75156 6.59807 5.73994C6.68773 5.6581 7.46741 4.91848 7.36216 4.03586C7.33462 3.80232 7.24615 3.5804 7.10584 3.39288C7.41966 3.2923 7.74615 3.20453 8.07946 3.13156C10.0764 2.69271 12.9232 2.61974 15.1424 4.76956L15.2691 4.89185L15.2778 4.89974C15.2827 4.90269 15.2866 4.90664 15.2885 4.90762C15.8568 5.40412 16.3109 6.02042 16.6189 6.71328C16.9391 7.41453 17.1088 8.17647 17.1169 8.94891C17.1335 11.3739 15.4971 13.4971 13.2253 13.9971Z" fill="#EF6079"/>
<path d="M14.9166 7.55664C14.7872 7.15505 14.5629 7.03644 14.3973 7.00749C14.2593 6.98321 13.9884 6.99815 13.7305 7.36238C13.6485 7.4807 13.5804 7.60964 13.5278 7.74622C13.3054 7.54809 13.0415 7.41211 12.7592 7.35024C12.6542 7.32582 12.5452 7.33039 12.4423 7.36352C12.3393 7.39665 12.2457 7.45727 12.1701 7.53982C11.9889 7.75276 11.9493 8.11419 12.0666 8.48402C12.1615 8.78568 12.5022 9.50853 13.6141 9.77937C13.6073 10.0179 13.5801 10.2551 13.533 10.4882C13.5213 10.5499 13.5223 10.6135 13.536 10.6747C13.5497 10.7358 13.5758 10.7929 13.6124 10.8419C13.6489 10.8908 13.695 10.9304 13.7474 10.9577C13.7997 10.9851 13.857 10.9995 13.9151 11C13.9427 10.9999 13.9702 10.9964 13.9971 10.9897C14.0704 10.9725 14.1376 10.9328 14.1907 10.8753C14.2438 10.8179 14.2805 10.7451 14.2964 10.6657C14.3831 10.2473 14.4116 9.81735 14.3809 9.38992C14.6181 9.16858 15.2194 8.49243 14.9166 7.55664ZM14.205 7.83682L14.2904 7.68833L14.33 7.85736C14.3587 7.99247 14.3582 8.13288 14.3287 8.26777C14.2993 8.40266 14.2416 8.52841 14.1601 8.63532L14.0756 8.7558L14.0385 8.61104C13.979 8.37849 14.0997 8.01893 14.205 7.83682ZM12.6463 8.13661L12.6307 8.01987L12.7351 8.05349C13.1209 8.2152 13.4361 8.52876 13.6175 8.93137L13.6891 9.09014L13.5339 9.03504C13.0732 8.8716 12.8515 8.61384 12.7463 8.42612C12.6957 8.338 12.6617 8.239 12.6463 8.13661Z" fill="#EF6079"/>
</svg>
