<svg width="18" height="14" viewBox="0 0 18 14" fill="none" xmlns="http://www.w3.org/2000/svg">
<path d="M1.31085 0.139607C1.02647 -0.0846119 0.613581 -0.0326588 0.389363 0.251716C0.165144 0.536091 0.217097 0.948982 0.501472 1.1732L16.689 13.8607C16.9733 14.0849 17.3862 14.033 17.6105 13.7486C17.8347 13.4642 17.7827 13.0513 17.4983 12.8271L13.6292 9.79469L16.1038 7.32008C17.6487 5.77515 17.6487 3.2732 16.1038 1.72828C14.7366 0.361091 12.5819 0.183357 11.0097 1.30719L10.9659 1.33726C10.5722 1.6189 10.4819 2.16578 10.7636 2.55679C11.0452 2.94781 11.5921 3.04078 11.9831 2.75914L12.0269 2.72906C12.9046 2.10289 14.105 2.20133 14.8651 2.96422C15.7265 3.82554 15.7265 5.22008 14.8651 6.0814L12.2401 8.7064L11.3679 8.02281C12.0323 6.55172 11.737 4.78804 10.5585 3.60953C9.13116 2.17945 6.88077 2.07281 5.32764 3.28961L1.31085 0.139607ZM6.78507 4.42984C7.60811 4.02242 8.63624 4.15914 9.32257 4.8482C9.86944 5.39508 10.0745 6.1689 9.91593 6.88531L6.78507 4.42984ZM11.3679 11.3861L6.29014 7.38297C6.23272 8.47125 6.62374 9.5732 7.44405 10.3908C8.50772 11.4545 10.0253 11.7853 11.3706 11.3834L11.3679 11.3861ZM3.43819 5.13804L1.896 6.68023C0.351082 8.22515 0.351082 10.7271 1.896 12.272C3.26319 13.6392 5.41788 13.817 6.99014 12.6931L7.03389 12.663C7.42764 12.3814 7.51788 11.8345 7.23624 11.4435C6.9546 11.0525 6.40772 10.9595 6.01671 11.2412L5.97296 11.2712C5.09522 11.8974 3.89483 11.799 3.13468 11.0361C2.27335 10.172 2.27335 8.7775 3.13468 7.91617L4.82452 6.22633L3.44093 5.13531L3.43819 5.13804Z" fill="#EB5757"/>
</svg>
