<svg width="71" height="69" viewBox="0 0 71 69" fill="none" xmlns="http://www.w3.org/2000/svg">
<path d="M2.7165 38.3266C2.54983 36.9033 2.4665 36.1899 2.50317 35.6032C2.5923 34.1085 3.18204 32.6874 4.17736 31.5687C5.17269 30.45 6.51563 29.699 7.98983 29.4366C8.56983 29.3333 9.2865 29.3333 10.7232 29.3333H45.9465C47.3798 29.3333 48.0965 29.3333 48.6765 29.4333C50.1507 29.6956 51.4936 30.4467 52.489 31.5653C53.4843 32.684 54.074 34.1052 54.1632 35.5999C54.1965 36.1899 54.1165 36.8999 53.9498 38.3266L52.6132 49.7532C52.0895 54.2279 49.941 58.3545 46.5754 61.3495C43.2099 64.3445 38.8617 65.9994 34.3565 65.9999H22.3098C17.8046 65.9994 13.4564 64.3445 10.0909 61.3495C6.72537 58.3545 4.5768 54.2279 4.05317 49.7532L2.7165 38.3266Z" stroke="#22798C" stroke-width="5"/>
<path d="M51.6665 52.6666H58.3332C59.6464 52.6666 60.9467 52.408 62.16 51.9054C63.3733 51.4029 64.4757 50.6663 65.4042 49.7377C66.3328 48.8091 67.0694 47.7067 67.572 46.4935C68.0745 45.2802 68.3332 43.9798 68.3332 42.6666C68.3332 41.3534 68.0745 40.053 67.572 38.8398C67.0694 37.6265 66.3328 36.5241 65.4042 35.5956C64.4757 34.667 63.3733 33.9304 62.16 33.4278C60.9467 32.9253 59.6464 32.6666 58.3332 32.6666H53.3332" stroke="#22798C" stroke-width="5"/>
<path d="M28.333 2.66663C27.8952 3.10432 27.5479 3.62398 27.3109 4.19592C27.074 4.76786 26.952 5.38088 26.952 5.99996C26.952 6.61904 27.074 7.23206 27.3109 7.804C27.5479 8.37594 27.8952 8.8956 28.333 9.33329C28.7709 9.77098 29.1182 10.2906 29.3551 10.8626C29.5921 11.4345 29.714 12.0475 29.714 12.6666C29.714 13.2857 29.5921 13.8987 29.3551 14.4707C29.1182 15.0426 28.7709 15.5623 28.333 16M11.6664 21L12.053 20.6133C12.8717 19.796 13.3677 18.7106 13.4498 17.5568C13.5319 16.4029 13.1945 15.2582 12.4997 14.3333C11.8056 13.4081 11.4686 12.2636 11.5507 11.1099C11.6327 9.95623 12.1283 8.8709 12.9464 8.05329L13.333 7.66663M43.333 21L43.7197 20.6133C44.5384 19.796 45.0344 18.7106 45.1165 17.5568C45.1985 16.4029 44.8611 15.2582 44.1664 14.3333C43.4723 13.4081 43.1353 12.2636 43.2173 11.1099C43.2994 9.95623 43.795 8.8709 44.613 8.05329L44.9997 7.66663" stroke="#22798C" stroke-width="5" stroke-linecap="round" stroke-linejoin="round"/>
</svg>
