<svg width="80" height="80" viewBox="0 0 80 80" fill="none" xmlns="http://www.w3.org/2000/svg">
<path d="M34.447 15.9333C33.047 10.5033 28.8937 6.58997 24.047 6.66663C18.137 6.75663 13.4403 12.7233 13.5537 20L13.447 31.1333C13.4237 33.6566 13.4137 34.9166 12.967 36.0333C12.5203 37.1566 11.5337 38.23 9.56699 40.37C7.63366 42.47 6.66699 44.03 6.66699 45.8166C6.66699 48.5433 8.91033 50.7366 13.397 55.1233L25.2937 66.7566C29.777 71.1366 32.0203 73.3333 34.8103 73.3333C37.597 73.3333 39.8403 71.14 44.327 66.7533L66.927 44.6533C68.9536 42.691 70.565 40.3413 71.6655 37.7438C72.7659 35.1464 73.333 32.3542 73.333 29.5333C73.333 26.7124 72.7659 23.9202 71.6655 21.3228C70.565 18.7253 68.9536 16.3756 66.927 14.4133C58.387 6.0633 44.5403 6.0633 36.0003 14.4133L34.447 15.9333ZM34.447 15.9333L31.2403 19.0666M36.0003 58.6133L21.7237 44.6566" stroke="#22798C" stroke-width="5" stroke-linecap="round"/>
</svg>
