<svg width="80" height="80" viewBox="0 0 80 80" fill="none" xmlns="http://www.w3.org/2000/svg">
<mask id="mask0_4602_5926" style="mask-type:alpha" maskUnits="userSpaceOnUse" x="0" y="0" width="80" height="80">
<rect width="80" height="80" fill="#D9D9D9"/>
</mask>
<g mask="url(#mask0_4602_5926)">
<path fill-rule="evenodd" clip-rule="evenodd" d="M40 8C22.3383 8 8 22.3383 8 40C8 57.6617 22.3383 72 40 72C57.6617 72 72 57.6617 72 40C72 22.3383 57.6617 8 40 8ZM67.4171 40.8274C67.1291 40.5097 66.704 40.096 66.192 39.744C65.7417 39.4354 65.2137 39.1246 64.6263 39.1931C63.8949 39.28 63.2503 39.9337 62.5143 41.1703C60.6606 44.2789 58.6286 45.3417 56.9006 45.5589C55.4423 45.7417 54.0686 45.3234 52.8937 44.6194C50.9966 49.9177 45.9269 53.7143 39.9794 53.7143C34.0343 53.7143 28.9669 49.9246 27.0674 44.6286C25.8971 45.328 24.528 45.7417 23.0789 45.5589C21.3486 45.3417 19.3166 44.2789 17.4651 41.1703C16.7269 39.9337 16.0846 39.28 15.3531 39.1931C14.7634 39.1246 14.2354 39.4354 13.7851 39.744C13.2869 40.0869 12.8709 40.4891 12.5829 40.8046C13.0103 55.5726 25.1314 67.4286 40 67.4286C54.8617 67.4286 66.9783 55.584 67.4171 40.8274ZM30.8571 40C30.864 45.1314 35.0263 49.1429 39.9794 49.1429C45.024 49.1429 49.1223 45.0469 49.1223 40C49.1223 34.9531 45.024 30.8571 39.9794 30.8571C35.024 30.8571 30.8503 34.8686 30.8571 40ZM66.9783 35.0309C64.6377 22.2606 53.4423 12.5714 40 12.5714C26.5623 12.5714 15.3669 22.256 13.024 35.0217C13.92 34.6926 14.8891 34.5349 15.888 34.6537C17.6389 34.8594 19.632 35.8766 21.392 38.8297C22.2103 40.2034 22.8846 40.928 23.6503 41.024C24.1966 41.0926 24.6697 40.7726 25.0743 40.4663C25.5931 40.0754 26.0114 39.6091 26.2834 39.2663C26.6651 32.0389 32.656 26.2857 39.9794 26.2857C47.2914 26.2857 53.2754 32.0229 53.6731 39.2389C53.9429 39.584 54.3703 40.064 54.9029 40.4663C55.3097 40.7726 55.7806 41.0926 56.3291 41.024C57.0926 40.928 57.7691 40.2034 58.5874 38.8297C60.3451 35.8766 62.3406 34.8594 64.0891 34.6537C65.0971 34.5349 66.0754 34.6949 66.9783 35.0309Z" fill="#22798C"/>
<path d="M39.9793 21.7144C41.2417 21.7144 42.265 20.691 42.265 19.4287C42.265 18.1663 41.2417 17.1429 39.9793 17.1429C38.717 17.1429 37.6936 18.1663 37.6936 19.4287C37.6936 20.691 38.717 21.7144 39.9793 21.7144Z" fill="#22798C"/>
<path d="M51.4078 26.2857C52.6701 26.2857 53.6935 25.2623 53.6935 23.9999C53.6935 22.7376 52.6701 21.7142 51.4078 21.7142C50.1454 21.7142 49.1221 22.7376 49.1221 23.9999C49.1221 25.2623 50.1454 26.2857 51.4078 26.2857Z" fill="#22798C"/>
<path d="M28.5509 26.2857C29.8132 26.2857 30.8366 25.2623 30.8366 23.9999C30.8366 22.7376 29.8132 21.7142 28.5509 21.7142C27.2885 21.7142 26.2651 22.7376 26.2651 23.9999C26.2651 25.2623 27.2885 26.2857 28.5509 26.2857Z" fill="#22798C"/>
<path d="M58.2857 33.1427C59.5481 33.1427 60.5714 32.1194 60.5714 30.857C60.5714 29.5946 59.5481 28.5713 58.2857 28.5713C57.0233 28.5713 56 29.5946 56 30.857C56 32.1194 57.0233 33.1427 58.2857 33.1427Z" fill="#22798C"/>
<path d="M21.7142 33.1427C22.9765 33.1427 23.9999 32.1194 23.9999 30.857C23.9999 29.5946 22.9765 28.5713 21.7142 28.5713C20.4518 28.5713 19.4285 29.5946 19.4285 30.857C19.4285 32.1194 20.4518 33.1427 21.7142 33.1427Z" fill="#22798C"/>
</g>
</svg>
