<svg width="80" height="80" viewBox="0 0 80 80" fill="none" xmlns="http://www.w3.org/2000/svg">
<mask id="mask0_4603_5971" style="mask-type:alpha" maskUnits="userSpaceOnUse" x="0" y="0" width="80" height="80">
<rect width="80" height="80" fill="#D9D9D9"/>
</mask>
<g mask="url(#mask0_4603_5971)">
<path d="M63 24H51V9C51 8.73478 50.8946 8.48043 50.7071 8.29289C50.5196 8.10536 50.2652 8 50 8H46C45.7348 8 45.4804 8.10536 45.2929 8.29289C45.1054 8.48043 45 8.73478 45 9V24H33C32.7348 24 32.4804 24.1054 32.2929 24.2929C32.1054 24.4804 32 24.7348 32 25V29C32 29.2652 32.1054 29.5196 32.2929 29.7071C32.4804 29.8946 32.7348 30 33 30H34.074L34.616 37.076C34.6398 37.3376 34.7656 37.5793 34.9662 37.7489C35.1667 37.9186 35.426 38.0025 35.6879 37.9825C35.9498 37.9625 36.1934 37.8403 36.3659 37.6422C36.5384 37.4442 36.6261 37.1862 36.61 36.924L36.08 30H59.921L59.121 40.363C58.0368 39.9672 56.8591 39.9045 55.739 40.183C55.68 40.197 55.622 40.215 55.563 40.231C55.3664 40.2868 55.1731 40.3536 54.984 40.431C54.915 40.458 54.846 40.483 54.778 40.513C54.5342 40.6182 54.298 40.7402 54.071 40.878C52.7889 40.0802 51.2447 39.8177 49.771 40.147C49.6402 40.1735 49.5161 40.2259 49.4059 40.3011C49.2957 40.3764 49.2017 40.4729 49.1294 40.585C49.0571 40.6971 49.0079 40.8226 48.9848 40.954C48.9617 41.0854 48.9651 41.2201 48.9949 41.3501C49.0247 41.4802 49.0802 41.603 49.1581 41.7113C49.236 41.8195 49.3349 41.9111 49.4487 41.9806C49.5626 42.0501 49.6893 42.0962 49.8212 42.116C49.9532 42.1358 50.0877 42.129 50.217 42.096C50.7788 41.9753 51.3606 41.9833 51.9189 42.1192C52.4772 42.2551 52.9976 42.5156 53.441 42.881C53.6184 43.023 53.8388 43.1004 54.066 43.1004C54.2932 43.1004 54.5136 43.023 54.691 42.881C54.8549 42.7502 55.0292 42.6328 55.212 42.53C55.269 42.497 55.329 42.473 55.387 42.444C55.5118 42.3789 55.64 42.3205 55.771 42.269C55.834 42.245 55.899 42.228 55.962 42.208C56.0933 42.1648 56.2268 42.1287 56.362 42.1C56.421 42.088 56.48 42.081 56.539 42.071C56.6834 42.0482 56.829 42.0338 56.975 42.028C57.024 42.028 57.075 42.028 57.124 42.028C57.2808 42.028 57.4375 42.038 57.593 42.058C57.634 42.058 57.675 42.067 57.715 42.074C57.8782 42.1006 58.0396 42.1376 58.198 42.185L58.305 42.216C58.4598 42.2687 58.6111 42.3311 58.758 42.403C58.799 42.423 58.842 42.439 58.882 42.46C58.907 42.473 58.929 42.491 58.953 42.504L56.855 70H50C49.7348 70 49.4804 70.1054 49.2929 70.2929C49.1054 70.4804 49 70.7348 49 71C49 71.2652 49.1054 71.5196 49.2929 71.7071C49.4804 71.8946 49.7348 72 50 72H57.782C58.0346 72.0007 58.278 71.9059 58.4635 71.7345C58.649 71.5631 58.7628 71.3278 58.782 71.076L60.891 43.548L60.999 42.048L61.926 30H63C63.2652 30 63.5196 29.8946 63.7071 29.7071C63.8946 29.5196 64 29.2652 64 29V25C64 24.7348 63.8946 24.4804 63.7071 24.2929C63.5196 24.1054 63.2652 24 63 24ZM47 10H49V24H47V10ZM62 28H34V26H62V28Z" fill="#22798C"/>
<path d="M45.715 42.885C41.3909 40.9896 36.7208 40.011 31.9995 40.011C27.2782 40.011 22.6081 40.9896 18.284 42.885C17.6164 43.1545 17.0434 43.6154 16.637 44.2096C16.2306 44.8039 16.009 45.5051 16 46.225V46.333C16.0116 47.0063 16.2101 47.6631 16.5733 48.2301C16.9366 48.7971 17.4502 49.252 18.057 49.544C18.0207 49.6933 18.0016 49.8463 18 50V51C18.0007 51.4337 18.1437 51.8553 18.407 52.2C18.3473 52.3364 18.3014 52.4784 18.27 52.624C18.123 53.1686 18.0326 53.7269 18 54.29C17.9958 54.7419 18.0914 55.1892 18.28 55.6C18.0425 56.1178 17.9541 56.6916 18.0248 57.2569C18.0954 57.8222 18.3223 58.3566 18.68 58.8C18.2534 59.2527 18.0119 59.8489 18.0032 60.4709C17.9945 61.0928 18.2192 61.6955 18.633 62.16C18.2254 62.687 18.003 63.3337 18 64C18.0017 64.4262 18.0952 64.8471 18.274 65.234C17.5062 65.5202 16.8635 66.0672 16.4582 66.7794C16.0529 67.4915 15.9109 68.3235 16.057 69.1298C16.2031 69.9361 16.628 70.6653 17.2574 71.19C17.8868 71.7147 18.6806 72.0014 19.5 72H44.5C45.3194 72.0014 46.1132 71.7147 46.7426 71.19C47.372 70.6653 47.7969 69.9361 47.943 69.1298C48.0891 68.3235 47.9471 67.4915 47.5418 66.7794C47.1365 66.0672 46.4938 65.5202 45.726 65.234C45.9048 64.8471 45.9983 64.4262 46 64C45.9979 63.3341 45.7765 62.6874 45.37 62.16C45.7838 61.6955 46.0085 61.0928 45.9998 60.4709C45.9911 59.8489 45.7496 59.2527 45.323 58.8C45.6807 58.3566 45.9076 57.8222 45.9782 57.2569C46.0489 56.6916 45.9605 56.1178 45.723 55.6C45.9106 55.189 46.0051 54.7417 46 54.29C45.9674 53.7223 45.8769 53.1593 45.73 52.61C45.6986 52.4673 45.6534 52.3279 45.595 52.194C45.8563 51.8506 45.9985 51.4315 46 51V50C45.9984 49.8463 45.9793 49.6933 45.943 49.544C46.5498 49.252 47.0634 48.7971 47.4267 48.2301C47.7899 47.6631 47.9884 47.0063 48 46.333V46.225C47.9911 45.5049 47.7694 44.8036 47.3628 44.2093C46.9562 43.615 46.3829 43.1542 45.715 42.885ZM44 51H20V50H44V51ZM44 54.29C44.0146 54.4241 43.9947 54.5597 43.9422 54.6839C43.8897 54.8082 43.8063 54.917 43.7 55C43.5645 54.9057 43.4712 54.7621 43.44 54.6C43.3854 54.3873 43.2612 54.1989 43.0873 54.0648C42.9134 53.9308 42.6996 53.8587 42.48 53.86H42.32C42.0993 53.859 41.8845 53.9311 41.7091 54.0649C41.5336 54.1988 41.4074 54.3869 41.35 54.6C41.3375 54.6801 41.3089 54.7568 41.266 54.8256C41.223 54.8943 41.1665 54.9537 41.1 55C41.0335 54.9537 40.977 54.8943 40.934 54.8256C40.8911 54.7568 40.8625 54.6801 40.85 54.6C40.7926 54.3869 40.6664 54.1988 40.4909 54.0649C40.3155 53.9311 40.1007 53.859 39.88 53.86H39.72C39.5004 53.8587 39.2866 53.9308 39.1127 54.0648C38.9388 54.1989 38.8146 54.3873 38.76 54.6C38.7288 54.7621 38.6355 54.9057 38.5 55C38.3645 54.9057 38.2712 54.7621 38.24 54.6C38.1854 54.3873 38.0612 54.1989 37.8873 54.0648C37.7134 53.9308 37.4996 53.8587 37.28 53.86H37.12C36.8993 53.859 36.6845 53.9311 36.5091 54.0649C36.3336 54.1988 36.2074 54.3869 36.15 54.6C36.1375 54.6801 36.1089 54.7568 36.066 54.8256C36.023 54.8943 35.9665 54.9537 35.9 55C35.8335 54.9537 35.777 54.8943 35.734 54.8256C35.6911 54.7568 35.6625 54.6801 35.65 54.6C35.5926 54.3869 35.4664 54.1988 35.2909 54.0649C35.1155 53.9311 34.9007 53.859 34.68 53.86H34.52C34.3004 53.8587 34.0866 53.9308 33.9127 54.0648C33.7388 54.1989 33.6146 54.3873 33.56 54.6C33.5288 54.7621 33.4355 54.9057 33.3 55C33.2335 54.9537 33.177 54.8943 33.134 54.8256C33.0911 54.7568 33.0625 54.6801 33.05 54.6C32.9926 54.3869 32.8664 54.1988 32.6909 54.0649C32.5155 53.9311 32.3007 53.859 32.08 53.86H31.92C31.6993 53.859 31.4845 53.9311 31.3091 54.0649C31.1336 54.1988 31.0074 54.3869 30.95 54.6C30.9375 54.6801 30.9089 54.7568 30.866 54.8256C30.823 54.8943 30.7665 54.9537 30.7 55C30.5645 54.9057 30.4712 54.7621 30.44 54.6C30.3854 54.3873 30.2612 54.1989 30.0873 54.0648C29.9134 53.9308 29.6996 53.8587 29.48 53.86H29.32C29.0993 53.859 28.8845 53.9311 28.7091 54.0649C28.5336 54.1988 28.4074 54.3869 28.35 54.6C28.3375 54.6801 28.3089 54.7568 28.266 54.8256C28.223 54.8943 28.1665 54.9537 28.1 55C28.0335 54.9537 27.977 54.8943 27.934 54.8256C27.8911 54.7568 27.8625 54.6801 27.85 54.6C27.7926 54.3869 27.6664 54.1988 27.4909 54.0649C27.3155 53.9311 27.1007 53.859 26.88 53.86H26.72C26.5004 53.8587 26.2866 53.9308 26.1127 54.0648C25.9388 54.1989 25.8146 54.3873 25.76 54.6C25.7288 54.7621 25.6355 54.9057 25.5 55C25.3645 54.9057 25.2712 54.7621 25.24 54.6C25.1854 54.3873 25.0612 54.1989 24.8873 54.0648C24.7134 53.9308 24.4996 53.8587 24.28 53.86H24.12C23.8993 53.859 23.6845 53.9311 23.5091 54.0649C23.3336 54.1988 23.2074 54.3869 23.15 54.6C23.1375 54.6801 23.1089 54.7568 23.066 54.8256C23.023 54.8943 22.9665 54.9537 22.9 55C22.8335 54.9537 22.777 54.8943 22.734 54.8256C22.6911 54.7568 22.6625 54.6801 22.65 54.6C22.5926 54.3869 22.4664 54.1988 22.2909 54.0649C22.1155 53.9311 21.9007 53.859 21.68 53.86H21.52C21.3004 53.8587 21.0866 53.9308 20.9127 54.0648C20.7388 54.1989 20.6146 54.3873 20.56 54.6C20.5288 54.7621 20.4355 54.9057 20.3 55C20.1937 54.917 20.1103 54.8082 20.0578 54.6839C20.0053 54.5597 19.9854 54.4241 20 54.29C20.0043 54.1824 20.0177 54.0753 20.04 53.97C20.07 53.78 20.12 53.49 20.22 53.04C20.22 53.03 20.23 53.01 20.23 53H43.77C43.77 53.01 43.78 53.03 43.78 53.04C43.88 53.49 43.93 53.78 43.96 53.97C43.9823 54.0753 43.9957 54.1824 44 54.29ZM43.5 60C43.6326 60 43.7598 60.0527 43.8536 60.1464C43.9473 60.2402 44 60.3674 44 60.5C44 60.6326 43.9473 60.7598 43.8536 60.8535C43.7598 60.9473 43.6326 61 43.5 61H39C38.7349 61.002 38.4807 61.1058 38.29 61.29L37 62.59L35.71 61.29C35.5193 61.1058 35.2651 61.002 35 61H20.5C20.3674 61 20.2402 60.9473 20.1464 60.8535C20.0527 60.7598 20 60.6326 20 60.5C20 60.3674 20.0527 60.2402 20.1464 60.1464C20.2402 60.0527 20.3674 60 20.5 60H43.5ZM43 65H21C20.7348 65 20.4804 64.8946 20.2929 64.7071C20.1054 64.5196 20 64.2652 20 64C20 63.7348 20.1054 63.4804 20.2929 63.2929C20.4804 63.1053 20.7348 63 21 63H34.59L36.29 64.71C36.4796 64.8959 36.7345 65 37 65C37.2655 65 37.5204 64.8959 37.71 64.71L39.41 63H43C43.2652 63 43.5196 63.1053 43.7071 63.2929C43.8946 63.4804 44 63.7348 44 64C44 64.2652 43.8946 64.5196 43.7071 64.7071C43.5196 64.8946 43.2652 65 43 65ZM42.89 58H21.11C20.8316 58.0007 20.5633 57.8959 20.3592 57.7066C20.155 57.5173 20.0302 57.2576 20.01 56.98C20.1063 56.9916 20.2031 56.9983 20.3 57C20.7746 56.9983 21.234 56.8322 21.6 56.53C21.9704 56.822 22.4283 56.9807 22.9 56.9807C23.3717 56.9807 23.8296 56.822 24.2 56.53C24.5704 56.822 25.0283 56.9807 25.5 56.9807C25.9717 56.9807 26.4296 56.822 26.8 56.53C27.1704 56.822 27.6283 56.9807 28.1 56.9807C28.5717 56.9807 29.0296 56.822 29.4 56.53C29.7704 56.822 30.2283 56.9807 30.7 56.9807C31.1717 56.9807 31.6296 56.822 32 56.53C32.3704 56.822 32.8283 56.9807 33.3 56.9807C33.7717 56.9807 34.2296 56.822 34.6 56.53C34.9704 56.822 35.4283 56.9807 35.9 56.9807C36.3717 56.9807 36.8296 56.822 37.2 56.53C37.5704 56.822 38.0283 56.9807 38.5 56.9807C38.9717 56.9807 39.4296 56.822 39.8 56.53C40.1704 56.822 40.6283 56.9807 41.1 56.9807C41.5717 56.9807 42.0296 56.822 42.4 56.53C42.766 56.8322 43.2254 56.9983 43.7 57C43.7969 56.9983 43.8937 56.9916 43.99 56.98C43.9698 57.2576 43.845 57.5173 43.6408 57.7066C43.4367 57.8959 43.1684 58.0007 42.89 58ZM44.5 70H19.5C19.1022 70 18.7206 69.842 18.4393 69.5606C18.158 69.2793 18 68.8978 18 68.5C18 68.1022 18.158 67.7206 18.4393 67.4393C18.7206 67.158 19.1022 67 19.5 67H44.5C44.8978 67 45.2794 67.158 45.5607 67.4393C45.842 67.7206 46 68.1022 46 68.5C46 68.8978 45.842 69.2793 45.5607 69.5606C45.2794 69.842 44.8978 70 44.5 70ZM46 46.333C45.9659 46.8048 45.7474 47.2441 45.3918 47.5561C45.0363 47.868 44.5722 48.0275 44.1 48H19.9C19.4278 48.0275 18.9637 47.868 18.6082 47.5561C18.2526 47.2441 18.0341 46.8048 18 46.333V46.225C18.0091 45.8982 18.1148 45.5814 18.3036 45.3145C18.4924 45.0476 18.7559 44.8425 19.061 44.725C23.1481 42.9615 27.5488 42.0401 32 42.016C36.4512 42.0414 40.8516 42.9641 44.938 44.729C45.2427 44.846 45.506 45.0505 45.6949 45.3166C45.8839 45.5827 45.99 45.8988 46 46.225V46.333Z" fill="#22798C"/>
</g>
</svg>
