<svg width="80" height="80" viewBox="0 0 80 80" fill="none" xmlns="http://www.w3.org/2000/svg">
<path d="M40.0003 73.3334C58.4098 73.3334 73.3337 58.4096 73.3337 40.0001C73.3337 21.5906 58.4098 6.66675 40.0003 6.66675C21.5908 6.66675 6.66699 21.5906 6.66699 40.0001C6.66699 58.4096 21.5908 73.3334 40.0003 73.3334Z" stroke="#22798C" stroke-width="5"/>
<path d="M40 50C45.5228 50 50 45.5228 50 40C50 34.4772 45.5228 30 40 30C34.4772 30 30 34.4772 30 40C30 45.5228 34.4772 50 40 50Z" stroke="#22798C" stroke-width="5"/>
<path d="M6.66699 43.3335C6.66699 43.3335 14.0003 50.0002 20.0003 50.0002C24.0403 50.0002 28.687 46.9735 31.2903 45.0002M46.667 47.4135C48.237 48.7968 50.2937 50.0002 52.6837 50.0002C58.317 50.0002 58.317 43.3335 63.9503 43.3335C67.5403 43.3335 70.367 46.0468 71.947 48.0102" stroke="#22798C" stroke-width="5"/>
<path d="M48.3337 23.3335L53.3337 16.6668M63.3337 23.3335L66.667 20.0002M40.0003 16.6668L36.667 13.3335M35.0003 23.3335L30.447 24.5535M55.5003 29.9235L55.7203 34.6302M68.927 33.6168L63.3337 38.5435M23.3337 16.6668L20.0003 13.3335M22.6403 30.4802L20.6903 26.1868M18.8837 42.1402L21.667 38.3335M12.277 34.5002L12.0137 29.7935" stroke="#22798C" stroke-width="5" stroke-linecap="round"/>
</svg>
