<svg width="80" height="80" viewBox="0 0 80 80" fill="none" xmlns="http://www.w3.org/2000/svg">
<path d="M7.71699 42.3268C7.55032 40.9035 7.46699 40.1902 7.50366 39.6035C7.59279 38.1088 8.18253 36.6876 9.17785 35.5689C10.1732 34.4502 11.5161 33.6992 12.9903 33.4368C13.5703 33.3335 14.287 33.3335 15.7237 33.3335H50.947C52.3803 33.3335 53.097 33.3335 53.677 33.4335C55.1512 33.6959 56.4941 34.4469 57.4895 35.5656C58.4848 36.6843 59.0745 38.1054 59.1637 39.6002C59.197 40.1902 59.117 40.9002 58.9503 42.3268L57.6137 53.7535C57.09 58.2282 54.9415 62.3548 51.5759 65.3498C48.2104 68.3448 43.8622 69.9997 39.357 70.0002H27.3103C22.8051 69.9997 18.4569 68.3448 15.0914 65.3498C11.7259 62.3548 9.57729 58.2282 9.05366 53.7535L7.71699 42.3268Z" stroke="#22798C" stroke-width="5"/>
<path d="M56.667 56.6667H63.3337C64.6469 56.6667 65.9472 56.4081 67.1605 55.9055C68.3737 55.403 69.4761 54.6664 70.4047 53.7378C71.3333 52.8092 72.0699 51.7068 72.5725 50.4936C73.075 49.2803 73.3337 47.98 73.3337 46.6667C73.3337 45.3535 73.075 44.0532 72.5725 42.8399C72.0699 41.6267 71.3333 40.5243 70.4047 39.5957C69.4761 38.6671 68.3737 37.9305 67.1605 37.428C65.9472 36.9254 64.6469 36.6667 63.3337 36.6667H58.3337" stroke="#22798C" stroke-width="5"/>
<path d="M33.3335 6.66675C32.8957 7.10444 32.5484 7.6241 32.3114 8.19604C32.0745 8.76798 31.9525 9.381 31.9525 10.0001C31.9525 10.6192 32.0745 11.2322 32.3114 11.8041C32.5484 12.3761 32.8957 12.8957 33.3335 13.3334C33.7713 13.7711 34.1187 14.2908 34.3556 14.8627C34.5926 15.4346 34.7145 16.0477 34.7145 16.6667C34.7145 17.2858 34.5926 17.8988 34.3556 18.4708C34.1187 19.0427 33.7713 19.5624 33.3335 20.0001M16.6669 25.0001L17.0535 24.6134C17.8722 23.7962 18.3682 22.7107 18.4503 21.5569C18.5324 20.403 18.195 19.2583 17.5002 18.3334C16.8061 17.4083 16.4691 16.2637 16.5512 15.11C16.6332 13.9564 17.1288 12.871 17.9469 12.0534L18.3335 11.6667M48.3335 25.0001L48.7202 24.6134C49.5389 23.7962 50.0349 22.7107 50.1169 21.5569C50.199 20.403 49.8616 19.2583 49.1669 18.3334C48.4728 17.4083 48.1358 16.2637 48.2178 15.11C48.2999 13.9564 48.7955 12.871 49.6135 12.0534L50.0002 11.6667" stroke="#22798C" stroke-width="5" stroke-linecap="round" stroke-linejoin="round"/>
</svg>
